G04*
G04 #@! TF.GenerationSoftware,Altium Limited,Altium Designer,22.9.1 (49)*
G04*
G04 Layer_Color=8421504*
%FSLAX44Y44*%
%MOMM*%
G71*
G04*
G04 #@! TF.SameCoordinates,255A3326-CA3E-4E7A-B617-BBCC988FCEB9*
G04*
G04*
G04 #@! TF.FilePolarity,Positive*
G04*
G01*
G75*
G04:AMPARAMS|DCode=13|XSize=1.56mm|YSize=0.28mm|CornerRadius=0.035mm|HoleSize=0mm|Usage=FLASHONLY|Rotation=270.000|XOffset=0mm|YOffset=0mm|HoleType=Round|Shape=RoundedRectangle|*
%AMROUNDEDRECTD13*
21,1,1.5600,0.2100,0,0,270.0*
21,1,1.4900,0.2800,0,0,270.0*
1,1,0.0700,-0.1050,-0.7450*
1,1,0.0700,-0.1050,0.7450*
1,1,0.0700,0.1050,0.7450*
1,1,0.0700,0.1050,-0.7450*
%
%ADD13ROUNDEDRECTD13*%
G04:AMPARAMS|DCode=14|XSize=1.56mm|YSize=0.28mm|CornerRadius=0.035mm|HoleSize=0mm|Usage=FLASHONLY|Rotation=180.000|XOffset=0mm|YOffset=0mm|HoleType=Round|Shape=RoundedRectangle|*
%AMROUNDEDRECTD14*
21,1,1.5600,0.2100,0,0,180.0*
21,1,1.4900,0.2800,0,0,180.0*
1,1,0.0700,-0.7450,0.1050*
1,1,0.0700,0.7450,0.1050*
1,1,0.0700,0.7450,-0.1050*
1,1,0.0700,-0.7450,-0.1050*
%
%ADD14ROUNDEDRECTD14*%
%ADD15R,0.9398X0.7620*%
%ADD16R,1.3500X0.9500*%
%ADD17R,1.3500X3.2500*%
%ADD18R,1.5250X0.6500*%
%ADD19R,0.7620X0.9398*%
%ADD20R,0.7000X0.6500*%
%ADD21R,0.7600X1.2700*%
%ADD22R,0.6000X1.1400*%
%ADD23R,0.3000X1.1400*%
D13*
X-68443Y239543D02*
D03*
X-63443D02*
D03*
X-58443D02*
D03*
X-53443D02*
D03*
X-48443D02*
D03*
X-43443D02*
D03*
X-38443D02*
D03*
X-33443D02*
D03*
X-28443D02*
D03*
X-23443D02*
D03*
X-18443D02*
D03*
X-13443D02*
D03*
X-8443D02*
D03*
X-3443D02*
D03*
X1557D02*
D03*
X6557D02*
D03*
Y125943D02*
D03*
X1557D02*
D03*
X-3443D02*
D03*
X-8443D02*
D03*
X-13443D02*
D03*
X-18443D02*
D03*
X-23443D02*
D03*
X-28443D02*
D03*
X-33443D02*
D03*
X-38443D02*
D03*
X-43443D02*
D03*
X-48443D02*
D03*
X-53443D02*
D03*
X-58443D02*
D03*
X-63443D02*
D03*
X-68443D02*
D03*
D14*
X25857Y220243D02*
D03*
Y215243D02*
D03*
Y210243D02*
D03*
Y205243D02*
D03*
Y200243D02*
D03*
Y195243D02*
D03*
Y190243D02*
D03*
Y185243D02*
D03*
Y180243D02*
D03*
Y175243D02*
D03*
Y170243D02*
D03*
Y165243D02*
D03*
Y160243D02*
D03*
Y155243D02*
D03*
Y150243D02*
D03*
Y145243D02*
D03*
X-87743D02*
D03*
Y150243D02*
D03*
Y155243D02*
D03*
Y160243D02*
D03*
Y165243D02*
D03*
Y170243D02*
D03*
Y175243D02*
D03*
Y180243D02*
D03*
Y185243D02*
D03*
Y190243D02*
D03*
Y195243D02*
D03*
Y200243D02*
D03*
Y205243D02*
D03*
Y210243D02*
D03*
Y215243D02*
D03*
Y220243D02*
D03*
D15*
X-28443Y289833D02*
D03*
Y272053D02*
D03*
X-10943Y289833D02*
D03*
Y272053D02*
D03*
X6557Y289833D02*
D03*
Y272053D02*
D03*
X21557Y289833D02*
D03*
Y272053D02*
D03*
X-118443Y287053D02*
D03*
Y304833D02*
D03*
X-125943Y102333D02*
D03*
X-43443Y14553D02*
D03*
Y32333D02*
D03*
X-103443Y50943D02*
D03*
Y68723D02*
D03*
X-103443Y99833D02*
D03*
Y82053D02*
D03*
X-163443Y93443D02*
D03*
Y111223D02*
D03*
X-163443Y124553D02*
D03*
Y142333D02*
D03*
X-138443Y248443D02*
D03*
Y266223D02*
D03*
X-163443Y159553D02*
D03*
Y177333D02*
D03*
X-120943Y248443D02*
D03*
Y266223D02*
D03*
X-140943Y102333D02*
D03*
Y84553D02*
D03*
X-125943D02*
D03*
X-165943Y257333D02*
D03*
Y239553D02*
D03*
D16*
X-17443Y50443D02*
D03*
Y73443D02*
D03*
Y96443D02*
D03*
D17*
X-84443Y73443D02*
D03*
D18*
X-240563Y277893D02*
D03*
Y265193D02*
D03*
Y252493D02*
D03*
Y239793D02*
D03*
Y227093D02*
D03*
Y214393D02*
D03*
Y201693D02*
D03*
Y188993D02*
D03*
X-186323D02*
D03*
Y201693D02*
D03*
Y214393D02*
D03*
Y227093D02*
D03*
Y239793D02*
D03*
Y252493D02*
D03*
Y265193D02*
D03*
Y277893D02*
D03*
X-240563Y137893D02*
D03*
Y125193D02*
D03*
Y112493D02*
D03*
Y99793D02*
D03*
Y87093D02*
D03*
Y74393D02*
D03*
Y61693D02*
D03*
Y48993D02*
D03*
X-186323D02*
D03*
Y61693D02*
D03*
Y74393D02*
D03*
Y87093D02*
D03*
Y99793D02*
D03*
Y112493D02*
D03*
Y125193D02*
D03*
Y137893D02*
D03*
D19*
X-194553Y155943D02*
D03*
X-212333D02*
D03*
X-42133Y343443D02*
D03*
X-59913D02*
D03*
X-42133Y288443D02*
D03*
X-59913D02*
D03*
X-42133Y308443D02*
D03*
X-59913D02*
D03*
X-42133Y325943D02*
D03*
X-59913D02*
D03*
X-101223Y275943D02*
D03*
X-83443Y275943D02*
D03*
X-101223Y260943D02*
D03*
X-83443Y260943D02*
D03*
X-103930Y121270D02*
D03*
X-86150D02*
D03*
X-194553Y170943D02*
D03*
X-212333D02*
D03*
X-227053D02*
D03*
X-244833D02*
D03*
Y155943D02*
D03*
X-227053D02*
D03*
X-212333Y23443D02*
D03*
X-194553D02*
D03*
X-227053Y303443D02*
D03*
X-244833D02*
D03*
X-194553D02*
D03*
X-212333D02*
D03*
X-227053Y23443D02*
D03*
X-244833D02*
D03*
D20*
X-138443Y305193D02*
D03*
Y291693D02*
D03*
X-83443Y305193D02*
D03*
Y291693D02*
D03*
X-60943Y19193D02*
D03*
Y32693D02*
D03*
D21*
X-203443Y-15457D02*
D03*
Y2343D02*
D03*
X-243443Y-15457D02*
D03*
Y2343D02*
D03*
D22*
X-103943Y23443D02*
D03*
X-111943D02*
D03*
X-159943D02*
D03*
X-167943D02*
D03*
D23*
X-118443D02*
D03*
X-123443D02*
D03*
X-128443D02*
D03*
X-133443Y23443D02*
D03*
X-153443Y23443D02*
D03*
X-148443D02*
D03*
X-143443D02*
D03*
X-138443Y23443D02*
D03*
M02*
