G04*
G04 #@! TF.GenerationSoftware,Altium Limited,Altium Designer,22.9.1 (49)*
G04*
G04 Layer_Color=2752767*
%FSLAX44Y44*%
%MOMM*%
G71*
G04*
G04 #@! TF.SameCoordinates,255A3326-CA3E-4E7A-B617-BBCC988FCEB9*
G04*
G04*
G04 #@! TF.FilePolarity,Positive*
G04*
G01*
G75*
%ADD57C,0.0508*%
%ADD58C,0.0677*%
D57*
X-340475Y201411D02*
Y205475D01*
X-336411D01*
Y201411D01*
X-340475D01*
X-315475D02*
Y205475D01*
X-311411D01*
Y201411D01*
X-315475D01*
X-290475D02*
Y205475D01*
X-286411D01*
Y201411D01*
X-290475D01*
X-131959Y157427D02*
Y156411D01*
X-129927D01*
Y157427D01*
X-128911D01*
Y159459D01*
X-129927D01*
Y160475D01*
X-131959D01*
Y159459D01*
X-132975D01*
Y157427D01*
X-131959D01*
Y206227D02*
Y205211D01*
X-129927D01*
Y206227D01*
X-128911D01*
Y208259D01*
X-129927D01*
Y209275D01*
X-131959D01*
Y208259D01*
X-132975D01*
Y206227D01*
X-131959D01*
X-340475Y66411D02*
Y70475D01*
X-336411D01*
Y66411D01*
X-340475D01*
X-315475D02*
Y70475D01*
X-311411D01*
Y66411D01*
X-315475D01*
X-290475D02*
Y70475D01*
X-286411D01*
Y66411D01*
X-290475D01*
X-340475Y131411D02*
Y135475D01*
X-336411D01*
Y131411D01*
X-340475D01*
X-315475D02*
Y135475D01*
X-311411D01*
Y131411D01*
X-315475D01*
X-290475D02*
Y135475D01*
X-286411D01*
Y131411D01*
X-290475D01*
X-340475Y266411D02*
Y270475D01*
X-336411D01*
Y266411D01*
X-340475D01*
X-315475D02*
Y270475D01*
X-311411D01*
Y266411D01*
X-315475D01*
X-290475D02*
Y270475D01*
X-286411D01*
Y266411D01*
X-290475D01*
X-2032Y-2032D02*
X-1016Y0D01*
X-2032Y2032D01*
X0Y1016D01*
X2032Y2032D01*
X1016Y0D01*
X2032Y-2032D01*
X0Y-1016D01*
X-2032Y-2032D01*
X-2032Y324854D02*
X-1016Y326886D01*
X-2032Y328918D01*
X0Y327902D01*
X2032Y328918D01*
X1016Y326886D01*
X2032Y324854D01*
X0Y325870D01*
X-2032Y324854D01*
X-328918Y324854D02*
X-327902Y326886D01*
X-328918Y328918D01*
X-326886Y327902D01*
X-324854Y328918D01*
X-325870Y326886D01*
X-324854Y324854D01*
X-326886Y325870D01*
X-328918Y324854D01*
X-328918Y-2032D02*
X-327902Y-0D01*
X-328918Y2032D01*
X-326886Y1016D01*
X-324854Y2032D01*
X-325870Y-0D01*
X-324854Y-2032D01*
X-326886Y-1016D01*
X-328918Y-2032D01*
X-92693Y15611D02*
X-94725Y19675D01*
X-90661D01*
X-92693Y15611D01*
X-179193D02*
X-181225Y19675D01*
X-177161D01*
X-179193Y15611D01*
X-107043Y10711D02*
X-106027Y11727D01*
X-105011D01*
X-106027Y12743D01*
X-105011Y13759D01*
X-106027D01*
X-107043Y14775D01*
X-108059Y13759D01*
X-109075D01*
X-108059Y12743D01*
X-109075Y11727D01*
X-108059D01*
X-107043Y10711D01*
X-164843D02*
X-163827Y11727D01*
X-162811D01*
X-163827Y12743D01*
X-162811Y13759D01*
X-163827D01*
X-164843Y14775D01*
X-165859Y13759D01*
X-166875D01*
X-165859Y12743D01*
X-166875Y11727D01*
X-165859D01*
X-164843Y10711D01*
X-52032Y145468D02*
X-51016D01*
X-50000Y146484D01*
X-48984Y145468D01*
X-47968D01*
Y146484D01*
X-48984Y147500D01*
X-47968Y148516D01*
Y149532D01*
X-48984D01*
X-50000Y148516D01*
X-51016Y149532D01*
X-52032D01*
Y148516D01*
X-51016Y147500D01*
X-52032Y146484D01*
Y145468D01*
X-102975Y153911D02*
X-101959D01*
X-100943Y154927D01*
X-99927Y153911D01*
X-98911D01*
Y154927D01*
X-99927Y155943D01*
X-98911Y156959D01*
Y157975D01*
X-99927D01*
X-100943Y156959D01*
X-101959Y157975D01*
X-102975D01*
Y156959D01*
X-101959Y155943D01*
X-102975Y154927D01*
Y153911D01*
X-62927Y220968D02*
X-61911D01*
X-60895Y221984D01*
X-59879Y220968D01*
X-58863D01*
Y221984D01*
X-59879Y223000D01*
X-58863Y224016D01*
Y225032D01*
X-59879D01*
X-60895Y224016D01*
X-61911Y225032D01*
X-62927D01*
Y224016D01*
X-61911Y223000D01*
X-62927Y221984D01*
Y220968D01*
X-105524Y140096D02*
X-104508D01*
X-103492Y141112D01*
X-102476Y140096D01*
X-101460D01*
Y141112D01*
X-102476Y142128D01*
X-101460Y143144D01*
Y144160D01*
X-102476D01*
X-103492Y143144D01*
X-104508Y144160D01*
X-105524D01*
Y143144D01*
X-104508Y142128D01*
X-105524Y141112D01*
Y140096D01*
X-77032Y195468D02*
X-76016D01*
X-75000Y196484D01*
X-73984Y195468D01*
X-72968D01*
Y196484D01*
X-73984Y197500D01*
X-72968Y198516D01*
Y199532D01*
X-73984D01*
X-75000Y198516D01*
X-76016Y199532D01*
X-77032D01*
Y198516D01*
X-76016Y197500D01*
X-77032Y196484D01*
Y195468D01*
X-19532Y170468D02*
X-18516D01*
X-17500Y171484D01*
X-16484Y170468D01*
X-15468D01*
Y171484D01*
X-16484Y172500D01*
X-15468Y173516D01*
Y174532D01*
X-16484D01*
X-17500Y173516D01*
X-18516Y174532D01*
X-19532D01*
Y173516D01*
X-18516Y172500D01*
X-19532Y171484D01*
Y170468D01*
X-30475Y136411D02*
X-29459D01*
X-28443Y137427D01*
X-27427Y136411D01*
X-26411D01*
Y137427D01*
X-27427Y138443D01*
X-26411Y139459D01*
Y140475D01*
X-27427D01*
X-28443Y139459D01*
X-29459Y140475D01*
X-30475D01*
Y139459D01*
X-29459Y138443D01*
X-30475Y137427D01*
Y136411D01*
X-7975Y251411D02*
X-6959D01*
X-5943Y252427D01*
X-4927Y251411D01*
X-3911D01*
Y252427D01*
X-4927Y253443D01*
X-3911Y254459D01*
Y255475D01*
X-4927D01*
X-5943Y254459D01*
X-6959Y255475D01*
X-7975D01*
Y254459D01*
X-6959Y253443D01*
X-7975Y252427D01*
Y251411D01*
X-475Y218911D02*
X541D01*
X1557Y219927D01*
X2573Y218911D01*
X3589D01*
Y219927D01*
X2573Y220943D01*
X3589Y221959D01*
Y222975D01*
X2573D01*
X1557Y221959D01*
X541Y222975D01*
X-475D01*
Y221959D01*
X541Y220943D01*
X-475Y219927D01*
Y218911D01*
X22025Y223911D02*
X23041D01*
X24057Y224927D01*
X25073Y223911D01*
X26089D01*
Y224927D01*
X25073Y225943D01*
X26089Y226959D01*
Y227975D01*
X25073D01*
X24057Y226959D01*
X23041Y227975D01*
X22025D01*
Y226959D01*
X23041Y225943D01*
X22025Y224927D01*
Y223911D01*
X9525Y161411D02*
X10541D01*
X11557Y162427D01*
X12573Y161411D01*
X13589D01*
Y162427D01*
X12573Y163443D01*
X13589Y164459D01*
Y165475D01*
X12573D01*
X11557Y164459D01*
X10541Y165475D01*
X9525D01*
Y164459D01*
X10541Y163443D01*
X9525Y162427D01*
Y161411D01*
X-105475Y163911D02*
X-104459D01*
X-103443Y164927D01*
X-102427Y163911D01*
X-101411D01*
Y164927D01*
X-102427Y165943D01*
X-101411Y166959D01*
Y167975D01*
X-102427D01*
X-103443Y166959D01*
X-104459Y167975D01*
X-105475D01*
Y166959D01*
X-104459Y165943D01*
X-105475Y164927D01*
Y163911D01*
X-15475Y213911D02*
X-14459D01*
X-13443Y214927D01*
X-12427Y213911D01*
X-11411D01*
Y214927D01*
X-12427Y215943D01*
X-11411Y216959D01*
Y217975D01*
X-12427D01*
X-13443Y216959D01*
X-14459Y217975D01*
X-15475D01*
Y216959D01*
X-14459Y215943D01*
X-15475Y214927D01*
Y213911D01*
X-172975Y201411D02*
X-171959D01*
X-170943Y202427D01*
X-169927Y201411D01*
X-168911D01*
Y202427D01*
X-169927Y203443D01*
X-168911Y204459D01*
Y205475D01*
X-169927D01*
X-170943Y204459D01*
X-171959Y205475D01*
X-172975D01*
Y204459D01*
X-171959Y203443D01*
X-172975Y202427D01*
Y201411D01*
X-150475Y211411D02*
X-149459D01*
X-148443Y212427D01*
X-147427Y211411D01*
X-146411D01*
Y212427D01*
X-147427Y213443D01*
X-146411Y214459D01*
Y215475D01*
X-147427D01*
X-148443Y214459D01*
X-149459Y215475D01*
X-150475D01*
Y214459D01*
X-149459Y213443D01*
X-150475Y212427D01*
Y211411D01*
Y221411D02*
X-149459D01*
X-148443Y222427D01*
X-147427Y221411D01*
X-146411D01*
Y222427D01*
X-147427Y223443D01*
X-146411Y224459D01*
Y225475D01*
X-147427D01*
X-148443Y224459D01*
X-149459Y225475D01*
X-150475D01*
Y224459D01*
X-149459Y223443D01*
X-150475Y222427D01*
Y221411D01*
X-20475Y106411D02*
X-19459D01*
X-18443Y107427D01*
X-17427Y106411D01*
X-16411D01*
Y107427D01*
X-17427Y108443D01*
X-16411Y109459D01*
Y110475D01*
X-17427D01*
X-18443Y109459D01*
X-19459Y110475D01*
X-20475D01*
Y109459D01*
X-19459Y108443D01*
X-20475Y107427D01*
Y106411D01*
X-32975Y103911D02*
X-31959D01*
X-30943Y104927D01*
X-29927Y103911D01*
X-28911D01*
Y104927D01*
X-29927Y105943D01*
X-28911Y106959D01*
Y107975D01*
X-29927D01*
X-30943Y106959D01*
X-31959Y107975D01*
X-32975D01*
Y106959D01*
X-31959Y105943D01*
X-32975Y104927D01*
Y103911D01*
X-2975Y153911D02*
X-1959D01*
X-943Y154927D01*
X73Y153911D01*
X1089D01*
Y154927D01*
X73Y155943D01*
X1089Y156959D01*
Y157975D01*
X73D01*
X-943Y156959D01*
X-1959Y157975D01*
X-2975D01*
Y156959D01*
X-1959Y155943D01*
X-2975Y154927D01*
Y153911D01*
X4525Y148911D02*
X5541D01*
X6557Y149927D01*
X7573Y148911D01*
X8589D01*
Y149927D01*
X7573Y150943D01*
X8589Y151959D01*
Y152975D01*
X7573D01*
X6557Y151959D01*
X5541Y152975D01*
X4525D01*
Y151959D01*
X5541Y150943D01*
X4525Y149927D01*
Y148911D01*
X-170475Y188911D02*
X-169459D01*
X-168443Y189927D01*
X-167427Y188911D01*
X-166411D01*
Y189927D01*
X-167427Y190943D01*
X-166411Y191959D01*
Y192975D01*
X-167427D01*
X-168443Y191959D01*
X-169459Y192975D01*
X-170475D01*
Y191959D01*
X-169459Y190943D01*
X-170475Y189927D01*
Y188911D01*
X-205475Y236411D02*
X-204459D01*
X-203443Y237427D01*
X-202427Y236411D01*
X-201411D01*
Y237427D01*
X-202427Y238443D01*
X-201411Y239459D01*
Y240475D01*
X-202427D01*
X-203443Y239459D01*
X-204459Y240475D01*
X-205475D01*
Y239459D01*
X-204459Y238443D01*
X-205475Y237427D01*
Y236411D01*
Y248911D02*
X-204459D01*
X-203443Y249927D01*
X-202427Y248911D01*
X-201411D01*
Y249927D01*
X-202427Y250943D01*
X-201411Y251959D01*
Y252975D01*
X-202427D01*
X-203443Y251959D01*
X-204459Y252975D01*
X-205475D01*
Y251959D01*
X-204459Y250943D01*
X-205475Y249927D01*
Y248911D01*
X-180475Y158911D02*
X-179459D01*
X-178443Y159927D01*
X-177427Y158911D01*
X-176411D01*
Y159927D01*
X-177427Y160943D01*
X-176411Y161959D01*
Y162975D01*
X-177427D01*
X-178443Y161959D01*
X-179459Y162975D01*
X-180475D01*
Y161959D01*
X-179459Y160943D01*
X-180475Y159927D01*
Y158911D01*
X-145475Y38911D02*
X-144459D01*
X-143443Y39927D01*
X-142427Y38911D01*
X-141411D01*
Y39927D01*
X-142427Y40943D01*
X-141411Y41959D01*
Y42975D01*
X-142427D01*
X-143443Y41959D01*
X-144459Y42975D01*
X-145475D01*
Y41959D01*
X-144459Y40943D01*
X-145475Y39927D01*
Y38911D01*
X-101989Y222178D02*
X-100973D01*
X-99957Y223194D01*
X-98941Y222178D01*
X-97925D01*
Y223194D01*
X-98941Y224210D01*
X-97925Y225226D01*
Y226242D01*
X-98941D01*
X-99957Y225226D01*
X-100973Y226242D01*
X-101989D01*
Y225226D01*
X-100973Y224210D01*
X-101989Y223194D01*
Y222178D01*
X-104245Y1482D02*
X-103229D01*
X-102213Y2498D01*
X-101197Y1482D01*
X-100181D01*
Y2498D01*
X-101197Y3514D01*
X-100181Y4530D01*
Y5546D01*
X-101197D01*
X-102213Y4530D01*
X-103229Y5546D01*
X-104245D01*
Y4530D01*
X-103229Y3514D01*
X-104245Y2498D01*
Y1482D01*
X-205475Y8911D02*
X-204459D01*
X-203443Y9927D01*
X-202427Y8911D01*
X-201411D01*
Y9927D01*
X-202427Y10943D01*
X-201411Y11959D01*
Y12975D01*
X-202427D01*
X-203443Y11959D01*
X-204459Y12975D01*
X-205475D01*
Y11959D01*
X-204459Y10943D01*
X-205475Y9927D01*
Y8911D01*
X-245475Y11411D02*
X-244459D01*
X-243443Y12427D01*
X-242427Y11411D01*
X-241411D01*
Y12427D01*
X-242427Y13443D01*
X-241411Y14459D01*
Y15475D01*
X-242427D01*
X-243443Y14459D01*
X-244459Y15475D01*
X-245475D01*
Y14459D01*
X-244459Y13443D01*
X-245475Y12427D01*
Y11411D01*
X-130475Y36411D02*
X-129459D01*
X-128443Y37427D01*
X-127427Y36411D01*
X-126411D01*
Y37427D01*
X-127427Y38443D01*
X-126411Y39459D01*
Y40475D01*
X-127427D01*
X-128443Y39459D01*
X-129459Y40475D01*
X-130475D01*
Y39459D01*
X-129459Y38443D01*
X-130475Y37427D01*
Y36411D01*
X-165475Y68911D02*
X-164459D01*
X-163443Y69927D01*
X-162427Y68911D01*
X-161411D01*
Y69927D01*
X-162427Y70943D01*
X-161411Y71959D01*
Y72975D01*
X-162427D01*
X-163443Y71959D01*
X-164459Y72975D01*
X-165475D01*
Y71959D01*
X-164459Y70943D01*
X-165475Y69927D01*
Y68911D01*
Y78911D02*
X-164459D01*
X-163443Y79927D01*
X-162427Y78911D01*
X-161411D01*
Y79927D01*
X-162427Y80943D01*
X-161411Y81959D01*
Y82975D01*
X-162427D01*
X-163443Y81959D01*
X-164459Y82975D01*
X-165475D01*
Y81959D01*
X-164459Y80943D01*
X-165475Y79927D01*
Y78911D01*
X-176425Y72361D02*
X-175409D01*
X-174393Y73377D01*
X-173377Y72361D01*
X-172361D01*
Y73377D01*
X-173377Y74393D01*
X-172361Y75409D01*
Y76425D01*
X-173377D01*
X-174393Y75409D01*
X-175409Y76425D01*
X-176425D01*
Y75409D01*
X-175409Y74393D01*
X-176425Y73377D01*
Y72361D01*
X-167975Y56411D02*
X-166959D01*
X-165943Y57427D01*
X-164927Y56411D01*
X-163911D01*
Y57427D01*
X-164927Y58443D01*
X-163911Y59459D01*
Y60475D01*
X-164927D01*
X-165943Y59459D01*
X-166959Y60475D01*
X-167975D01*
Y59459D01*
X-166959Y58443D01*
X-167975Y57427D01*
Y56411D01*
X-75475Y108911D02*
X-74459D01*
X-73443Y109927D01*
X-72427Y108911D01*
X-71411D01*
Y109927D01*
X-72427Y110943D01*
X-71411Y111959D01*
Y112975D01*
X-72427D01*
X-73443Y111959D01*
X-74459Y112975D01*
X-75475D01*
Y111959D01*
X-74459Y110943D01*
X-75475Y109927D01*
Y108911D01*
X-210475Y111411D02*
X-209459D01*
X-208443Y112427D01*
X-207427Y111411D01*
X-206411D01*
Y112427D01*
X-207427Y113443D01*
X-206411Y114459D01*
Y115475D01*
X-207427D01*
X-208443Y114459D01*
X-209459Y115475D01*
X-210475D01*
Y114459D01*
X-209459Y113443D01*
X-210475Y112427D01*
Y111411D01*
X-205475Y98911D02*
X-204459D01*
X-203443Y99927D01*
X-202427Y98911D01*
X-201411D01*
Y99927D01*
X-202427Y100943D01*
X-201411Y101959D01*
Y102975D01*
X-202427D01*
X-203443Y101959D01*
X-204459Y102975D01*
X-205475D01*
Y101959D01*
X-204459Y100943D01*
X-205475Y99927D01*
Y98911D01*
D58*
X-90661Y-24057D02*
G03*
X-90661Y-24057I-2032J0D01*
G01*
X-177161D02*
G03*
X-177161Y-24057I-2032J0D01*
G01*
M02*
