M48
;Layer_Color=9474304
;FILE_FORMAT=4:4
METRIC,LZ
;TYPE=PLATED
T1F00S00C0.2540
T3F00S00C0.7620
T4F00S00C1.0000
T5F00S00C3.5000
;TYPE=NON_PLATED
T6F00S00C0.6000
%
T01
X-00243443Y00013443
X-00203443Y00010943
X-00165943Y00058443
X-00163443Y00070943
Y00080943
X-00174393Y00074393
X-00203443Y00100943
X-00208443Y00113443
X-00178443Y00160943
X-00168443Y00190943
X-00170943Y00203443
X-00148443Y00213443
Y00223443
X-00099957Y0022421
X-00060895Y00223
X-00075Y001975
X-00103443Y00165943
X-00100943Y00155943
X-00103492Y00142128
X-0005Y001475
X-00028443Y00138443
X-00030943Y00105943
X-00018443Y00108443
X-00073443Y00110943
X-00000943Y00155943
X00006557Y00150943
X00011557Y00163443
X-000175Y001725
X-00013443Y00215943
X00001557Y00220943
X00024057Y00225943
X-00005943Y00253443
X-00203443Y00250943
Y00238443
X-00143443Y00040943
X-00128443Y00038443
X-00102213Y00003514
T03
X-00130943Y00158443
Y00207243
T04
X-00338443Y00068443
Y00133443
Y00203443
X-00338443Y00268443
X-00313443
X-00288443
X-00288443Y00203443
X-00313443
Y00133443
X-00288443
Y00068443
X-00313443
T05
X-00326886Y-0
X-00326886Y00326886
X0Y00326886
X0Y0
T06
X-00164843Y00012743
X-00107043
M30
