G04*
G04 #@! TF.GenerationSoftware,Altium Limited,Altium Designer,22.9.1 (49)*
G04*
G04 Layer_Color=255*
%FSLAX44Y44*%
%MOMM*%
G71*
G04*
G04 #@! TF.SameCoordinates,C6527EDA-D87B-4D04-AF07-29C5A3CB862A*
G04*
G04*
G04 #@! TF.FilePolarity,Positive*
G04*
G01*
G75*
%ADD13R,0.7000X0.6500*%
%ADD14R,0.9398X0.7620*%
G04:AMPARAMS|DCode=15|XSize=1.56mm|YSize=0.28mm|CornerRadius=0.035mm|HoleSize=0mm|Usage=FLASHONLY|Rotation=0.000|XOffset=0mm|YOffset=0mm|HoleType=Round|Shape=RoundedRectangle|*
%AMROUNDEDRECTD15*
21,1,1.5600,0.2100,0,0,0.0*
21,1,1.4900,0.2800,0,0,0.0*
1,1,0.0700,0.7450,-0.1050*
1,1,0.0700,-0.7450,-0.1050*
1,1,0.0700,-0.7450,0.1050*
1,1,0.0700,0.7450,0.1050*
%
%ADD15ROUNDEDRECTD15*%
%ADD16R,0.7600X1.2700*%
%ADD17R,0.7620X0.9398*%
G04:AMPARAMS|DCode=18|XSize=1.56mm|YSize=0.28mm|CornerRadius=0.035mm|HoleSize=0mm|Usage=FLASHONLY|Rotation=90.000|XOffset=0mm|YOffset=0mm|HoleType=Round|Shape=RoundedRectangle|*
%AMROUNDEDRECTD18*
21,1,1.5600,0.2100,0,0,90.0*
21,1,1.4900,0.2800,0,0,90.0*
1,1,0.0700,0.1050,0.7450*
1,1,0.0700,0.1050,-0.7450*
1,1,0.0700,-0.1050,-0.7450*
1,1,0.0700,-0.1050,0.7450*
%
%ADD18ROUNDEDRECTD18*%
%ADD19R,1.3500X0.9500*%
%ADD20R,1.3500X3.2500*%
%ADD21R,1.5250X0.6500*%
%ADD22R,0.6000X1.1400*%
%ADD23R,0.3000X1.1400*%
%ADD48C,1.6510*%
%ADD49R,1.6510X1.6510*%
%ADD50R,1.5080X1.5080*%
%ADD51C,1.5080*%
%ADD52C,5.0000*%
%ADD53O,0.9000X1.7000*%
%ADD54O,0.9000X2.0000*%
%ADD55C,0.6000*%
D13*
X575000Y1141750D02*
D03*
Y1128250D02*
D03*
X630000Y1141750D02*
D03*
Y1128250D02*
D03*
X652500Y855750D02*
D03*
Y869250D02*
D03*
D14*
X595000Y1123610D02*
D03*
Y1141390D02*
D03*
X587500Y938890D02*
D03*
X670000Y851110D02*
D03*
Y868890D02*
D03*
X610000Y887500D02*
D03*
Y905280D02*
D03*
X610000Y936390D02*
D03*
Y918610D02*
D03*
X550000Y930000D02*
D03*
Y947780D02*
D03*
X550000Y961110D02*
D03*
Y978890D02*
D03*
X575000Y1085000D02*
D03*
Y1102780D02*
D03*
X550000Y996110D02*
D03*
Y1013890D02*
D03*
X592500Y1085000D02*
D03*
Y1102780D02*
D03*
X572500Y938890D02*
D03*
Y921110D02*
D03*
X587500D02*
D03*
X547500Y1093890D02*
D03*
Y1076110D02*
D03*
X685000Y1118890D02*
D03*
Y1101110D02*
D03*
X702500Y1118890D02*
D03*
Y1101110D02*
D03*
X720000Y1118890D02*
D03*
Y1101110D02*
D03*
X735000Y1118890D02*
D03*
Y1101110D02*
D03*
D15*
X625700Y1021800D02*
D03*
Y1056800D02*
D03*
Y1051800D02*
D03*
Y1046800D02*
D03*
Y1041800D02*
D03*
Y1036800D02*
D03*
Y1031800D02*
D03*
Y1026800D02*
D03*
Y1016800D02*
D03*
Y1011800D02*
D03*
Y1006800D02*
D03*
Y1001800D02*
D03*
Y996800D02*
D03*
Y991800D02*
D03*
Y986800D02*
D03*
Y981800D02*
D03*
X739300D02*
D03*
Y986800D02*
D03*
Y991800D02*
D03*
Y996800D02*
D03*
Y1001800D02*
D03*
Y1006800D02*
D03*
Y1011800D02*
D03*
Y1016800D02*
D03*
Y1021800D02*
D03*
Y1026800D02*
D03*
Y1031800D02*
D03*
Y1036800D02*
D03*
Y1041800D02*
D03*
Y1046800D02*
D03*
Y1051800D02*
D03*
Y1056800D02*
D03*
D16*
X510000Y821100D02*
D03*
Y838900D02*
D03*
X470000Y821100D02*
D03*
Y838900D02*
D03*
D17*
X671310Y1180000D02*
D03*
X653530D02*
D03*
X671310Y1125000D02*
D03*
X653530D02*
D03*
X671310Y1145000D02*
D03*
X653530D02*
D03*
X671310Y1162500D02*
D03*
X653530D02*
D03*
X612220Y1112500D02*
D03*
X630000Y1112500D02*
D03*
X612220Y1097500D02*
D03*
X630000Y1097500D02*
D03*
X613610Y950000D02*
D03*
X631390D02*
D03*
X518890Y1007500D02*
D03*
X501110D02*
D03*
X518890Y992500D02*
D03*
X501110D02*
D03*
X486390Y1007500D02*
D03*
X468610D02*
D03*
X486390Y992500D02*
D03*
X468610D02*
D03*
X501110Y860000D02*
D03*
X518890D02*
D03*
X468610Y1140000D02*
D03*
X486390D02*
D03*
X518890Y1140000D02*
D03*
X501110D02*
D03*
X486390Y860000D02*
D03*
X468610D02*
D03*
D18*
X645000Y962500D02*
D03*
X650000D02*
D03*
X655000D02*
D03*
X660000D02*
D03*
X665000D02*
D03*
X670000D02*
D03*
X675000D02*
D03*
X680000D02*
D03*
X685000D02*
D03*
X690000D02*
D03*
X695000D02*
D03*
X700000D02*
D03*
X705000D02*
D03*
X710000D02*
D03*
X715000D02*
D03*
X720000D02*
D03*
Y1076100D02*
D03*
X715000D02*
D03*
X710000D02*
D03*
X705000D02*
D03*
X700000D02*
D03*
X695000D02*
D03*
X690000D02*
D03*
X685000D02*
D03*
X680000D02*
D03*
X675000D02*
D03*
X670000D02*
D03*
X665000D02*
D03*
X660000D02*
D03*
X655000D02*
D03*
X650000D02*
D03*
X645000D02*
D03*
D19*
X696000Y887000D02*
D03*
Y910000D02*
D03*
Y933000D02*
D03*
D20*
X629000Y910000D02*
D03*
D21*
X472880Y1114450D02*
D03*
Y1101750D02*
D03*
Y1089050D02*
D03*
Y1076350D02*
D03*
Y1063650D02*
D03*
Y1050950D02*
D03*
Y1038250D02*
D03*
Y1025550D02*
D03*
X527120D02*
D03*
Y1038250D02*
D03*
Y1050950D02*
D03*
Y1063650D02*
D03*
Y1076350D02*
D03*
Y1089050D02*
D03*
Y1101750D02*
D03*
Y1114450D02*
D03*
X472880Y974450D02*
D03*
Y961750D02*
D03*
Y949050D02*
D03*
Y936350D02*
D03*
Y923650D02*
D03*
Y910950D02*
D03*
Y898250D02*
D03*
Y885550D02*
D03*
X527120D02*
D03*
Y898250D02*
D03*
Y910950D02*
D03*
Y923650D02*
D03*
Y936350D02*
D03*
Y949050D02*
D03*
Y961750D02*
D03*
Y974450D02*
D03*
D22*
X609500Y860000D02*
D03*
X601500D02*
D03*
X553500D02*
D03*
X545500D02*
D03*
D23*
X595000D02*
D03*
X590000D02*
D03*
X585000D02*
D03*
X580000Y860000D02*
D03*
X560000Y860000D02*
D03*
X565000D02*
D03*
X570000D02*
D03*
X575000Y860000D02*
D03*
D48*
X582500Y995000D02*
D03*
D49*
Y1043800D02*
D03*
D50*
X375000Y905000D02*
D03*
Y970000D02*
D03*
Y1040000D02*
D03*
X375000Y1105000D02*
D03*
D51*
X400000Y905000D02*
D03*
X425000D02*
D03*
X400000Y970000D02*
D03*
X425000D02*
D03*
X400000Y1040000D02*
D03*
X425000D02*
D03*
X400000Y1105000D02*
D03*
X425000D02*
D03*
D52*
X713443Y836557D02*
D03*
X713443Y1163443D02*
D03*
X386557Y1163443D02*
D03*
X386557Y836557D02*
D03*
D53*
X620750Y812500D02*
D03*
X534250D02*
D03*
D54*
X620750Y854200D02*
D03*
X534250D02*
D03*
D55*
X606400Y849300D02*
D03*
X548600D02*
D03*
M02*
