G04*
G04 #@! TF.GenerationSoftware,Altium Limited,Altium Designer,22.9.1 (49)*
G04*
G04 Layer_Color=16711935*
%FSLAX44Y44*%
%MOMM*%
G71*
G04*
G04 #@! TF.SameCoordinates,255A3326-CA3E-4E7A-B617-BBCC988FCEB9*
G04*
G04*
G04 #@! TF.FilePolarity,Negative*
G04*
G01*
G75*
%ADD35R,1.7112X1.7112*%
%ADD36C,1.7112*%
%ADD37C,1.8542*%
%ADD38R,1.8542X1.8542*%
%ADD39C,5.2032*%
%ADD40O,1.1032X1.9032*%
%ADD41O,1.1032X2.2032*%
%ADD42C,0.8032*%
%ADD43C,0.7032*%
D35*
X-338443Y203443D02*
D03*
Y68443D02*
D03*
Y133443D02*
D03*
X-338443Y268443D02*
D03*
D36*
X-313443Y203443D02*
D03*
X-288443D02*
D03*
X-313443Y68443D02*
D03*
X-288443D02*
D03*
X-313443Y133443D02*
D03*
X-288443D02*
D03*
X-313443Y268443D02*
D03*
X-288443D02*
D03*
D37*
X-130943Y158443D02*
D03*
D38*
Y207243D02*
D03*
D39*
X0Y0D02*
D03*
X0Y326886D02*
D03*
X-326886Y326886D02*
D03*
X-326886Y-0D02*
D03*
D40*
X-92693Y-24057D02*
D03*
X-179193D02*
D03*
D41*
X-92693Y17643D02*
D03*
X-179193D02*
D03*
D42*
X-107043Y12743D02*
D03*
X-164843D02*
D03*
D43*
X-50000Y147500D02*
D03*
X-100943Y155943D02*
D03*
X-60895Y223000D02*
D03*
X-103492Y142128D02*
D03*
X-75000Y197500D02*
D03*
X-17500Y172500D02*
D03*
X-28443Y138443D02*
D03*
X-5943Y253443D02*
D03*
X1557Y220943D02*
D03*
X24057Y225943D02*
D03*
X11557Y163443D02*
D03*
X-103443Y165943D02*
D03*
X-13443Y215943D02*
D03*
X-170943Y203443D02*
D03*
X-148443Y213443D02*
D03*
Y223443D02*
D03*
X-18443Y108443D02*
D03*
X-30943Y105943D02*
D03*
X-943Y155943D02*
D03*
X6557Y150943D02*
D03*
X-168443Y190943D02*
D03*
X-203443Y238443D02*
D03*
Y250943D02*
D03*
X-178443Y160943D02*
D03*
X-143443Y40943D02*
D03*
X-99957Y224210D02*
D03*
X-102213Y3514D02*
D03*
X-203443Y10943D02*
D03*
X-243443Y13443D02*
D03*
X-128443Y38443D02*
D03*
X-163443Y70943D02*
D03*
Y80943D02*
D03*
X-174393Y74393D02*
D03*
X-165943Y58443D02*
D03*
X-73443Y110943D02*
D03*
X-208443Y113443D02*
D03*
X-203443Y100943D02*
D03*
M02*
