M48
;Layer_Color=9474304
;FILE_FORMAT=4:4
METRIC,LZ
;TYPE=PLATED
T1F00S00C0.2540
T3F00S00C0.7620
T4F00S00C1.0000
T5F00S00C3.5000
;TYPE=NON_PLATED
T6F00S00C0.6000
%
T01
X0047Y0085
X0051Y008475
X005475Y00895
X0055Y009075
Y009175
X0053905Y0091095
X0051Y009375
X00505Y0095
X0053Y009925
X00545Y010275
Y010375
X005425Y0105
Y010625
X0051Y01075
Y010875
X00613486Y01060767
X0065Y010625
X006393Y010368
X0061Y010025
X006125Y009925
Y009825
X0066
X006875Y00985
X00695Y009775
X006975Y0095
X007025Y009425
X006525Y0094
X006425
X0064Y009475
X007025Y01005
X007225Y010025
X0071Y010575
X00585Y00875
X0057Y008775
X0061123Y00840071
T03
X005825Y00995
Y010438
T04
X00375Y00905
Y0097
Y0104
X00375Y01105
X004
X00425
X00425Y0104
X004
Y0097
X00425
Y00905
X004
T05
X00386557Y00836557
X00386557Y01163443
X00713443Y01163443
X00713443Y00836557
T06
X005486Y008493
X006064
M30
