G04*
G04 #@! TF.GenerationSoftware,Altium Limited,Altium Designer,22.9.1 (49)*
G04*
G04 Layer_Color=2752767*
%FSLAX44Y44*%
%MOMM*%
G71*
G04*
G04 #@! TF.SameCoordinates,C6527EDA-D87B-4D04-AF07-29C5A3CB862A*
G04*
G04*
G04 #@! TF.FilePolarity,Positive*
G04*
G01*
G75*
%ADD57C,0.0508*%
%ADD58C,0.0677*%
D57*
X581484Y993984D02*
Y992968D01*
X583516D01*
Y993984D01*
X584532D01*
Y996016D01*
X583516D01*
Y997032D01*
X581484D01*
Y996016D01*
X580468D01*
Y993984D01*
X581484D01*
Y1042784D02*
Y1041768D01*
X583516D01*
Y1042784D01*
X584532D01*
Y1044816D01*
X583516D01*
Y1045832D01*
X581484D01*
Y1044816D01*
X580468D01*
Y1042784D01*
X581484D01*
X372968Y902968D02*
Y907032D01*
X377032D01*
Y902968D01*
X372968D01*
X397968D02*
Y907032D01*
X402032D01*
Y902968D01*
X397968D01*
X422968D02*
Y907032D01*
X427032D01*
Y902968D01*
X422968D01*
X372968Y967968D02*
Y972032D01*
X377032D01*
Y967968D01*
X372968D01*
X397968D02*
Y972032D01*
X402032D01*
Y967968D01*
X397968D01*
X422968D02*
Y972032D01*
X427032D01*
Y967968D01*
X422968D01*
X372968Y1037968D02*
Y1042032D01*
X377032D01*
Y1037968D01*
X372968D01*
X397968D02*
Y1042032D01*
X402032D01*
Y1037968D01*
X397968D01*
X422968D02*
Y1042032D01*
X427032D01*
Y1037968D01*
X422968D01*
X372968Y1102968D02*
Y1107032D01*
X377032D01*
Y1102968D01*
X372968D01*
X397968D02*
Y1107032D01*
X402032D01*
Y1102968D01*
X397968D01*
X422968D02*
Y1107032D01*
X427032D01*
Y1102968D01*
X422968D01*
X711411Y834525D02*
X712427Y836557D01*
X711411Y838589D01*
X713443Y837573D01*
X715475Y838589D01*
X714459Y836557D01*
X715475Y834525D01*
X713443Y835541D01*
X711411Y834525D01*
X711411Y1161411D02*
X712427Y1163443D01*
X711411Y1165475D01*
X713443Y1164459D01*
X715475Y1165475D01*
X714459Y1163443D01*
X715475Y1161411D01*
X713443Y1162427D01*
X711411Y1161411D01*
X384525Y1161411D02*
X385541Y1163443D01*
X384525Y1165475D01*
X386557Y1164459D01*
X388589Y1165475D01*
X387573Y1163443D01*
X388589Y1161411D01*
X386557Y1162427D01*
X384525Y1161411D01*
X384525Y834525D02*
X385541Y836557D01*
X384525Y838589D01*
X386557Y837573D01*
X388589Y838589D01*
X387573Y836557D01*
X388589Y834525D01*
X386557Y835541D01*
X384525Y834525D01*
X620750Y852168D02*
X618718Y856232D01*
X622782D01*
X620750Y852168D01*
X534250D02*
X532218Y856232D01*
X536282D01*
X534250Y852168D01*
X606400Y847268D02*
X607416Y848284D01*
X608432D01*
X607416Y849300D01*
X608432Y850316D01*
X607416D01*
X606400Y851332D01*
X605384Y850316D01*
X604368D01*
X605384Y849300D01*
X604368Y848284D01*
X605384D01*
X606400Y847268D01*
X548600D02*
X549616Y848284D01*
X550632D01*
X549616Y849300D01*
X550632Y850316D01*
X549616D01*
X548600Y851332D01*
X547584Y850316D01*
X546568D01*
X547584Y849300D01*
X546568Y848284D01*
X547584D01*
X548600Y847268D01*
X567968Y875468D02*
X568984D01*
X570000Y876484D01*
X571016Y875468D01*
X572032D01*
Y876484D01*
X571016Y877500D01*
X572032Y878516D01*
Y879532D01*
X571016D01*
X570000Y878516D01*
X568984Y879532D01*
X567968D01*
Y878516D01*
X568984Y877500D01*
X567968Y876484D01*
Y875468D01*
X611454Y1058735D02*
X612470D01*
X613486Y1059751D01*
X614502Y1058735D01*
X615518D01*
Y1059751D01*
X614502Y1060767D01*
X615518Y1061783D01*
Y1062799D01*
X614502D01*
X613486Y1061783D01*
X612470Y1062799D01*
X611454D01*
Y1061783D01*
X612470Y1060767D01*
X611454Y1059751D01*
Y1058735D01*
X685468Y982968D02*
X686484D01*
X687500Y983984D01*
X688516Y982968D01*
X689532D01*
Y983984D01*
X688516Y985000D01*
X689532Y986016D01*
Y987032D01*
X688516D01*
X687500Y986016D01*
X686484Y987032D01*
X685468D01*
Y986016D01*
X686484Y985000D01*
X685468Y983984D01*
Y982968D01*
X610468Y990468D02*
X611484D01*
X612500Y991484D01*
X613516Y990468D01*
X614532D01*
Y991484D01*
X613516Y992500D01*
X614532Y993516D01*
Y994532D01*
X613516D01*
X612500Y993516D01*
X611484Y994532D01*
X610468D01*
Y993516D01*
X611484Y992500D01*
X610468Y991484D01*
Y990468D01*
X607968Y1000468D02*
X608984D01*
X610000Y1001484D01*
X611016Y1000468D01*
X612032D01*
Y1001484D01*
X611016Y1002500D01*
X612032Y1003516D01*
Y1004532D01*
X611016D01*
X610000Y1003516D01*
X608984Y1004532D01*
X607968D01*
Y1003516D01*
X608984Y1002500D01*
X607968Y1001484D01*
Y1000468D01*
X695468Y947968D02*
X696484D01*
X697500Y948984D01*
X698516Y947968D01*
X699532D01*
Y948984D01*
X698516Y950000D01*
X699532Y951016D01*
Y952032D01*
X698516D01*
X697500Y951016D01*
X696484Y952032D01*
X695468D01*
Y951016D01*
X696484Y950000D01*
X695468Y948984D01*
Y947968D01*
X692968Y975468D02*
X693984D01*
X695000Y976484D01*
X696016Y975468D01*
X697032D01*
Y976484D01*
X696016Y977500D01*
X697032Y978516D01*
Y979532D01*
X696016D01*
X695000Y978516D01*
X693984Y979532D01*
X692968D01*
Y978516D01*
X693984Y977500D01*
X692968Y976484D01*
Y975468D01*
X700468Y1002968D02*
X701484D01*
X702500Y1003984D01*
X703516Y1002968D01*
X704532D01*
Y1003984D01*
X703516Y1005000D01*
X704532Y1006016D01*
Y1007032D01*
X703516D01*
X702500Y1006016D01*
X701484Y1007032D01*
X700468D01*
Y1006016D01*
X701484Y1005000D01*
X700468Y1003984D01*
Y1002968D01*
X610468Y980468D02*
X611484D01*
X612500Y981484D01*
X613516Y980468D01*
X614532D01*
Y981484D01*
X613516Y982500D01*
X614532Y983516D01*
Y984532D01*
X613516D01*
X612500Y983516D01*
X611484Y984532D01*
X610468D01*
Y983516D01*
X611484Y982500D01*
X610468Y981484D01*
Y980468D01*
X637268Y1034768D02*
X638284D01*
X639300Y1035784D01*
X640316Y1034768D01*
X641332D01*
Y1035784D01*
X640316Y1036800D01*
X641332Y1037816D01*
Y1038832D01*
X640316D01*
X639300Y1037816D01*
X638284Y1038832D01*
X637268D01*
Y1037816D01*
X638284Y1036800D01*
X637268Y1035784D01*
Y1034768D01*
X647968Y1060468D02*
X648984D01*
X650000Y1061484D01*
X651016Y1060468D01*
X652032D01*
Y1061484D01*
X651016Y1062500D01*
X652032Y1063516D01*
Y1064532D01*
X651016D01*
X650000Y1063516D01*
X648984Y1064532D01*
X647968D01*
Y1063516D01*
X648984Y1062500D01*
X647968Y1061484D01*
Y1060468D01*
X609198Y838039D02*
X610214D01*
X611230Y839055D01*
X612246Y838039D01*
X613262D01*
Y839055D01*
X612246Y840071D01*
X613262Y841087D01*
Y842103D01*
X612246D01*
X611230Y841087D01*
X610214Y842103D01*
X609198D01*
Y841087D01*
X610214Y840071D01*
X609198Y839055D01*
Y838039D01*
X507968Y845468D02*
X508984D01*
X510000Y846484D01*
X511016Y845468D01*
X512032D01*
Y846484D01*
X511016Y847500D01*
X512032Y848516D01*
Y849532D01*
X511016D01*
X510000Y848516D01*
X508984Y849532D01*
X507968D01*
Y848516D01*
X508984Y847500D01*
X507968Y846484D01*
Y845468D01*
X467968Y847968D02*
X468984D01*
X470000Y848984D01*
X471016Y847968D01*
X472032D01*
Y848984D01*
X471016Y850000D01*
X472032Y851016D01*
Y852032D01*
X471016D01*
X470000Y851016D01*
X468984Y852032D01*
X467968D01*
Y851016D01*
X468984Y850000D01*
X467968Y848984D01*
Y847968D01*
X582968Y872968D02*
X583984D01*
X585000Y873984D01*
X586016Y872968D01*
X587032D01*
Y873984D01*
X586016Y875000D01*
X587032Y876016D01*
Y877032D01*
X586016D01*
X585000Y876016D01*
X583984Y877032D01*
X582968D01*
Y876016D01*
X583984Y875000D01*
X582968Y873984D01*
Y872968D01*
X527968Y990468D02*
X528984D01*
X530000Y991484D01*
X531016Y990468D01*
X532032D01*
Y991484D01*
X531016Y992500D01*
X532032Y993516D01*
Y994532D01*
X531016D01*
X530000Y993516D01*
X528984Y994532D01*
X527968D01*
Y993516D01*
X528984Y992500D01*
X527968Y991484D01*
Y990468D01*
X657968Y980468D02*
X658984D01*
X660000Y981484D01*
X661016Y980468D01*
X662032D01*
Y981484D01*
X661016Y982500D01*
X662032Y983516D01*
Y984532D01*
X661016D01*
X660000Y983516D01*
X658984Y984532D01*
X657968D01*
Y983516D01*
X658984Y982500D01*
X657968Y981484D01*
Y980468D01*
X547968Y905468D02*
X548984D01*
X550000Y906484D01*
X551016Y905468D01*
X552032D01*
Y906484D01*
X551016Y907500D01*
X552032Y908516D01*
Y909532D01*
X551016D01*
X550000Y908516D01*
X548984Y909532D01*
X547968D01*
Y908516D01*
X548984Y907500D01*
X547968Y906484D01*
Y905468D01*
Y915468D02*
X548984D01*
X550000Y916484D01*
X551016Y915468D01*
X552032D01*
Y916484D01*
X551016Y917500D01*
X552032Y918516D01*
Y919532D01*
X551016D01*
X550000Y918516D01*
X548984Y919532D01*
X547968D01*
Y918516D01*
X548984Y917500D01*
X547968Y916484D01*
Y915468D01*
X537018Y908918D02*
X538034D01*
X539050Y909934D01*
X540066Y908918D01*
X541082D01*
Y909934D01*
X540066Y910950D01*
X541082Y911966D01*
Y912982D01*
X540066D01*
X539050Y911966D01*
X538034Y912982D01*
X537018D01*
Y911966D01*
X538034Y910950D01*
X537018Y909934D01*
Y908918D01*
X545468Y892968D02*
X546484D01*
X547500Y893984D01*
X548516Y892968D01*
X549532D01*
Y893984D01*
X548516Y895000D01*
X549532Y896016D01*
Y897032D01*
X548516D01*
X547500Y896016D01*
X546484Y897032D01*
X545468D01*
Y896016D01*
X546484Y895000D01*
X545468Y893984D01*
Y892968D01*
X700468Y940468D02*
X701484D01*
X702500Y941484D01*
X703516Y940468D01*
X704532D01*
Y941484D01*
X703516Y942500D01*
X704532Y943516D01*
Y944532D01*
X703516D01*
X702500Y943516D01*
X701484Y944532D01*
X700468D01*
Y943516D01*
X701484Y942500D01*
X700468Y941484D01*
Y940468D01*
X640468Y937968D02*
X641484D01*
X642500Y938984D01*
X643516Y937968D01*
X644532D01*
Y938984D01*
X643516Y940000D01*
X644532Y941016D01*
Y942032D01*
X643516D01*
X642500Y941016D01*
X641484Y942032D01*
X640468D01*
Y941016D01*
X641484Y940000D01*
X640468Y938984D01*
Y937968D01*
X637968Y945468D02*
X638984D01*
X640000Y946484D01*
X641016Y945468D01*
X642032D01*
Y946484D01*
X641016Y947500D01*
X642032Y948516D01*
Y949532D01*
X641016D01*
X640000Y948516D01*
X638984Y949532D01*
X637968D01*
Y948516D01*
X638984Y947500D01*
X637968Y946484D01*
Y945468D01*
X650468Y937968D02*
X651484D01*
X652500Y938984D01*
X653516Y937968D01*
X654532D01*
Y938984D01*
X653516Y940000D01*
X654532Y941016D01*
Y942032D01*
X653516D01*
X652500Y941016D01*
X651484Y942032D01*
X650468D01*
Y941016D01*
X651484Y940000D01*
X650468Y938984D01*
Y937968D01*
X720468Y1000468D02*
X721484D01*
X722500Y1001484D01*
X723516Y1000468D01*
X724532D01*
Y1001484D01*
X723516Y1002500D01*
X724532Y1003516D01*
Y1004532D01*
X723516D01*
X722500Y1003516D01*
X721484Y1004532D01*
X720468D01*
Y1003516D01*
X721484Y1002500D01*
X720468Y1001484D01*
Y1000468D01*
X707968Y1055468D02*
X708984D01*
X710000Y1056484D01*
X711016Y1055468D01*
X712032D01*
Y1056484D01*
X711016Y1057500D01*
X712032Y1058516D01*
Y1059532D01*
X711016D01*
X710000Y1058516D01*
X708984Y1059532D01*
X707968D01*
Y1058516D01*
X708984Y1057500D01*
X707968Y1056484D01*
Y1055468D01*
X542968Y1035468D02*
X543984D01*
X545000Y1036484D01*
X546016Y1035468D01*
X547032D01*
Y1036484D01*
X546016Y1037500D01*
X547032Y1038516D01*
Y1039532D01*
X546016D01*
X545000Y1038516D01*
X543984Y1039532D01*
X542968D01*
Y1038516D01*
X543984Y1037500D01*
X542968Y1036484D01*
Y1035468D01*
Y1025468D02*
X543984D01*
X545000Y1026484D01*
X546016Y1025468D01*
X547032D01*
Y1026484D01*
X546016Y1027500D01*
X547032Y1028516D01*
Y1029532D01*
X546016D01*
X545000Y1028516D01*
X543984Y1029532D01*
X542968D01*
Y1028516D01*
X543984Y1027500D01*
X542968Y1026484D01*
Y1025468D01*
X540468Y1047968D02*
X541484D01*
X542500Y1048984D01*
X543516Y1047968D01*
X544532D01*
Y1048984D01*
X543516Y1050000D01*
X544532Y1051016D01*
Y1052032D01*
X543516D01*
X542500Y1051016D01*
X541484Y1052032D01*
X540468D01*
Y1051016D01*
X541484Y1050000D01*
X540468Y1048984D01*
Y1047968D01*
Y1060468D02*
X541484D01*
X542500Y1061484D01*
X543516Y1060468D01*
X544532D01*
Y1061484D01*
X543516Y1062500D01*
X544532Y1063516D01*
Y1064532D01*
X543516D01*
X542500Y1063516D01*
X541484Y1064532D01*
X540468D01*
Y1063516D01*
X541484Y1062500D01*
X540468Y1061484D01*
Y1060468D01*
X507968Y1072968D02*
X508984D01*
X510000Y1073984D01*
X511016Y1072968D01*
X512032D01*
Y1073984D01*
X511016Y1075000D01*
X512032Y1076016D01*
Y1077032D01*
X511016D01*
X510000Y1076016D01*
X508984Y1077032D01*
X507968D01*
Y1076016D01*
X508984Y1075000D01*
X507968Y1073984D01*
Y1072968D01*
Y1085468D02*
X508984D01*
X510000Y1086484D01*
X511016Y1085468D01*
X512032D01*
Y1086484D01*
X511016Y1087500D01*
X512032Y1088516D01*
Y1089532D01*
X511016D01*
X510000Y1088516D01*
X508984Y1089532D01*
X507968D01*
Y1088516D01*
X508984Y1087500D01*
X507968Y1086484D01*
Y1085468D01*
X502968Y947968D02*
X503984D01*
X505000Y948984D01*
X506016Y947968D01*
X507032D01*
Y948984D01*
X506016Y950000D01*
X507032Y951016D01*
Y952032D01*
X506016D01*
X505000Y951016D01*
X503984Y952032D01*
X502968D01*
Y951016D01*
X503984Y950000D01*
X502968Y948984D01*
Y947968D01*
X507968Y935468D02*
X508984D01*
X510000Y936484D01*
X511016Y935468D01*
X512032D01*
Y936484D01*
X511016Y937500D01*
X512032Y938516D01*
Y939532D01*
X511016D01*
X510000Y938516D01*
X508984Y939532D01*
X507968D01*
Y938516D01*
X508984Y937500D01*
X507968Y936484D01*
Y935468D01*
D58*
X622782Y812500D02*
G03*
X622782Y812500I-2032J0D01*
G01*
X536282D02*
G03*
X536282Y812500I-2032J0D01*
G01*
M02*
