G04*
G04 #@! TF.GenerationSoftware,Altium Limited,Altium Designer,22.9.1 (49)*
G04*
G04 Layer_Physical_Order=2*
G04 Layer_Color=16711680*
%FSLAX44Y44*%
%MOMM*%
G71*
G04*
G04 #@! TF.SameCoordinates,C6527EDA-D87B-4D04-AF07-29C5A3CB862A*
G04*
G04*
G04 #@! TF.FilePolarity,Positive*
G04*
G01*
G75*
%ADD10C,0.2540*%
%ADD44C,0.4000*%
%ADD45C,0.6000*%
%ADD48C,1.6510*%
%ADD49R,1.6510X1.6510*%
%ADD50R,1.5080X1.5080*%
%ADD51C,1.5080*%
%ADD52C,5.0000*%
%ADD53O,0.9000X1.7000*%
%ADD54O,0.9000X2.0000*%
%ADD55C,0.6000*%
%ADD56C,0.5000*%
G36*
X718761Y1197020D02*
X723948Y1195774D01*
X728876Y1193733D01*
X733425Y1190946D01*
X737481Y1187481D01*
X740946Y1183425D01*
X743733Y1178876D01*
X745774Y1173948D01*
X747020Y1168761D01*
X747425Y1163613D01*
X747391Y1163443D01*
Y836557D01*
X747425Y836387D01*
X747020Y831239D01*
X745774Y826052D01*
X743733Y821124D01*
X740946Y816575D01*
X737481Y812519D01*
X733425Y809054D01*
X728876Y806267D01*
X723948Y804226D01*
X718761Y802980D01*
X713613Y802575D01*
X713443Y802609D01*
X626611D01*
X626078Y803879D01*
X626899Y804950D01*
X627609Y806662D01*
X627851Y808500D01*
Y816500D01*
X627609Y818338D01*
X626899Y820050D01*
X625771Y821521D01*
X624300Y822649D01*
X622588Y823359D01*
X620750Y823601D01*
X618912Y823359D01*
X617200Y822649D01*
X615729Y821521D01*
X614601Y820050D01*
X613891Y818338D01*
X613649Y816500D01*
Y808500D01*
X613891Y806662D01*
X614601Y804950D01*
X615422Y803879D01*
X614889Y802609D01*
X540111D01*
X539578Y803879D01*
X540399Y804950D01*
X541109Y806662D01*
X541351Y808500D01*
Y816500D01*
X541109Y818338D01*
X540399Y820050D01*
X539271Y821521D01*
X537800Y822649D01*
X536088Y823359D01*
X534250Y823601D01*
X532412Y823359D01*
X530700Y822649D01*
X529229Y821521D01*
X528101Y820050D01*
X527391Y818338D01*
X527149Y816500D01*
Y808500D01*
X527391Y806662D01*
X528101Y804950D01*
X528922Y803879D01*
X528389Y802609D01*
X386557D01*
X386387Y802575D01*
X381239Y802980D01*
X376052Y804226D01*
X371124Y806267D01*
X367973Y808198D01*
X358198Y817973D01*
X356267Y821124D01*
X354226Y826052D01*
X352980Y831239D01*
X352575Y836387D01*
X352609Y836557D01*
Y1163443D01*
X352575Y1163613D01*
X352980Y1168761D01*
X354226Y1173948D01*
X356267Y1178876D01*
X359054Y1183425D01*
X362519Y1187481D01*
X366575Y1190946D01*
X371124Y1193733D01*
X376052Y1195774D01*
X381239Y1197020D01*
X386387Y1197425D01*
X386557Y1197391D01*
X713443D01*
X713613Y1197425D01*
X718761Y1197020D01*
D02*
G37*
%LPC*%
G36*
X388724Y1190983D02*
X384389D01*
X380108Y1190305D01*
X375985Y1188965D01*
X372123Y1186997D01*
X368616Y1184449D01*
X365551Y1181384D01*
X363003Y1177877D01*
X361035Y1174015D01*
X359695Y1169892D01*
X359017Y1165611D01*
Y1161276D01*
X359695Y1156994D01*
X361035Y1152871D01*
X363003Y1149009D01*
X365551Y1145502D01*
X368616Y1142437D01*
X372123Y1139889D01*
X375985Y1137921D01*
X380108Y1136581D01*
X384389Y1135903D01*
X388724D01*
X393006Y1136581D01*
X397129Y1137921D01*
X400991Y1139889D01*
X404498Y1142437D01*
X407563Y1145502D01*
X410111Y1149009D01*
X412079Y1152871D01*
X413419Y1156994D01*
X414097Y1161276D01*
Y1165611D01*
X413419Y1169892D01*
X412079Y1174015D01*
X410111Y1177877D01*
X407563Y1181384D01*
X404498Y1184449D01*
X400991Y1186997D01*
X397129Y1188965D01*
X393006Y1190305D01*
X388724Y1190983D01*
D02*
G37*
G36*
X715611Y1190983D02*
X711276D01*
X706994Y1190305D01*
X702871Y1188965D01*
X699009Y1186997D01*
X695502Y1184449D01*
X692437Y1181384D01*
X689889Y1177877D01*
X687921Y1174015D01*
X686581Y1169892D01*
X685903Y1165611D01*
Y1161276D01*
X686581Y1156994D01*
X687921Y1152871D01*
X689889Y1149009D01*
X692437Y1145502D01*
X695502Y1142437D01*
X699009Y1139889D01*
X702871Y1137921D01*
X706994Y1136581D01*
X711276Y1135903D01*
X715611D01*
X719892Y1136581D01*
X724015Y1137921D01*
X727877Y1139889D01*
X731384Y1142437D01*
X734449Y1145502D01*
X736997Y1149009D01*
X738965Y1152871D01*
X740305Y1156994D01*
X740983Y1161276D01*
Y1165611D01*
X740305Y1169892D01*
X738965Y1174015D01*
X736997Y1177877D01*
X734449Y1181384D01*
X731384Y1184449D01*
X727877Y1186997D01*
X724015Y1188965D01*
X719892Y1190305D01*
X715611Y1190983D01*
D02*
G37*
G36*
X426327Y1115080D02*
X426270D01*
Y1106270D01*
X435080D01*
Y1106327D01*
X434393Y1108891D01*
X433066Y1111189D01*
X431189Y1113066D01*
X428891Y1114393D01*
X426327Y1115080D01*
D02*
G37*
G36*
X423730D02*
X423673D01*
X421109Y1114393D01*
X418811Y1113066D01*
X416934Y1111189D01*
X415607Y1108891D01*
X414920Y1106327D01*
Y1106270D01*
X423730D01*
Y1115080D01*
D02*
G37*
G36*
X435080Y1103730D02*
X426270D01*
Y1094920D01*
X426327D01*
X428891Y1095607D01*
X431189Y1096934D01*
X433066Y1098811D01*
X434393Y1101109D01*
X435080Y1103673D01*
Y1103730D01*
D02*
G37*
G36*
X423730D02*
X414920D01*
Y1103673D01*
X415607Y1101109D01*
X416934Y1098811D01*
X418811Y1096934D01*
X421109Y1095607D01*
X423673Y1094920D01*
X423730D01*
Y1103730D01*
D02*
G37*
G36*
X401327Y1115080D02*
X398673D01*
X396109Y1114393D01*
X393811Y1113066D01*
X391934Y1111189D01*
X390607Y1108891D01*
X389920Y1106327D01*
Y1103673D01*
X390607Y1101109D01*
X391934Y1098811D01*
X393811Y1096934D01*
X395371Y1096033D01*
Y1095000D01*
X395371Y1095000D01*
X395723Y1093229D01*
X396727Y1091727D01*
X404227Y1084227D01*
X404227Y1084227D01*
X405728Y1083223D01*
X407500Y1082871D01*
X508005D01*
X508997Y1082460D01*
X511003D01*
X512855Y1083227D01*
X514273Y1084645D01*
X515040Y1086497D01*
Y1088503D01*
X514273Y1090355D01*
X512855Y1091773D01*
X511003Y1092540D01*
X508997D01*
X508005Y1092129D01*
X409417D01*
X405927Y1095619D01*
X406093Y1096878D01*
X406189Y1096934D01*
X408066Y1098811D01*
X409393Y1101109D01*
X410080Y1103673D01*
Y1106327D01*
X409393Y1108891D01*
X408066Y1111189D01*
X406189Y1113066D01*
X403891Y1114393D01*
X401327Y1115080D01*
D02*
G37*
G36*
X385080D02*
X364920D01*
Y1094920D01*
X378534D01*
X401727Y1071727D01*
X401727Y1071727D01*
X403229Y1070723D01*
X405000Y1070371D01*
X508005D01*
X508997Y1069960D01*
X511003D01*
X512855Y1070727D01*
X514273Y1072145D01*
X515040Y1073997D01*
Y1076003D01*
X514273Y1077855D01*
X512855Y1079273D01*
X511003Y1080040D01*
X508997D01*
X508005Y1079629D01*
X406917D01*
X385080Y1101466D01*
Y1115080D01*
D02*
G37*
G36*
X614756Y1065696D02*
Y1062037D01*
X618415D01*
X617759Y1063622D01*
X616341Y1065040D01*
X614756Y1065696D01*
D02*
G37*
G36*
X705000Y1068149D02*
X705000Y1068148D01*
X650000D01*
X647838Y1067719D01*
X646006Y1066494D01*
X644781Y1064662D01*
X644352Y1062500D01*
X644781Y1060338D01*
X646006Y1058506D01*
X647280Y1057655D01*
X646895Y1056385D01*
X618027D01*
X617501Y1057655D01*
X617759Y1057912D01*
X618415Y1059497D01*
X613486D01*
Y1060767D01*
X612216D01*
Y1065696D01*
X610631Y1065040D01*
X609213Y1063622D01*
X608965Y1063022D01*
X607719Y1062775D01*
X605247Y1065247D01*
X603987Y1066089D01*
X602500Y1066385D01*
X545743D01*
X545355Y1066773D01*
X543503Y1067540D01*
X541497D01*
X539645Y1066773D01*
X538227Y1065355D01*
X537460Y1063503D01*
Y1061497D01*
X538227Y1059645D01*
X539645Y1058227D01*
X541497Y1057460D01*
X543503D01*
X545355Y1058227D01*
X545743Y1058615D01*
X568127D01*
X568653Y1057345D01*
X567525Y1056217D01*
X544832D01*
X543346Y1055921D01*
X542086Y1055079D01*
X542046Y1055040D01*
X541497D01*
X539645Y1054273D01*
X538227Y1052855D01*
X537460Y1051003D01*
Y1048997D01*
X538227Y1047145D01*
X539645Y1045727D01*
X541497Y1044960D01*
X543503D01*
X545355Y1045727D01*
X546773Y1047145D01*
X547312Y1048448D01*
X569134D01*
X570435Y1048707D01*
X571578Y1048232D01*
X571705Y1048164D01*
Y1033005D01*
X593295D01*
Y1051980D01*
X599398D01*
X609125Y1042253D01*
X610386Y1041411D01*
X611872Y1041115D01*
X634692D01*
X635218Y1039845D01*
X635027Y1039655D01*
X634371Y1038070D01*
X639300D01*
Y1035530D01*
X634371D01*
X634526Y1035155D01*
X633678Y1033885D01*
X600000D01*
X598513Y1033589D01*
X597253Y1032747D01*
X593391Y1028885D01*
X559109D01*
X550040Y1037954D01*
Y1038503D01*
X549273Y1040355D01*
X547855Y1041773D01*
X546003Y1042540D01*
X543997D01*
X542145Y1041773D01*
X540727Y1040355D01*
X539960Y1038503D01*
Y1036497D01*
X540727Y1034645D01*
X542145Y1033227D01*
X542368Y1033135D01*
Y1031865D01*
X542145Y1031773D01*
X540727Y1030355D01*
X539960Y1028503D01*
Y1026497D01*
X540727Y1024645D01*
X542145Y1023227D01*
X543997Y1022460D01*
X544546D01*
X550184Y1016822D01*
X549698Y1015648D01*
X547500D01*
X547500Y1015649D01*
X545338Y1015219D01*
X543506Y1013994D01*
X543506Y1013994D01*
X526006Y996494D01*
X524781Y994662D01*
X524352Y992500D01*
X524781Y990338D01*
X526006Y988506D01*
X527838Y987281D01*
X530000Y986852D01*
X532162Y987281D01*
X533994Y988506D01*
X533994Y988506D01*
X549840Y1004352D01*
X574789D01*
X575315Y1003082D01*
X573862Y1001628D01*
X572441Y999167D01*
X571705Y996421D01*
Y993579D01*
X572441Y990833D01*
X573862Y988372D01*
X575872Y986362D01*
X578333Y984941D01*
X581079Y984205D01*
X583921D01*
X586667Y984941D01*
X589128Y986362D01*
X591138Y988372D01*
X592559Y990833D01*
X593295Y993579D01*
Y996421D01*
X592559Y999167D01*
X591138Y1001628D01*
X589685Y1003082D01*
X590211Y1004352D01*
X604393D01*
X604781Y1003770D01*
X615219D01*
X615607Y1004352D01*
X630160D01*
X656006Y978506D01*
X657838Y977281D01*
X660000Y976851D01*
X662162Y977281D01*
X663994Y978506D01*
X665219Y980338D01*
X665649Y982500D01*
X665219Y984662D01*
X663994Y986494D01*
X636494Y1013994D01*
X634662Y1015219D01*
X632500Y1015649D01*
X632500Y1015648D01*
X602023D01*
X601537Y1016822D01*
X605831Y1021115D01*
X648391D01*
X671115Y998391D01*
Y955000D01*
X671411Y953513D01*
X672253Y952253D01*
X684753Y939753D01*
X686013Y938911D01*
X687500Y938615D01*
X699257D01*
X699645Y938227D01*
X701497Y937460D01*
X703503D01*
X705355Y938227D01*
X706773Y939645D01*
X707540Y941497D01*
Y943503D01*
X706773Y945355D01*
X705355Y946773D01*
X703503Y947540D01*
X703079D01*
X702374Y948596D01*
X702540Y948997D01*
Y951003D01*
X701773Y952855D01*
X700355Y954273D01*
X698503Y955040D01*
X696497D01*
X694645Y954273D01*
X694257Y953885D01*
X694109D01*
X683885Y964109D01*
Y979828D01*
X685155Y980516D01*
X686497Y979960D01*
X688503D01*
X689331Y980303D01*
X690303Y979331D01*
X689960Y978503D01*
Y976497D01*
X690727Y974645D01*
X692145Y973227D01*
X693997Y972460D01*
X696003D01*
X697855Y973227D01*
X699273Y974645D01*
X700040Y976497D01*
Y978503D01*
X699273Y980355D01*
X698885Y980743D01*
Y999406D01*
X700005Y1000004D01*
X700338Y999781D01*
X701379Y999574D01*
X701727Y999227D01*
X703229Y998223D01*
X705000Y997871D01*
X705000Y997871D01*
X720505D01*
X721497Y997460D01*
X723503D01*
X725355Y998227D01*
X726773Y999645D01*
X727540Y1001497D01*
Y1003503D01*
X726773Y1005355D01*
X725355Y1006773D01*
X723503Y1007540D01*
X721497D01*
X720505Y1007129D01*
X708148D01*
Y1010160D01*
X713994Y1016006D01*
X713994Y1016006D01*
X715219Y1017838D01*
X715648Y1020000D01*
Y1057500D01*
X715219Y1059662D01*
X713994Y1061494D01*
X713994Y1061494D01*
X712744Y1062744D01*
X712744Y1062744D01*
X708994Y1066494D01*
X707162Y1067719D01*
X705000Y1068149D01*
D02*
G37*
G36*
X426327Y1050080D02*
X426270D01*
Y1041270D01*
X435080D01*
Y1041327D01*
X434393Y1043891D01*
X433066Y1046189D01*
X431189Y1048066D01*
X428891Y1049393D01*
X426327Y1050080D01*
D02*
G37*
G36*
X423730D02*
X423673D01*
X421109Y1049393D01*
X418811Y1048066D01*
X416934Y1046189D01*
X415607Y1043891D01*
X414920Y1041327D01*
Y1041270D01*
X423730D01*
Y1050080D01*
D02*
G37*
G36*
X435080Y1038730D02*
X426270D01*
Y1029920D01*
X426327D01*
X428891Y1030607D01*
X431189Y1031934D01*
X433066Y1033811D01*
X434393Y1036109D01*
X435080Y1038673D01*
Y1038730D01*
D02*
G37*
G36*
X423730D02*
X414920D01*
Y1038673D01*
X415607Y1036109D01*
X416934Y1033811D01*
X418811Y1031934D01*
X421109Y1030607D01*
X423673Y1029920D01*
X423730D01*
Y1038730D01*
D02*
G37*
G36*
X401327Y1050080D02*
X398673D01*
X396109Y1049393D01*
X393811Y1048066D01*
X391934Y1046189D01*
X390607Y1043891D01*
X389920Y1041327D01*
Y1038673D01*
X390607Y1036109D01*
X391934Y1033811D01*
X393811Y1031934D01*
X396109Y1030607D01*
X398673Y1029920D01*
X401327D01*
X403891Y1030607D01*
X406189Y1031934D01*
X408066Y1033811D01*
X409393Y1036109D01*
X410080Y1038673D01*
Y1041327D01*
X409393Y1043891D01*
X408066Y1046189D01*
X406189Y1048066D01*
X403891Y1049393D01*
X401327Y1050080D01*
D02*
G37*
G36*
X385080D02*
X364920D01*
Y1029920D01*
X385080D01*
Y1050080D01*
D02*
G37*
G36*
X614929Y1001230D02*
X605071D01*
X605727Y999645D01*
X607145Y998227D01*
X608671Y997595D01*
X609041Y996603D01*
X609062Y996190D01*
X608227Y995355D01*
X607571Y993770D01*
X617429D01*
X616773Y995355D01*
X615355Y996773D01*
X613829Y997405D01*
X613459Y998397D01*
X613438Y998810D01*
X614273Y999645D01*
X614929Y1001230D01*
D02*
G37*
G36*
X617429Y991230D02*
X607571D01*
X608227Y989645D01*
X609395Y988477D01*
X609462Y987262D01*
X609405Y986962D01*
X608797Y986385D01*
X607500D01*
X606013Y986089D01*
X604753Y985247D01*
X550891Y931385D01*
X545000D01*
X543513Y931089D01*
X542253Y930247D01*
X536303Y924297D01*
X535461Y923037D01*
X535165Y921550D01*
Y914193D01*
X534777Y913805D01*
X534010Y911953D01*
Y909948D01*
X534777Y908095D01*
X536195Y906677D01*
X538047Y905910D01*
X540052D01*
X541905Y906677D01*
X543323Y908095D01*
X544090Y909948D01*
Y911953D01*
X543323Y913805D01*
X542935Y914193D01*
Y919941D01*
X546609Y923615D01*
X548275D01*
X548528Y922345D01*
X547145Y921773D01*
X545727Y920355D01*
X544960Y918503D01*
Y916497D01*
X545727Y914645D01*
X547145Y913227D01*
X547368Y913135D01*
Y911865D01*
X547145Y911773D01*
X545727Y910355D01*
X544960Y908503D01*
Y906497D01*
X545727Y904645D01*
X547145Y903227D01*
X548059Y902849D01*
X548357Y901351D01*
X547046Y900040D01*
X546497D01*
X544645Y899273D01*
X543227Y897855D01*
X542460Y896003D01*
Y893997D01*
X543227Y892145D01*
X544645Y890727D01*
X546497Y889960D01*
X548503D01*
X550355Y890727D01*
X551773Y892145D01*
X552540Y893997D01*
Y894546D01*
X586609Y928615D01*
X645000D01*
X646487Y928911D01*
X647747Y929753D01*
X652954Y934960D01*
X653503D01*
X655355Y935727D01*
X656773Y937145D01*
X657540Y938997D01*
Y941003D01*
X656773Y942855D01*
X655355Y944273D01*
X653503Y945040D01*
X651497D01*
X649645Y944273D01*
X648227Y942855D01*
X648135Y942632D01*
X646865D01*
X646773Y942855D01*
X645355Y944273D01*
X644299Y944710D01*
X645040Y946497D01*
Y948503D01*
X644273Y950355D01*
X642855Y951773D01*
X641003Y952540D01*
X638997D01*
X637145Y951773D01*
X636757Y951385D01*
X583538D01*
X583052Y952558D01*
X609109Y978615D01*
X609257D01*
X609645Y978227D01*
X611497Y977460D01*
X613503D01*
X615355Y978227D01*
X616773Y979645D01*
X617540Y981497D01*
Y983503D01*
X616773Y985355D01*
X615355Y986773D01*
X615132Y986865D01*
Y988135D01*
X615355Y988227D01*
X616773Y989645D01*
X617429Y991230D01*
D02*
G37*
G36*
X426327Y980080D02*
X426270D01*
Y971270D01*
X435080D01*
Y971327D01*
X434393Y973891D01*
X433066Y976189D01*
X431189Y978066D01*
X428891Y979393D01*
X426327Y980080D01*
D02*
G37*
G36*
X423730D02*
X423673D01*
X421109Y979393D01*
X418811Y978066D01*
X416934Y976189D01*
X415607Y973891D01*
X414920Y971327D01*
Y971270D01*
X423730D01*
Y980080D01*
D02*
G37*
G36*
X435080Y968730D02*
X426270D01*
Y959920D01*
X426327D01*
X428891Y960607D01*
X431189Y961934D01*
X433066Y963811D01*
X434393Y966109D01*
X435080Y968673D01*
Y968730D01*
D02*
G37*
G36*
X423730D02*
X414920D01*
Y968673D01*
X415607Y966109D01*
X416934Y963811D01*
X418811Y961934D01*
X421109Y960607D01*
X423673Y959920D01*
X423730D01*
Y968730D01*
D02*
G37*
G36*
X401327Y980080D02*
X398673D01*
X396109Y979393D01*
X393811Y978066D01*
X391934Y976189D01*
X390607Y973891D01*
X389920Y971327D01*
Y968673D01*
X390607Y966109D01*
X391934Y963811D01*
X393811Y961934D01*
X396109Y960607D01*
X398673Y959920D01*
X401327D01*
X403067Y960386D01*
X416727Y946727D01*
X416727Y946727D01*
X418229Y945723D01*
X420000Y945371D01*
X420000Y945371D01*
X503005D01*
X503997Y944960D01*
X506003D01*
X507855Y945727D01*
X509273Y947145D01*
X510040Y948997D01*
Y951003D01*
X509273Y952855D01*
X507855Y954273D01*
X506003Y955040D01*
X503997D01*
X503005Y954629D01*
X421917D01*
X409614Y966933D01*
X410080Y968673D01*
Y971327D01*
X409393Y973891D01*
X408066Y976189D01*
X406189Y978066D01*
X403891Y979393D01*
X401327Y980080D01*
D02*
G37*
G36*
X385080D02*
X364920D01*
Y959920D01*
X379586D01*
X404753Y934753D01*
X406013Y933911D01*
X407500Y933615D01*
X506757D01*
X507145Y933227D01*
X508997Y932460D01*
X511003D01*
X512855Y933227D01*
X514273Y934645D01*
X515040Y936497D01*
Y938503D01*
X514273Y940355D01*
X512855Y941773D01*
X511003Y942540D01*
X508997D01*
X507145Y941773D01*
X506757Y941385D01*
X409109D01*
X385080Y965414D01*
Y980080D01*
D02*
G37*
G36*
X426327Y915080D02*
X426270D01*
Y906270D01*
X435080D01*
Y906327D01*
X434393Y908891D01*
X433066Y911189D01*
X431189Y913066D01*
X428891Y914393D01*
X426327Y915080D01*
D02*
G37*
G36*
X423730D02*
X423673D01*
X421109Y914393D01*
X418811Y913066D01*
X416934Y911189D01*
X415607Y908891D01*
X414920Y906327D01*
Y906270D01*
X423730D01*
Y915080D01*
D02*
G37*
G36*
X435080Y903730D02*
X426270D01*
Y894920D01*
X426327D01*
X428891Y895607D01*
X431189Y896934D01*
X433066Y898811D01*
X434393Y901109D01*
X435080Y903673D01*
Y903730D01*
D02*
G37*
G36*
X423730D02*
X414920D01*
Y903673D01*
X415607Y901109D01*
X416934Y898811D01*
X418811Y896934D01*
X421109Y895607D01*
X423673Y894920D01*
X423730D01*
Y903730D01*
D02*
G37*
G36*
X401327Y915080D02*
X398673D01*
X396109Y914393D01*
X393811Y913066D01*
X391934Y911189D01*
X390607Y908891D01*
X389920Y906327D01*
Y903673D01*
X390607Y901109D01*
X391934Y898811D01*
X393811Y896934D01*
X396109Y895607D01*
X398673Y894920D01*
X401327D01*
X403891Y895607D01*
X406189Y896934D01*
X408066Y898811D01*
X409393Y901109D01*
X410080Y903673D01*
Y906327D01*
X409393Y908891D01*
X408066Y911189D01*
X406189Y913066D01*
X403891Y914393D01*
X401327Y915080D01*
D02*
G37*
G36*
X385080D02*
X364920D01*
Y894920D01*
X385080D01*
Y915080D01*
D02*
G37*
G36*
X620750Y866801D02*
X618912Y866559D01*
X617200Y865849D01*
X615729Y864721D01*
X614601Y863250D01*
X613891Y861538D01*
X613649Y859700D01*
Y848700D01*
X613891Y846862D01*
X614423Y845578D01*
X613509Y844582D01*
X612233Y845111D01*
X611842D01*
X611520Y845565D01*
X611187Y846381D01*
X611940Y848198D01*
Y850402D01*
X611097Y852438D01*
X609538Y853997D01*
X607502Y854840D01*
X605298D01*
X603262Y853997D01*
X601703Y852438D01*
X600860Y850402D01*
Y848198D01*
X601703Y846162D01*
X603262Y844603D01*
X605298Y843760D01*
X606033D01*
X606216Y843595D01*
X606777Y842490D01*
X606301Y841341D01*
X616159D01*
X615912Y841938D01*
X616955Y842738D01*
X617200Y842551D01*
X618912Y841841D01*
X620750Y841599D01*
X622588Y841841D01*
X624300Y842551D01*
X625771Y843679D01*
X626899Y845150D01*
X627609Y846862D01*
X627851Y848700D01*
Y859700D01*
X627609Y861538D01*
X626899Y863250D01*
X625771Y864721D01*
X624300Y865849D01*
X622588Y866559D01*
X620750Y866801D01*
D02*
G37*
G36*
X549702Y854840D02*
X547498D01*
X545462Y853997D01*
X543903Y852438D01*
X543060Y850402D01*
Y848198D01*
X543903Y846162D01*
X545462Y844603D01*
X547498Y843760D01*
X549702D01*
X551738Y844603D01*
X553297Y846162D01*
X554140Y848198D01*
Y850402D01*
X553297Y852438D01*
X551738Y853997D01*
X549702Y854840D01*
D02*
G37*
G36*
X571003Y882540D02*
X568997D01*
X567145Y881773D01*
X565727Y880355D01*
X565118Y878885D01*
X490000D01*
X488513Y878589D01*
X487253Y877747D01*
X467253Y857747D01*
X466411Y856487D01*
X466115Y855000D01*
Y853243D01*
X465727Y852855D01*
X464960Y851003D01*
Y848997D01*
X465727Y847145D01*
X467145Y845727D01*
X468997Y844960D01*
X471003D01*
X472855Y845727D01*
X474273Y847145D01*
X475040Y848997D01*
Y851003D01*
X474273Y852855D01*
X473885Y853243D01*
Y853391D01*
X491609Y871115D01*
X518826D01*
X519352Y869845D01*
X507253Y857747D01*
X506411Y856487D01*
X506115Y855000D01*
Y850743D01*
X505727Y850355D01*
X504960Y848503D01*
Y846497D01*
X505727Y844645D01*
X507145Y843227D01*
X508997Y842460D01*
X511003D01*
X512855Y843227D01*
X514273Y844645D01*
X515040Y846497D01*
Y848503D01*
X514273Y850355D01*
X513885Y850743D01*
Y853391D01*
X524109Y863615D01*
X526877D01*
X527726Y862345D01*
X527391Y861538D01*
X527149Y859700D01*
Y848700D01*
X527391Y846862D01*
X528101Y845150D01*
X529229Y843679D01*
X530700Y842551D01*
X532412Y841841D01*
X534250Y841599D01*
X536088Y841841D01*
X537800Y842551D01*
X539271Y843679D01*
X540399Y845150D01*
X541109Y846862D01*
X541351Y848700D01*
Y859700D01*
X541109Y861538D01*
X540774Y862345D01*
X541623Y863615D01*
X577500D01*
X578987Y863911D01*
X580247Y864753D01*
X585454Y869960D01*
X586003D01*
X587855Y870727D01*
X589273Y872145D01*
X590040Y873997D01*
Y876003D01*
X589273Y877855D01*
X587855Y879273D01*
X586003Y880040D01*
X583997D01*
X582145Y879273D01*
X580727Y877855D01*
X579960Y876003D01*
Y875454D01*
X575891Y871385D01*
X571725D01*
X571472Y872655D01*
X572855Y873227D01*
X574273Y874645D01*
X575040Y876497D01*
Y878503D01*
X574273Y880355D01*
X572855Y881773D01*
X571003Y882540D01*
D02*
G37*
G36*
X616159Y838801D02*
X612500D01*
Y835142D01*
X614085Y835798D01*
X615503Y837216D01*
X616159Y838801D01*
D02*
G37*
G36*
X609960D02*
X606301D01*
X606957Y837216D01*
X608375Y835798D01*
X609960Y835142D01*
Y838801D01*
D02*
G37*
G36*
X715611Y864097D02*
X711276D01*
X706994Y863419D01*
X702871Y862079D01*
X699009Y860111D01*
X695502Y857563D01*
X692437Y854498D01*
X689889Y850991D01*
X687921Y847129D01*
X686581Y843006D01*
X685903Y838724D01*
Y834389D01*
X686581Y830108D01*
X687921Y825985D01*
X689889Y822123D01*
X692437Y818616D01*
X695502Y815551D01*
X699009Y813003D01*
X702871Y811035D01*
X706994Y809695D01*
X711276Y809017D01*
X715611D01*
X719892Y809695D01*
X724015Y811035D01*
X727877Y813003D01*
X731384Y815551D01*
X734449Y818616D01*
X736997Y822123D01*
X738965Y825985D01*
X740305Y830108D01*
X740983Y834389D01*
Y838724D01*
X740305Y843006D01*
X738965Y847129D01*
X736997Y850991D01*
X734449Y854498D01*
X731384Y857563D01*
X727877Y860111D01*
X724015Y862079D01*
X719892Y863419D01*
X715611Y864097D01*
D02*
G37*
G36*
X388724Y864097D02*
X384389D01*
X380108Y863419D01*
X375985Y862079D01*
X372123Y860111D01*
X368616Y857563D01*
X365551Y854498D01*
X363003Y850991D01*
X361035Y847129D01*
X359695Y843006D01*
X359017Y838724D01*
Y834389D01*
X359695Y830108D01*
X361035Y825985D01*
X363003Y822123D01*
X365551Y818616D01*
X368616Y815551D01*
X372123Y813003D01*
X375985Y811035D01*
X380108Y809695D01*
X384389Y809017D01*
X388724D01*
X393006Y809695D01*
X397129Y811035D01*
X400991Y813003D01*
X404498Y815551D01*
X407563Y818616D01*
X410111Y822123D01*
X412079Y825985D01*
X413419Y830108D01*
X414097Y834389D01*
Y838724D01*
X413419Y843006D01*
X412079Y847129D01*
X410111Y850991D01*
X407563Y854498D01*
X404498Y857563D01*
X400991Y860111D01*
X397129Y862079D01*
X393006Y863419D01*
X388724Y864097D01*
D02*
G37*
%LPD*%
G36*
X704352Y1055160D02*
Y1022340D01*
X700058Y1018046D01*
X698885Y1018532D01*
Y1020000D01*
X698589Y1021487D01*
X697747Y1022747D01*
X665247Y1055247D01*
X664746Y1055582D01*
X665131Y1056852D01*
X702660D01*
X704352Y1055160D01*
D02*
G37*
D10*
X490000Y875000D02*
X567500D01*
X470000Y855000D02*
X490000Y875000D01*
X567500D02*
X570000Y877500D01*
X600000Y1030000D02*
X657500D01*
X595000Y1025000D02*
X600000Y1030000D01*
X557500Y1025000D02*
X595000D01*
X662500Y1052500D02*
X695000Y1020000D01*
X602500Y1062500D02*
X612500Y1052500D01*
X662500D01*
X687500Y985000D02*
Y1012500D01*
X655000Y1045000D02*
X687500Y1012500D01*
X657500Y1030000D02*
X680000Y1007500D01*
Y962500D02*
X692500Y950000D01*
X680000Y962500D02*
Y1007500D01*
X675000Y955000D02*
X687500Y942500D01*
X650000Y1025000D02*
X675000Y1000000D01*
Y955000D02*
Y1000000D01*
X596722Y1017500D02*
X604222Y1025000D01*
X555000Y1017500D02*
X596722D01*
X545000Y1027500D02*
X555000Y1017500D01*
X539050Y910950D02*
Y915632D01*
Y921550D02*
X545000Y927500D01*
X539050Y915632D02*
Y921550D01*
X577500Y867500D02*
X585000Y875000D01*
X522500Y867500D02*
X577500D01*
X510000Y855000D02*
X522500Y867500D01*
X565000Y1062500D02*
X602500D01*
X601007Y1055865D02*
X611872Y1045000D01*
X572667Y1055865D02*
X601007D01*
X611872Y1045000D02*
X655000D01*
X604222Y1025000D02*
X650000D01*
X545000Y1037500D02*
X557500Y1025000D01*
X692500Y950000D02*
X697500D01*
X695000Y977500D02*
Y1020000D01*
X607500Y982500D02*
X612500D01*
X542500Y1050000D02*
X544832Y1052333D01*
X569134D01*
X542500Y1062500D02*
X565000D01*
X510000Y847500D02*
Y855000D01*
X470000Y850000D02*
Y855000D01*
X550000Y907500D02*
X582500Y940000D01*
X550000Y917500D02*
X580000Y947500D01*
X545000Y927500D02*
X550000D01*
X547500Y895000D02*
X585000Y932500D01*
X645000D01*
X569134Y1052333D02*
X572667Y1055865D01*
X552500Y927500D02*
X607500Y982500D01*
X687500Y942500D02*
X702500D01*
X550000Y927500D02*
X552500D01*
X580000Y947500D02*
X640000D01*
X582500Y940000D02*
X642500D01*
X645000Y932500D02*
X652500Y940000D01*
X407500Y937500D02*
X510000D01*
X375000Y970000D02*
X407500Y937500D01*
D44*
X702500Y1005000D02*
X705000Y1002500D01*
X722500D01*
X420000Y950000D02*
X505000D01*
X400000Y970000D02*
X420000Y950000D01*
X405000Y1075000D02*
X510000D01*
X375000Y1105000D02*
X405000Y1075000D01*
X407500Y1087500D02*
X510000D01*
X400000Y1095000D02*
X407500Y1087500D01*
X400000Y1095000D02*
Y1105000D01*
D45*
X705000Y1062500D02*
X708750Y1058750D01*
X650000Y1062500D02*
X705000D01*
X547500Y1010000D02*
X632500D01*
X702500Y1005000D02*
Y1012500D01*
X530000Y992500D02*
X547500Y1010000D01*
X530000Y992500D02*
Y992500D01*
X632500Y1010000D02*
X660000Y982500D01*
X708750Y1058750D02*
X710000Y1057500D01*
X702500Y1012500D02*
X710000Y1020000D01*
Y1057500D01*
D48*
X582500Y995000D02*
D03*
D49*
Y1043800D02*
D03*
D50*
X375000Y905000D02*
D03*
Y970000D02*
D03*
Y1040000D02*
D03*
X375000Y1105000D02*
D03*
D51*
X400000Y905000D02*
D03*
X425000D02*
D03*
X400000Y970000D02*
D03*
X425000D02*
D03*
X400000Y1040000D02*
D03*
X425000D02*
D03*
X400000Y1105000D02*
D03*
X425000D02*
D03*
D52*
X713443Y836557D02*
D03*
X713443Y1163443D02*
D03*
X386557Y1163443D02*
D03*
X386557Y836557D02*
D03*
D53*
X620750Y812500D02*
D03*
X534250D02*
D03*
D54*
X620750Y854200D02*
D03*
X534250D02*
D03*
D55*
X606400Y849300D02*
D03*
X548600D02*
D03*
D56*
X570000Y877500D02*
D03*
X613486Y1060767D02*
D03*
X687500Y985000D02*
D03*
X612500Y992500D02*
D03*
X610000Y1002500D02*
D03*
X697500Y950000D02*
D03*
X695000Y977500D02*
D03*
X702500Y1005000D02*
D03*
X612500Y982500D02*
D03*
X639300Y1036800D02*
D03*
X650000Y1062500D02*
D03*
X611230Y840071D02*
D03*
X510000Y847500D02*
D03*
X470000Y850000D02*
D03*
X585000Y875000D02*
D03*
X530000Y992500D02*
D03*
X660000Y982500D02*
D03*
X550000Y907500D02*
D03*
Y917500D02*
D03*
X539050Y910950D02*
D03*
X547500Y895000D02*
D03*
X702500Y942500D02*
D03*
X642500Y940000D02*
D03*
X640000Y947500D02*
D03*
X652500Y940000D02*
D03*
X722500Y1002500D02*
D03*
X710000Y1057500D02*
D03*
X545000Y1037500D02*
D03*
Y1027500D02*
D03*
X542500Y1050000D02*
D03*
Y1062500D02*
D03*
X510000Y1075000D02*
D03*
Y1087500D02*
D03*
X505000Y950000D02*
D03*
X510000Y937500D02*
D03*
M02*
