G04*
G04 #@! TF.GenerationSoftware,Altium Limited,Altium Designer,22.9.1 (49)*
G04*
G04 Layer_Color=32896*
%FSLAX44Y44*%
%MOMM*%
G71*
G04*
G04 #@! TF.SameCoordinates,255A3326-CA3E-4E7A-B617-BBCC988FCEB9*
G04*
G04*
G04 #@! TF.FilePolarity,Positive*
G04*
G01*
G75*
G36*
X-95943Y330943D02*
X-283769D01*
Y359385D01*
X-95943D01*
Y330943D01*
D02*
G37*
%LPC*%
G36*
X-141692Y351639D02*
X-142050D01*
X-142162Y351620D01*
X-142275Y351602D01*
X-142407Y351583D01*
X-142745Y351508D01*
X-143102Y351395D01*
X-143478Y351207D01*
X-143666Y351094D01*
X-143854Y350963D01*
X-144023Y350812D01*
X-144192Y350624D01*
X-144211Y350606D01*
X-144230Y350587D01*
X-144268Y350530D01*
X-144324Y350455D01*
X-144380Y350361D01*
X-144455Y350248D01*
X-144625Y349967D01*
X-144775Y349628D01*
X-144907Y349252D01*
X-145001Y348839D01*
X-145038Y348613D01*
Y348388D01*
Y348350D01*
Y348256D01*
X-145019Y348087D01*
X-144982Y347899D01*
X-144944Y347654D01*
X-144869Y347410D01*
X-144775Y347147D01*
X-144643Y346884D01*
X-144625Y346846D01*
X-144568Y346771D01*
X-144493Y346658D01*
X-144361Y346489D01*
X-144211Y346320D01*
X-144004Y346113D01*
X-143779Y345906D01*
X-143516Y345719D01*
X-143534D01*
X-143553Y345700D01*
X-143666Y345662D01*
X-143816Y345606D01*
X-144023Y345512D01*
X-144249Y345361D01*
X-144474Y345192D01*
X-144700Y344967D01*
X-144925Y344685D01*
X-144944Y344647D01*
X-145019Y344534D01*
X-145113Y344365D01*
X-145207Y344140D01*
X-145320Y343858D01*
X-145395Y343519D01*
X-145471Y343125D01*
X-145489Y342692D01*
Y342523D01*
X-145471Y342411D01*
X-145452Y342260D01*
X-145433Y342091D01*
X-145395Y341903D01*
X-145358Y341677D01*
X-145226Y341226D01*
X-145038Y340756D01*
X-144925Y340512D01*
X-144794Y340268D01*
X-144625Y340042D01*
X-144437Y339817D01*
X-144418Y339798D01*
X-144399Y339760D01*
X-144324Y339704D01*
X-144249Y339647D01*
X-144155Y339553D01*
X-144042Y339459D01*
X-143741Y339253D01*
X-143384Y339046D01*
X-142971Y338858D01*
X-142726Y338802D01*
X-142482Y338745D01*
X-142238Y338708D01*
X-141974Y338689D01*
X-141843D01*
X-141749Y338708D01*
X-141636Y338726D01*
X-141486Y338745D01*
X-141166Y338802D01*
X-140809Y338914D01*
X-140414Y339102D01*
X-140208Y339196D01*
X-140020Y339328D01*
X-139832Y339478D01*
X-139644Y339647D01*
X-139625Y339666D01*
X-139606Y339685D01*
X-139550Y339741D01*
X-139493Y339817D01*
X-139418Y339929D01*
X-139343Y340042D01*
X-139249Y340174D01*
X-139155Y340343D01*
X-139061Y340512D01*
X-138967Y340719D01*
X-138873Y340926D01*
X-138779Y341170D01*
X-138647Y341677D01*
X-138553Y342279D01*
X-140490Y342561D01*
Y342542D01*
Y342523D01*
X-140508Y342411D01*
X-140527Y342260D01*
X-140583Y342053D01*
X-140640Y341828D01*
X-140734Y341602D01*
X-140847Y341377D01*
X-140978Y341189D01*
X-140997Y341170D01*
X-141053Y341114D01*
X-141147Y341038D01*
X-141260Y340963D01*
X-141392Y340869D01*
X-141561Y340794D01*
X-141749Y340738D01*
X-141956Y340719D01*
X-142068D01*
X-142181Y340756D01*
X-142313Y340794D01*
X-142482Y340850D01*
X-142670Y340944D01*
X-142839Y341076D01*
X-143008Y341264D01*
X-143027Y341283D01*
X-143083Y341377D01*
X-143140Y341489D01*
X-143234Y341677D01*
X-143309Y341884D01*
X-143365Y342166D01*
X-143422Y342467D01*
X-143441Y342824D01*
Y342843D01*
Y342862D01*
Y342974D01*
X-143422Y343144D01*
X-143384Y343350D01*
X-143347Y343576D01*
X-143271Y343820D01*
X-143159Y344064D01*
X-143027Y344271D01*
X-143008Y344290D01*
X-142952Y344365D01*
X-142858Y344440D01*
X-142745Y344553D01*
X-142595Y344647D01*
X-142425Y344741D01*
X-142238Y344798D01*
X-142031Y344816D01*
X-141880D01*
X-141786Y344798D01*
X-141655Y344779D01*
X-141486Y344741D01*
X-141317Y344685D01*
X-141129Y344628D01*
X-141335Y346621D01*
X-141467D01*
X-141617Y346640D01*
X-141786Y346658D01*
X-141993Y346715D01*
X-142200Y346771D01*
X-142388Y346884D01*
X-142576Y347015D01*
X-142595Y347034D01*
X-142651Y347091D01*
X-142726Y347203D01*
X-142801Y347335D01*
X-142877Y347504D01*
X-142952Y347711D01*
X-143008Y347955D01*
X-143027Y348237D01*
Y348275D01*
Y348350D01*
X-143008Y348463D01*
X-142989Y348613D01*
X-142952Y348764D01*
X-142877Y348933D01*
X-142801Y349102D01*
X-142689Y349252D01*
X-142670Y349271D01*
X-142632Y349309D01*
X-142557Y349365D01*
X-142463Y349440D01*
X-142350Y349515D01*
X-142200Y349572D01*
X-142031Y349609D01*
X-141843Y349628D01*
X-141768D01*
X-141655Y349609D01*
X-141542Y349572D01*
X-141411Y349515D01*
X-141260Y349440D01*
X-141110Y349346D01*
X-140959Y349196D01*
X-140941Y349177D01*
X-140903Y349121D01*
X-140847Y349008D01*
X-140772Y348876D01*
X-140696Y348707D01*
X-140621Y348482D01*
X-140565Y348237D01*
X-140527Y347937D01*
X-138685Y348312D01*
Y348331D01*
X-138704Y348388D01*
X-138723Y348482D01*
X-138742Y348594D01*
X-138779Y348745D01*
X-138817Y348895D01*
X-138930Y349271D01*
X-139080Y349684D01*
X-139268Y350098D01*
X-139512Y350493D01*
X-139644Y350681D01*
X-139794Y350831D01*
X-139813Y350850D01*
X-139832Y350869D01*
X-139944Y350963D01*
X-140132Y351094D01*
X-140377Y351245D01*
X-140677Y351376D01*
X-141053Y351508D01*
X-141467Y351602D01*
X-141692Y351639D01*
D02*
G37*
G36*
X-254957Y351639D02*
X-255314D01*
X-255427Y351620D01*
X-255540Y351602D01*
X-255671Y351583D01*
X-256010Y351508D01*
X-256367Y351395D01*
X-256743Y351207D01*
X-256931Y351094D01*
X-257119Y350963D01*
X-257288Y350812D01*
X-257457Y350624D01*
X-257476Y350606D01*
X-257495Y350587D01*
X-257532Y350530D01*
X-257589Y350455D01*
X-257645Y350361D01*
X-257720Y350248D01*
X-257889Y349966D01*
X-258040Y349628D01*
X-258171Y349252D01*
X-258265Y348839D01*
X-258303Y348613D01*
Y348388D01*
Y348350D01*
Y348256D01*
X-258284Y348087D01*
X-258246Y347899D01*
X-258209Y347654D01*
X-258134Y347410D01*
X-258040Y347147D01*
X-257908Y346884D01*
X-257889Y346846D01*
X-257833Y346771D01*
X-257758Y346658D01*
X-257626Y346489D01*
X-257476Y346320D01*
X-257269Y346113D01*
X-257043Y345906D01*
X-256780Y345718D01*
X-256799D01*
X-256818Y345700D01*
X-256931Y345662D01*
X-257081Y345606D01*
X-257288Y345512D01*
X-257513Y345361D01*
X-257739Y345192D01*
X-257964Y344967D01*
X-258190Y344685D01*
X-258209Y344647D01*
X-258284Y344534D01*
X-258378Y344365D01*
X-258472Y344140D01*
X-258585Y343858D01*
X-258660Y343519D01*
X-258735Y343125D01*
X-258754Y342692D01*
Y342523D01*
X-258735Y342410D01*
X-258716Y342260D01*
X-258698Y342091D01*
X-258660Y341903D01*
X-258622Y341677D01*
X-258491Y341226D01*
X-258303Y340756D01*
X-258190Y340512D01*
X-258058Y340268D01*
X-257889Y340042D01*
X-257701Y339817D01*
X-257683Y339798D01*
X-257664Y339760D01*
X-257589Y339704D01*
X-257513Y339647D01*
X-257419Y339553D01*
X-257307Y339459D01*
X-257006Y339253D01*
X-256649Y339046D01*
X-256235Y338858D01*
X-255991Y338802D01*
X-255747Y338745D01*
X-255502Y338708D01*
X-255239Y338689D01*
X-255107D01*
X-255014Y338708D01*
X-254901Y338726D01*
X-254750Y338745D01*
X-254431Y338802D01*
X-254074Y338914D01*
X-253679Y339102D01*
X-253472Y339196D01*
X-253284Y339328D01*
X-253096Y339478D01*
X-252908Y339647D01*
X-252890Y339666D01*
X-252871Y339685D01*
X-252814Y339741D01*
X-252758Y339817D01*
X-252683Y339929D01*
X-252608Y340042D01*
X-252514Y340174D01*
X-252420Y340343D01*
X-252326Y340512D01*
X-252232Y340719D01*
X-252138Y340926D01*
X-252044Y341170D01*
X-251912Y341677D01*
X-251818Y342279D01*
X-253754Y342561D01*
Y342542D01*
Y342523D01*
X-253773Y342410D01*
X-253792Y342260D01*
X-253848Y342053D01*
X-253905Y341828D01*
X-253999Y341602D01*
X-254111Y341377D01*
X-254243Y341189D01*
X-254262Y341170D01*
X-254318Y341114D01*
X-254412Y341038D01*
X-254525Y340963D01*
X-254656Y340869D01*
X-254826Y340794D01*
X-255014Y340738D01*
X-255220Y340719D01*
X-255333D01*
X-255446Y340756D01*
X-255577Y340794D01*
X-255747Y340850D01*
X-255935Y340944D01*
X-256104Y341076D01*
X-256273Y341264D01*
X-256292Y341283D01*
X-256348Y341377D01*
X-256404Y341489D01*
X-256498Y341677D01*
X-256574Y341884D01*
X-256630Y342166D01*
X-256686Y342467D01*
X-256705Y342824D01*
Y342843D01*
Y342862D01*
Y342974D01*
X-256686Y343144D01*
X-256649Y343350D01*
X-256611Y343576D01*
X-256536Y343820D01*
X-256423Y344064D01*
X-256292Y344271D01*
X-256273Y344290D01*
X-256217Y344365D01*
X-256122Y344440D01*
X-256010Y344553D01*
X-255859Y344647D01*
X-255690Y344741D01*
X-255502Y344798D01*
X-255296Y344816D01*
X-255145D01*
X-255051Y344798D01*
X-254920Y344779D01*
X-254750Y344741D01*
X-254581Y344685D01*
X-254393Y344628D01*
X-254600Y346621D01*
X-254732D01*
X-254882Y346640D01*
X-255051Y346658D01*
X-255258Y346715D01*
X-255465Y346771D01*
X-255653Y346884D01*
X-255841Y347015D01*
X-255859Y347034D01*
X-255916Y347091D01*
X-255991Y347203D01*
X-256066Y347335D01*
X-256141Y347504D01*
X-256217Y347711D01*
X-256273Y347955D01*
X-256292Y348237D01*
Y348275D01*
Y348350D01*
X-256273Y348463D01*
X-256254Y348613D01*
X-256217Y348764D01*
X-256141Y348933D01*
X-256066Y349102D01*
X-255953Y349252D01*
X-255935Y349271D01*
X-255897Y349309D01*
X-255822Y349365D01*
X-255728Y349440D01*
X-255615Y349515D01*
X-255465Y349572D01*
X-255296Y349609D01*
X-255107Y349628D01*
X-255032D01*
X-254920Y349609D01*
X-254807Y349572D01*
X-254675Y349515D01*
X-254525Y349440D01*
X-254375Y349346D01*
X-254224Y349196D01*
X-254205Y349177D01*
X-254168Y349121D01*
X-254111Y349008D01*
X-254036Y348876D01*
X-253961Y348707D01*
X-253886Y348481D01*
X-253829Y348237D01*
X-253792Y347937D01*
X-251950Y348312D01*
Y348331D01*
X-251969Y348388D01*
X-251987Y348481D01*
X-252006Y348594D01*
X-252044Y348745D01*
X-252081Y348895D01*
X-252194Y349271D01*
X-252344Y349684D01*
X-252533Y350098D01*
X-252777Y350493D01*
X-252908Y350681D01*
X-253059Y350831D01*
X-253078Y350850D01*
X-253096Y350869D01*
X-253209Y350963D01*
X-253397Y351094D01*
X-253641Y351245D01*
X-253942Y351376D01*
X-254318Y351508D01*
X-254732Y351602D01*
X-254957Y351639D01*
D02*
G37*
G36*
X-130265Y351639D02*
D01*
Y338952D01*
X-130283Y339027D01*
Y339121D01*
X-130302Y339234D01*
X-130340Y339366D01*
X-130396Y339685D01*
X-130471Y340042D01*
X-130603Y340456D01*
X-130753Y340888D01*
X-130941Y341320D01*
Y341339D01*
X-130979Y341377D01*
X-130998Y341433D01*
X-131054Y341527D01*
X-131129Y341640D01*
X-131204Y341790D01*
X-131317Y341941D01*
X-131449Y342128D01*
X-131580Y342335D01*
X-131749Y342561D01*
X-131919Y342805D01*
X-132125Y343087D01*
X-132351Y343369D01*
X-132614Y343670D01*
X-132877Y344008D01*
X-133178Y344347D01*
X-133197Y344365D01*
X-133234Y344422D01*
X-133309Y344497D01*
X-133385Y344591D01*
X-133497Y344704D01*
X-133610Y344854D01*
X-133873Y345173D01*
X-134155Y345512D01*
X-134418Y345831D01*
X-134644Y346132D01*
X-134738Y346264D01*
X-134813Y346376D01*
X-134832Y346414D01*
X-134888Y346508D01*
X-134964Y346658D01*
X-135039Y346865D01*
X-135114Y347091D01*
X-135189Y347354D01*
X-135245Y347636D01*
X-135264Y347918D01*
Y347937D01*
Y347955D01*
Y348049D01*
X-135245Y348200D01*
X-135227Y348388D01*
X-135170Y348594D01*
X-135114Y348801D01*
X-135020Y349008D01*
X-134888Y349177D01*
X-134869Y349196D01*
X-134813Y349252D01*
X-134738Y349309D01*
X-134625Y349403D01*
X-134494Y349478D01*
X-134324Y349534D01*
X-134118Y349590D01*
X-133911Y349609D01*
X-133855D01*
X-133779Y349590D01*
X-133704Y349572D01*
X-133479Y349497D01*
X-133366Y349440D01*
X-133234Y349365D01*
X-133103Y349252D01*
X-132971Y349121D01*
X-132858Y348970D01*
X-132746Y348764D01*
X-132652Y348538D01*
X-132576Y348275D01*
X-132520Y347974D01*
X-132482Y347617D01*
X-130490Y347880D01*
Y347899D01*
X-130509Y347974D01*
Y348068D01*
X-130528Y348200D01*
X-130565Y348350D01*
X-130584Y348538D01*
X-130640Y348745D01*
X-130697Y348970D01*
X-130828Y349421D01*
X-131016Y349891D01*
X-131261Y350342D01*
X-131392Y350530D01*
X-131561Y350718D01*
X-131580Y350737D01*
X-131599Y350756D01*
X-131655Y350812D01*
X-131731Y350869D01*
X-131825Y350925D01*
X-131919Y351019D01*
X-132200Y351188D01*
X-132539Y351357D01*
X-132952Y351489D01*
X-133422Y351602D01*
X-133685Y351620D01*
X-133948Y351639D01*
X-134099D01*
X-134212Y351620D01*
X-134362Y351602D01*
X-134512Y351583D01*
X-134888Y351508D01*
X-135283Y351376D01*
X-135490Y351301D01*
X-135697Y351188D01*
X-135903Y351057D01*
X-136091Y350925D01*
X-136260Y350756D01*
X-136430Y350568D01*
X-136448Y350549D01*
X-136467Y350512D01*
X-136505Y350455D01*
X-136561Y350380D01*
X-136618Y350286D01*
X-136693Y350154D01*
X-136862Y349854D01*
X-137012Y349497D01*
X-137144Y349083D01*
X-137238Y348632D01*
X-137275Y348388D01*
Y347993D01*
X-137257Y347842D01*
Y347636D01*
X-137219Y347410D01*
X-137181Y347147D01*
X-137125Y346884D01*
X-137050Y346602D01*
Y346564D01*
X-137012Y346470D01*
X-136956Y346339D01*
X-136899Y346151D01*
X-136805Y345925D01*
X-136693Y345681D01*
X-136542Y345418D01*
X-136392Y345136D01*
X-136373Y345098D01*
X-136317Y345004D01*
X-136204Y344835D01*
X-136054Y344628D01*
X-135847Y344347D01*
X-135584Y344027D01*
X-135283Y343651D01*
X-134926Y343237D01*
X-134907Y343219D01*
X-134888Y343200D01*
X-134832Y343144D01*
X-134775Y343068D01*
X-134606Y342880D01*
X-134418Y342655D01*
X-134212Y342411D01*
X-134005Y342185D01*
X-133836Y341978D01*
X-133704Y341809D01*
X-133685Y341790D01*
X-133667Y341753D01*
X-133610Y341677D01*
X-133554Y341602D01*
X-133422Y341395D01*
X-133291Y341151D01*
X-137275D01*
Y338896D01*
X-130265D01*
Y351639D01*
D02*
G37*
G36*
X-146467D02*
D01*
Y338952D01*
X-146486Y339027D01*
Y339121D01*
X-146504Y339234D01*
X-146542Y339366D01*
X-146598Y339685D01*
X-146673Y340042D01*
X-146805Y340456D01*
X-146955Y340888D01*
X-147143Y341320D01*
Y341339D01*
X-147181Y341377D01*
X-147200Y341433D01*
X-147256Y341527D01*
X-147331Y341640D01*
X-147407Y341790D01*
X-147519Y341941D01*
X-147651Y342128D01*
X-147782Y342335D01*
X-147951Y342561D01*
X-148121Y342805D01*
X-148328Y343087D01*
X-148553Y343369D01*
X-148816Y343670D01*
X-149079Y344008D01*
X-149380Y344347D01*
X-149399Y344365D01*
X-149436Y344422D01*
X-149512Y344497D01*
X-149587Y344591D01*
X-149700Y344704D01*
X-149812Y344854D01*
X-150076Y345173D01*
X-150357Y345512D01*
X-150621Y345831D01*
X-150846Y346132D01*
X-150940Y346264D01*
X-151015Y346376D01*
X-151034Y346414D01*
X-151090Y346508D01*
X-151166Y346658D01*
X-151241Y346865D01*
X-151316Y347091D01*
X-151391Y347354D01*
X-151448Y347636D01*
X-151466Y347918D01*
Y347937D01*
Y347955D01*
Y348049D01*
X-151448Y348200D01*
X-151429Y348388D01*
X-151372Y348594D01*
X-151316Y348801D01*
X-151222Y349008D01*
X-151090Y349177D01*
X-151072Y349196D01*
X-151015Y349252D01*
X-150940Y349309D01*
X-150827Y349403D01*
X-150696Y349478D01*
X-150527Y349534D01*
X-150320Y349590D01*
X-150113Y349609D01*
X-150057D01*
X-149981Y349590D01*
X-149906Y349572D01*
X-149681Y349497D01*
X-149568Y349440D01*
X-149436Y349365D01*
X-149305Y349252D01*
X-149173Y349121D01*
X-149060Y348970D01*
X-148948Y348764D01*
X-148854Y348538D01*
X-148779Y348275D01*
X-148722Y347974D01*
X-148685Y347617D01*
X-146692Y347880D01*
Y347899D01*
X-146711Y347974D01*
Y348068D01*
X-146730Y348200D01*
X-146767Y348350D01*
X-146786Y348538D01*
X-146843Y348745D01*
X-146899Y348970D01*
X-147030Y349421D01*
X-147219Y349891D01*
X-147463Y350342D01*
X-147594Y350530D01*
X-147764Y350718D01*
X-147782Y350737D01*
X-147801Y350756D01*
X-147858Y350812D01*
X-147933Y350869D01*
X-148027Y350925D01*
X-148121Y351019D01*
X-148403Y351188D01*
X-148741Y351357D01*
X-149155Y351489D01*
X-149624Y351602D01*
X-149888Y351620D01*
X-150151Y351639D01*
X-150301D01*
X-150414Y351620D01*
X-150564Y351602D01*
X-150715Y351583D01*
X-151090Y351508D01*
X-151485Y351376D01*
X-151692Y351301D01*
X-151899Y351188D01*
X-152106Y351057D01*
X-152293Y350925D01*
X-152463Y350756D01*
X-152632Y350568D01*
X-152650Y350549D01*
X-152669Y350512D01*
X-152707Y350455D01*
X-152763Y350380D01*
X-152820Y350286D01*
X-152895Y350154D01*
X-153064Y349854D01*
X-153214Y349497D01*
X-153346Y349083D01*
X-153440Y348632D01*
X-153478Y348388D01*
Y347993D01*
X-153459Y347842D01*
Y347636D01*
X-153421Y347410D01*
X-153384Y347147D01*
X-153327Y346884D01*
X-153252Y346602D01*
Y346564D01*
X-153214Y346470D01*
X-153158Y346339D01*
X-153102Y346151D01*
X-153008Y345925D01*
X-152895Y345681D01*
X-152745Y345418D01*
X-152594Y345136D01*
X-152575Y345098D01*
X-152519Y345004D01*
X-152406Y344835D01*
X-152256Y344628D01*
X-152049Y344347D01*
X-151786Y344027D01*
X-151485Y343651D01*
X-151128Y343237D01*
X-151109Y343219D01*
X-151090Y343200D01*
X-151034Y343144D01*
X-150978Y343068D01*
X-150808Y342880D01*
X-150621Y342655D01*
X-150414Y342411D01*
X-150207Y342185D01*
X-150038Y341978D01*
X-149906Y341809D01*
X-149888Y341790D01*
X-149869Y341753D01*
X-149812Y341677D01*
X-149756Y341602D01*
X-149624Y341395D01*
X-149493Y341151D01*
X-153478D01*
Y338896D01*
X-146467D01*
Y351639D01*
D02*
G37*
G36*
X-243529Y351639D02*
D01*
Y338952D01*
X-243548Y339027D01*
Y339121D01*
X-243567Y339234D01*
X-243604Y339366D01*
X-243661Y339685D01*
X-243736Y340042D01*
X-243867Y340456D01*
X-244018Y340888D01*
X-244206Y341320D01*
Y341339D01*
X-244244Y341377D01*
X-244262Y341433D01*
X-244319Y341527D01*
X-244394Y341640D01*
X-244469Y341790D01*
X-244582Y341940D01*
X-244713Y342128D01*
X-244845Y342335D01*
X-245014Y342561D01*
X-245183Y342805D01*
X-245390Y343087D01*
X-245616Y343369D01*
X-245879Y343670D01*
X-246142Y344008D01*
X-246443Y344346D01*
X-246461Y344365D01*
X-246499Y344422D01*
X-246574Y344497D01*
X-246649Y344591D01*
X-246762Y344704D01*
X-246875Y344854D01*
X-247138Y345173D01*
X-247420Y345512D01*
X-247683Y345831D01*
X-247909Y346132D01*
X-248003Y346264D01*
X-248078Y346376D01*
X-248097Y346414D01*
X-248153Y346508D01*
X-248228Y346658D01*
X-248303Y346865D01*
X-248379Y347091D01*
X-248454Y347354D01*
X-248510Y347636D01*
X-248529Y347918D01*
Y347937D01*
Y347955D01*
Y348049D01*
X-248510Y348200D01*
X-248491Y348388D01*
X-248435Y348594D01*
X-248379Y348801D01*
X-248285Y349008D01*
X-248153Y349177D01*
X-248134Y349196D01*
X-248078Y349252D01*
X-248003Y349309D01*
X-247890Y349403D01*
X-247758Y349478D01*
X-247589Y349534D01*
X-247382Y349590D01*
X-247176Y349609D01*
X-247119D01*
X-247044Y349590D01*
X-246969Y349572D01*
X-246743Y349496D01*
X-246630Y349440D01*
X-246499Y349365D01*
X-246367Y349252D01*
X-246236Y349121D01*
X-246123Y348970D01*
X-246010Y348764D01*
X-245916Y348538D01*
X-245841Y348275D01*
X-245785Y347974D01*
X-245747Y347617D01*
X-243755Y347880D01*
Y347899D01*
X-243774Y347974D01*
Y348068D01*
X-243792Y348200D01*
X-243830Y348350D01*
X-243849Y348538D01*
X-243905Y348745D01*
X-243962Y348970D01*
X-244093Y349421D01*
X-244281Y349891D01*
X-244525Y350342D01*
X-244657Y350530D01*
X-244826Y350718D01*
X-244845Y350737D01*
X-244864Y350756D01*
X-244920Y350812D01*
X-244995Y350869D01*
X-245089Y350925D01*
X-245183Y351019D01*
X-245465Y351188D01*
X-245804Y351357D01*
X-246217Y351489D01*
X-246687Y351602D01*
X-246950Y351620D01*
X-247213Y351639D01*
X-247364D01*
X-247476Y351620D01*
X-247627Y351602D01*
X-247777Y351583D01*
X-248153Y351508D01*
X-248548Y351376D01*
X-248755Y351301D01*
X-248961Y351188D01*
X-249168Y351057D01*
X-249356Y350925D01*
X-249525Y350756D01*
X-249694Y350568D01*
X-249713Y350549D01*
X-249732Y350512D01*
X-249769Y350455D01*
X-249826Y350380D01*
X-249882Y350286D01*
X-249957Y350154D01*
X-250127Y349854D01*
X-250277Y349496D01*
X-250408Y349083D01*
X-250502Y348632D01*
X-250540Y348388D01*
Y347993D01*
X-250521Y347842D01*
Y347636D01*
X-250484Y347410D01*
X-250446Y347147D01*
X-250390Y346884D01*
X-250315Y346602D01*
Y346564D01*
X-250277Y346470D01*
X-250221Y346339D01*
X-250164Y346151D01*
X-250070Y345925D01*
X-249957Y345681D01*
X-249807Y345418D01*
X-249657Y345136D01*
X-249638Y345098D01*
X-249582Y345004D01*
X-249469Y344835D01*
X-249318Y344628D01*
X-249112Y344346D01*
X-248848Y344027D01*
X-248548Y343651D01*
X-248191Y343237D01*
X-248172Y343219D01*
X-248153Y343200D01*
X-248097Y343144D01*
X-248040Y343068D01*
X-247871Y342880D01*
X-247683Y342655D01*
X-247476Y342410D01*
X-247270Y342185D01*
X-247100Y341978D01*
X-246969Y341809D01*
X-246950Y341790D01*
X-246931Y341753D01*
X-246875Y341677D01*
X-246819Y341602D01*
X-246687Y341395D01*
X-246555Y341151D01*
X-250540D01*
Y338896D01*
X-243529D01*
Y351639D01*
D02*
G37*
G36*
X-259731D02*
D01*
Y338952D01*
X-259750Y339027D01*
Y339121D01*
X-259769Y339234D01*
X-259806Y339366D01*
X-259863Y339685D01*
X-259938Y340042D01*
X-260070Y340456D01*
X-260220Y340888D01*
X-260408Y341320D01*
Y341339D01*
X-260446Y341377D01*
X-260464Y341433D01*
X-260521Y341527D01*
X-260596Y341640D01*
X-260671Y341790D01*
X-260784Y341940D01*
X-260916Y342128D01*
X-261047Y342335D01*
X-261216Y342561D01*
X-261385Y342805D01*
X-261592Y343087D01*
X-261818Y343369D01*
X-262081Y343670D01*
X-262344Y344008D01*
X-262645Y344346D01*
X-262663Y344365D01*
X-262701Y344422D01*
X-262776Y344497D01*
X-262852Y344591D01*
X-262964Y344704D01*
X-263077Y344854D01*
X-263340Y345173D01*
X-263622Y345512D01*
X-263885Y345831D01*
X-264111Y346132D01*
X-264205Y346264D01*
X-264280Y346376D01*
X-264299Y346414D01*
X-264355Y346508D01*
X-264430Y346658D01*
X-264506Y346865D01*
X-264581Y347091D01*
X-264656Y347354D01*
X-264712Y347636D01*
X-264731Y347918D01*
Y347937D01*
Y347955D01*
Y348049D01*
X-264712Y348200D01*
X-264694Y348388D01*
X-264637Y348594D01*
X-264581Y348801D01*
X-264487Y349008D01*
X-264355Y349177D01*
X-264336Y349196D01*
X-264280Y349252D01*
X-264205Y349309D01*
X-264092Y349403D01*
X-263960Y349478D01*
X-263791Y349534D01*
X-263584Y349590D01*
X-263378Y349609D01*
X-263321D01*
X-263246Y349590D01*
X-263171Y349572D01*
X-262945Y349496D01*
X-262833Y349440D01*
X-262701Y349365D01*
X-262570Y349252D01*
X-262438Y349121D01*
X-262325Y348970D01*
X-262212Y348764D01*
X-262118Y348538D01*
X-262043Y348275D01*
X-261987Y347974D01*
X-261949Y347617D01*
X-259957Y347880D01*
Y347899D01*
X-259976Y347974D01*
Y348068D01*
X-259995Y348200D01*
X-260032Y348350D01*
X-260051Y348538D01*
X-260107Y348745D01*
X-260164Y348970D01*
X-260295Y349421D01*
X-260483Y349891D01*
X-260728Y350342D01*
X-260859Y350530D01*
X-261028Y350718D01*
X-261047Y350737D01*
X-261066Y350756D01*
X-261122Y350812D01*
X-261197Y350869D01*
X-261291Y350925D01*
X-261385Y351019D01*
X-261667Y351188D01*
X-262006Y351357D01*
X-262419Y351489D01*
X-262889Y351602D01*
X-263152Y351620D01*
X-263415Y351639D01*
X-263566D01*
X-263678Y351620D01*
X-263829Y351602D01*
X-263979Y351583D01*
X-264355Y351508D01*
X-264750Y351376D01*
X-264957Y351301D01*
X-265163Y351188D01*
X-265370Y351057D01*
X-265558Y350925D01*
X-265727Y350756D01*
X-265896Y350568D01*
X-265915Y350549D01*
X-265934Y350512D01*
X-265972Y350455D01*
X-266028Y350380D01*
X-266084Y350286D01*
X-266160Y350154D01*
X-266329Y349854D01*
X-266479Y349496D01*
X-266611Y349083D01*
X-266705Y348632D01*
X-266742Y348388D01*
Y347993D01*
X-266723Y347842D01*
Y347636D01*
X-266686Y347410D01*
X-266648Y347147D01*
X-266592Y346884D01*
X-266517Y346602D01*
Y346564D01*
X-266479Y346470D01*
X-266423Y346339D01*
X-266366Y346151D01*
X-266272Y345925D01*
X-266160Y345681D01*
X-266009Y345418D01*
X-265859Y345136D01*
X-265840Y345098D01*
X-265784Y345004D01*
X-265671Y344835D01*
X-265520Y344628D01*
X-265314Y344346D01*
X-265051Y344027D01*
X-264750Y343651D01*
X-264393Y343237D01*
X-264374Y343219D01*
X-264355Y343200D01*
X-264299Y343144D01*
X-264242Y343068D01*
X-264073Y342880D01*
X-263885Y342655D01*
X-263678Y342410D01*
X-263472Y342185D01*
X-263303Y341978D01*
X-263171Y341809D01*
X-263152Y341790D01*
X-263133Y341753D01*
X-263077Y341677D01*
X-263021Y341602D01*
X-262889Y341395D01*
X-262757Y341151D01*
X-266742D01*
Y338896D01*
X-259731D01*
Y351639D01*
D02*
G37*
G36*
X-122070Y351639D02*
D01*
Y343576D01*
X-126580Y351639D01*
X-128272D01*
Y343595D01*
X-129569D01*
Y341452D01*
X-128272D01*
Y338896D01*
X-129569D01*
X-122070D01*
Y351639D01*
D02*
G37*
G36*
X-159285Y351602D02*
X-162425D01*
X-164323Y342899D01*
X-166203Y351602D01*
X-169379Y351602D01*
Y338896D01*
X-159285Y338896D01*
Y351602D01*
D02*
G37*
G36*
X-207798Y351602D02*
X-210937D01*
X-212835Y342899D01*
X-214715Y351602D01*
X-217892D01*
Y338896D01*
X-207798D01*
Y351602D01*
D02*
G37*
G36*
X-171428D02*
X-173533D01*
Y344722D01*
Y344704D01*
Y344647D01*
Y344572D01*
Y344459D01*
Y344346D01*
Y344196D01*
X-173552Y343858D01*
Y343519D01*
X-173570Y343162D01*
X-173589Y342862D01*
Y342749D01*
X-173608Y342636D01*
Y342598D01*
X-173646Y342504D01*
X-173683Y342354D01*
X-173740Y342166D01*
X-173834Y341940D01*
X-173946Y341734D01*
X-174078Y341527D01*
X-174266Y341339D01*
X-174285Y341320D01*
X-174360Y341264D01*
X-174473Y341189D01*
X-174642Y341114D01*
X-174830Y341038D01*
X-175074Y340963D01*
X-175356Y340907D01*
X-175657Y340888D01*
X-175788D01*
X-175920Y340907D01*
X-176089Y340926D01*
X-176277Y340963D01*
X-176465Y341020D01*
X-176653Y341095D01*
X-176841Y341208D01*
X-176860Y341226D01*
X-176916Y341264D01*
X-176991Y341339D01*
X-177085Y341433D01*
X-177198Y341565D01*
X-177292Y341715D01*
X-177386Y341884D01*
X-177461Y342091D01*
Y342128D01*
X-177499Y342204D01*
Y342279D01*
X-177518Y342373D01*
X-177536Y342486D01*
X-177555Y342617D01*
X-177574Y342768D01*
X-177593Y342956D01*
X-177612Y343162D01*
Y343388D01*
X-177630Y343632D01*
X-177649Y343914D01*
Y344234D01*
Y344572D01*
Y351602D01*
X-179754D01*
Y344309D01*
X-179736Y344064D01*
Y343801D01*
X-179717Y343501D01*
X-179679Y342899D01*
X-179642Y342298D01*
X-179604Y341997D01*
X-179566Y341715D01*
X-179529Y341452D01*
X-179472Y341226D01*
Y341208D01*
X-179454Y341170D01*
X-179435Y341114D01*
X-179416Y341038D01*
X-179341Y340832D01*
X-179209Y340568D01*
X-179040Y340286D01*
X-178833Y339967D01*
X-178570Y339666D01*
X-178232Y339384D01*
X-178213D01*
X-178194Y339347D01*
X-178138Y339328D01*
X-178063Y339272D01*
X-177969Y339215D01*
X-177856Y339159D01*
X-177706Y339102D01*
X-177555Y339046D01*
X-177198Y338914D01*
X-176766Y338802D01*
X-176277Y338726D01*
X-175713Y338689D01*
X-179754D01*
D01*
X-171428D01*
Y351602D01*
D02*
G37*
G36*
X-251818Y351639D02*
D01*
Y339272D01*
Y351639D01*
D02*
G37*
G36*
X-105097Y351602D02*
X-112239D01*
Y349459D01*
X-107202D01*
Y346433D01*
X-111562D01*
Y344290D01*
X-107202D01*
Y338896D01*
X-105097D01*
Y351602D01*
D02*
G37*
G36*
X-113235D02*
X-121524D01*
Y349459D01*
X-118442D01*
Y338896D01*
X-116337D01*
Y349459D01*
X-113235D01*
Y338896D01*
D01*
Y351602D01*
D02*
G37*
G36*
X-182010Y351508D02*
X-189340D01*
X-184115D01*
Y341038D01*
X-189340D01*
Y338896D01*
X-182010D01*
Y351508D01*
D02*
G37*
G36*
X-190111Y351602D02*
X-198400D01*
Y349459D01*
X-195317D01*
Y338896D01*
X-198400D01*
D01*
X-190111D01*
Y351602D01*
D02*
G37*
G36*
X-138553Y351639D02*
D01*
Y338896D01*
Y351639D01*
D02*
G37*
G36*
X-199678Y351602D02*
X-201783D01*
Y338896D01*
X-199678D01*
Y351602D01*
D02*
G37*
G36*
X-218906D02*
Y338896D01*
X-222948Y351602D01*
X-225184D01*
X-229376Y338896D01*
D01*
X-218906D01*
Y351602D01*
D02*
G37*
G36*
X-229413D02*
Y338896D01*
X-233022Y345512D01*
X-229752Y351602D01*
X-234263D01*
X-232195D01*
X-234263Y347786D01*
X-236330Y351602D01*
X-238774D01*
X-235503Y345512D01*
X-239112Y338896D01*
D01*
X-234263D01*
X-236593D01*
X-234263Y343219D01*
X-231932Y338896D01*
X-229413D01*
Y351602D01*
D02*
G37*
%LPD*%
G36*
X-123930Y343595D02*
X-126336D01*
Y347918D01*
X-123930Y343595D01*
D02*
G37*
G36*
X-122070Y338896D02*
X-126336D01*
Y341452D01*
X-122070D01*
Y338896D01*
D02*
G37*
G36*
X-161240D02*
X-163308D01*
X-161240Y348914D01*
Y338896D01*
D02*
G37*
G36*
X-165319D02*
X-167424D01*
Y348914D01*
X-165319Y338896D01*
D02*
G37*
G36*
X-209753Y338896D02*
X-211820D01*
X-209753Y348914D01*
Y338896D01*
D02*
G37*
G36*
X-213832D02*
X-215937D01*
Y348914D01*
X-213832Y338896D01*
D02*
G37*
G36*
X-171428Y338689D02*
X-175563D01*
X-175450Y338708D01*
X-175300D01*
X-175149Y338726D01*
X-174773Y338764D01*
X-174379Y338839D01*
X-173946Y338933D01*
X-173533Y339084D01*
X-173157Y339272D01*
X-173138D01*
X-173119Y339290D01*
X-173007Y339384D01*
X-172837Y339516D01*
X-172649Y339704D01*
X-172424Y339929D01*
X-172198Y340211D01*
X-171992Y340531D01*
X-171822Y340907D01*
Y340926D01*
X-171804Y340963D01*
X-171785Y341020D01*
X-171766Y341114D01*
X-171728Y341245D01*
X-171691Y341395D01*
X-171653Y341583D01*
X-171635Y341790D01*
X-171597Y342053D01*
X-171559Y342335D01*
X-171522Y342655D01*
X-171484Y343012D01*
X-171465Y343407D01*
X-171446Y343839D01*
X-171428Y344309D01*
Y338689D01*
D02*
G37*
G36*
X-190111Y338896D02*
X-193212D01*
Y349459D01*
X-190111D01*
Y338896D01*
D02*
G37*
G36*
X-222647Y343914D02*
X-225504D01*
X-224056Y348632D01*
X-222647Y343914D01*
D02*
G37*
G36*
X-221143Y338896D02*
X-227101D01*
X-226199Y341771D01*
X-221989D01*
X-221143Y338896D01*
D02*
G37*
M02*
