G04*
G04 #@! TF.GenerationSoftware,Altium Limited,Altium Designer,22.9.1 (49)*
G04*
G04 Layer_Physical_Order=1*
G04 Layer_Color=255*
%FSLAX44Y44*%
%MOMM*%
G71*
G04*
G04 #@! TF.SameCoordinates,C6527EDA-D87B-4D04-AF07-29C5A3CB862A*
G04*
G04*
G04 #@! TF.FilePolarity,Positive*
G04*
G01*
G75*
%ADD10C,0.2540*%
%ADD13R,0.7000X0.6500*%
%ADD14R,0.9398X0.7620*%
G04:AMPARAMS|DCode=15|XSize=1.56mm|YSize=0.28mm|CornerRadius=0.035mm|HoleSize=0mm|Usage=FLASHONLY|Rotation=0.000|XOffset=0mm|YOffset=0mm|HoleType=Round|Shape=RoundedRectangle|*
%AMROUNDEDRECTD15*
21,1,1.5600,0.2100,0,0,0.0*
21,1,1.4900,0.2800,0,0,0.0*
1,1,0.0700,0.7450,-0.1050*
1,1,0.0700,-0.7450,-0.1050*
1,1,0.0700,-0.7450,0.1050*
1,1,0.0700,0.7450,0.1050*
%
%ADD15ROUNDEDRECTD15*%
%ADD16R,0.7600X1.2700*%
%ADD17R,0.7620X0.9398*%
G04:AMPARAMS|DCode=18|XSize=1.56mm|YSize=0.28mm|CornerRadius=0.035mm|HoleSize=0mm|Usage=FLASHONLY|Rotation=90.000|XOffset=0mm|YOffset=0mm|HoleType=Round|Shape=RoundedRectangle|*
%AMROUNDEDRECTD18*
21,1,1.5600,0.2100,0,0,90.0*
21,1,1.4900,0.2800,0,0,90.0*
1,1,0.0700,0.1050,0.7450*
1,1,0.0700,0.1050,-0.7450*
1,1,0.0700,-0.1050,-0.7450*
1,1,0.0700,-0.1050,0.7450*
%
%ADD18ROUNDEDRECTD18*%
%ADD19R,1.3500X0.9500*%
%ADD20R,1.3500X3.2500*%
%ADD21R,1.5250X0.6500*%
%ADD22R,0.6000X1.1400*%
%ADD23R,0.3000X1.1400*%
%ADD44C,0.4000*%
%ADD45C,0.6000*%
%ADD46C,0.8000*%
%ADD47C,0.2500*%
%ADD48C,1.6510*%
%ADD49R,1.6510X1.6510*%
%ADD50R,1.5080X1.5080*%
%ADD51C,1.5080*%
%ADD52C,5.0000*%
%ADD53O,0.9000X1.7000*%
%ADD54O,0.9000X2.0000*%
%ADD55C,0.6000*%
%ADD56C,0.5000*%
G36*
X718761Y1197020D02*
X723948Y1195774D01*
X728876Y1193733D01*
X733425Y1190946D01*
X737481Y1187481D01*
X740946Y1183425D01*
X743733Y1178876D01*
X745774Y1173948D01*
X747020Y1168761D01*
X747425Y1163613D01*
X747391Y1163443D01*
Y1061323D01*
X746750Y1060797D01*
X731850D01*
X730722Y1060572D01*
X729766Y1059934D01*
X729128Y1058978D01*
X728903Y1057850D01*
Y1055750D01*
X729128Y1054622D01*
X729343Y1054300D01*
X729128Y1053978D01*
X728947Y1053070D01*
X730658D01*
X730722Y1053027D01*
X731850Y1052803D01*
X739300D01*
Y1050797D01*
X731850D01*
X730722Y1050573D01*
X730658Y1050530D01*
X728947D01*
X729128Y1049622D01*
X729343Y1049300D01*
X729128Y1048978D01*
X728903Y1047850D01*
Y1045750D01*
X729128Y1044622D01*
X729343Y1044300D01*
X729128Y1043978D01*
X728903Y1042850D01*
Y1040750D01*
X729128Y1039622D01*
X729343Y1039300D01*
X729128Y1038978D01*
X728903Y1037850D01*
Y1035750D01*
X729128Y1034622D01*
X729343Y1034300D01*
X729128Y1033978D01*
X728903Y1032850D01*
Y1032734D01*
X727633Y1032064D01*
X725700Y1032449D01*
X722449D01*
Y1035700D01*
X722449Y1035700D01*
X722019Y1037862D01*
X720794Y1039694D01*
X720794Y1039694D01*
X713994Y1046494D01*
X712162Y1047719D01*
X710000Y1048149D01*
X710000Y1048148D01*
X699840D01*
X690648Y1057340D01*
Y1062500D01*
X690264Y1064433D01*
X690934Y1065703D01*
X691050D01*
X692178Y1065928D01*
X692500Y1066143D01*
X692822Y1065928D01*
X693950Y1065703D01*
X696050D01*
X697178Y1065928D01*
X697500Y1066143D01*
X697822Y1065928D01*
X698950Y1065703D01*
X701050D01*
X702178Y1065928D01*
X702500Y1066143D01*
X702822Y1065928D01*
X703950Y1065703D01*
X706050D01*
X707178Y1065928D01*
X707500Y1066143D01*
X707822Y1065928D01*
X708730Y1065747D01*
Y1067458D01*
X708773Y1067522D01*
X708997Y1068650D01*
Y1076100D01*
X711003D01*
Y1068650D01*
X711227Y1067522D01*
X711270Y1067458D01*
Y1065747D01*
X712178Y1065928D01*
X712333Y1066032D01*
X713572Y1065636D01*
X714036Y1064524D01*
X712660Y1063148D01*
X710000D01*
X707838Y1062719D01*
X706006Y1061494D01*
X704781Y1059662D01*
X704352Y1057500D01*
X704781Y1055338D01*
X706006Y1053506D01*
X707838Y1052281D01*
X710000Y1051852D01*
X715000D01*
X715000Y1051851D01*
X717162Y1052281D01*
X718994Y1053506D01*
X723994Y1058506D01*
X725219Y1060338D01*
X725648Y1062500D01*
X725219Y1064662D01*
X723994Y1066494D01*
X723864Y1066581D01*
Y1067984D01*
X723997Y1068650D01*
Y1083503D01*
X724871Y1084377D01*
X725000Y1084352D01*
X727162Y1084781D01*
X728994Y1086006D01*
X730219Y1087838D01*
X730648Y1090000D01*
Y1094760D01*
X742239D01*
Y1107460D01*
X727761D01*
Y1107460D01*
X727239D01*
Y1107460D01*
X712761D01*
Y1106758D01*
X709739D01*
Y1107460D01*
X695261D01*
Y1106758D01*
X692239D01*
Y1107460D01*
X677761D01*
Y1099387D01*
X676588Y1098901D01*
X659178Y1116310D01*
Y1117761D01*
X659880D01*
Y1132239D01*
X659178D01*
Y1137761D01*
X659880D01*
Y1144454D01*
X659988Y1145000D01*
Y1162500D01*
X659880Y1163046D01*
Y1169739D01*
X659178D01*
Y1172761D01*
X659880D01*
Y1187239D01*
X647180D01*
Y1172761D01*
X647881D01*
Y1169739D01*
X647180D01*
Y1155261D01*
X648691D01*
Y1152239D01*
X647180D01*
Y1147399D01*
X636040D01*
Y1147540D01*
X630046D01*
X629500Y1147649D01*
X602239D01*
Y1147740D01*
X587761D01*
Y1147218D01*
X581040D01*
Y1147540D01*
X568960D01*
Y1147399D01*
X542500D01*
X542500Y1147399D01*
X542500Y1147399D01*
X520640D01*
X520640Y1147399D01*
X519838Y1147239D01*
X512540D01*
Y1132761D01*
X525240D01*
Y1136102D01*
X542500D01*
X542500Y1136102D01*
X568960D01*
Y1135960D01*
X574986D01*
X575180Y1135921D01*
X575180Y1135921D01*
X587761D01*
Y1135040D01*
X602239D01*
Y1136351D01*
X623960D01*
Y1135960D01*
X636040D01*
Y1136102D01*
X647881D01*
Y1132239D01*
X647180D01*
Y1117761D01*
X647881D01*
Y1113970D01*
X647881Y1113970D01*
X648311Y1111808D01*
X649536Y1109976D01*
X671006Y1088506D01*
X671503Y1088174D01*
X671798Y1086449D01*
X671731Y1086361D01*
X671050Y1086497D01*
X668950D01*
X667822Y1086272D01*
X667500Y1086057D01*
X667178Y1086272D01*
X666050Y1086497D01*
X663950D01*
X662822Y1086272D01*
X662500Y1086057D01*
X662178Y1086272D01*
X661050Y1086497D01*
X658950D01*
X657822Y1086272D01*
X657500Y1086057D01*
X657178Y1086272D01*
X656050Y1086497D01*
X653950D01*
X652822Y1086272D01*
X652500Y1086057D01*
X652178Y1086272D01*
X651050Y1086497D01*
X648950D01*
X647822Y1086272D01*
X647500Y1086057D01*
X647178Y1086272D01*
X646050Y1086497D01*
X643950D01*
X642822Y1086272D01*
X641866Y1085633D01*
X641228Y1084678D01*
X641003Y1083550D01*
Y1078786D01*
X639733Y1078260D01*
X633885Y1084109D01*
Y1090261D01*
X636350D01*
Y1104739D01*
X636350D01*
Y1105261D01*
X636350D01*
Y1119739D01*
X635648D01*
Y1122460D01*
X636040D01*
Y1134040D01*
X623960D01*
Y1122460D01*
X624352D01*
Y1119739D01*
X623650D01*
Y1105261D01*
X623650D01*
Y1104739D01*
X623650D01*
Y1090261D01*
X626115D01*
Y1082500D01*
X626411Y1081013D01*
X627253Y1079753D01*
X633615Y1073391D01*
Y1071059D01*
X632345Y1070515D01*
X631487Y1071089D01*
X630000Y1071385D01*
X609109D01*
X607394Y1073100D01*
Y1090261D01*
X610950D01*
Y1097500D01*
X612220D01*
Y1098770D01*
X618570D01*
Y1103991D01*
X618570Y1104739D01*
X618570Y1106009D01*
Y1111230D01*
X612220D01*
X605870D01*
Y1106009D01*
X605870Y1105261D01*
X605870Y1103991D01*
Y1101283D01*
X604697Y1100797D01*
X599967Y1105527D01*
X599739Y1105679D01*
Y1109130D01*
X585261D01*
Y1108428D01*
X582239D01*
Y1109130D01*
X580648D01*
Y1122460D01*
X581040D01*
Y1134040D01*
X568960D01*
Y1122460D01*
X569352D01*
Y1109130D01*
X567761D01*
Y1096430D01*
X582239D01*
Y1097132D01*
X585261D01*
Y1096430D01*
X598076D01*
X599624Y1094882D01*
Y1091350D01*
X593770D01*
Y1085000D01*
Y1078650D01*
X599624D01*
Y1071491D01*
X599920Y1070004D01*
X600762Y1068744D01*
X604753Y1064753D01*
X606013Y1063911D01*
X607500Y1063615D01*
X608067D01*
X608773Y1062559D01*
X608557Y1062037D01*
X613486D01*
Y1059497D01*
X608557D01*
X609213Y1057912D01*
X610171Y1056955D01*
X609645Y1055685D01*
X609300D01*
X607813Y1055389D01*
X606553Y1054547D01*
X595891Y1043885D01*
X593295D01*
Y1054595D01*
X587129D01*
Y1062500D01*
X587129Y1062500D01*
X586777Y1064271D01*
X585773Y1065773D01*
X580773Y1070773D01*
X579271Y1071777D01*
X577500Y1072129D01*
X577500Y1072129D01*
X554739D01*
Y1082460D01*
X540261D01*
Y1069760D01*
X541745D01*
X541864Y1069472D01*
X541672Y1069026D01*
X540983Y1068279D01*
X537910D01*
X537285Y1069440D01*
Y1070560D01*
X537285Y1070710D01*
Y1081990D01*
X537285Y1082140D01*
Y1083260D01*
X537285Y1083410D01*
Y1094690D01*
X537285Y1094840D01*
Y1095960D01*
X537285Y1096110D01*
Y1100480D01*
X516955D01*
Y1096110D01*
X516955Y1095960D01*
Y1094819D01*
X516550Y1093679D01*
X514779Y1093327D01*
X513277Y1092323D01*
X513277Y1092323D01*
X513083Y1092129D01*
X511995D01*
X511003Y1092540D01*
X508997D01*
X507145Y1091773D01*
X505727Y1090355D01*
X504960Y1088503D01*
Y1086497D01*
X505727Y1084645D01*
X507145Y1083227D01*
X508997Y1082460D01*
X511003D01*
X511995Y1082871D01*
X515000D01*
X515000Y1082871D01*
X515933Y1083056D01*
X516692Y1082000D01*
X516315Y1080979D01*
X511350D01*
X511350Y1080979D01*
X509579Y1080627D01*
X508217Y1079716D01*
X507145Y1079273D01*
X505727Y1077855D01*
X504960Y1076003D01*
Y1075746D01*
X503787Y1075260D01*
X499423Y1079623D01*
X497921Y1080627D01*
X496150Y1080979D01*
X496150Y1080979D01*
X483670D01*
X483045Y1082140D01*
Y1083260D01*
X483670Y1084421D01*
X486550D01*
X486550Y1084421D01*
X488321Y1084773D01*
X489823Y1085777D01*
X494663Y1090617D01*
X494663Y1090617D01*
X495667Y1092119D01*
X496019Y1093890D01*
X496019Y1093890D01*
Y1121051D01*
X497289Y1121437D01*
X497837Y1120617D01*
X507277Y1111177D01*
X507277Y1111177D01*
X508779Y1110173D01*
X510550Y1109821D01*
X510550Y1109821D01*
X516330D01*
X516955Y1108660D01*
Y1107540D01*
X516955Y1107390D01*
Y1103020D01*
X537285D01*
Y1107390D01*
X537285Y1107540D01*
Y1108660D01*
X537285Y1108810D01*
Y1120240D01*
X516955D01*
Y1119079D01*
X512467D01*
X505739Y1125807D01*
Y1132761D01*
X507460D01*
Y1147239D01*
X494760D01*
Y1132761D01*
X496481D01*
Y1130139D01*
X495211Y1129754D01*
X494663Y1130574D01*
X494663Y1130574D01*
X492829Y1132408D01*
Y1138190D01*
X492829Y1138190D01*
X492740Y1138637D01*
Y1147239D01*
X480040D01*
Y1132761D01*
X483571D01*
Y1130491D01*
X483571Y1130491D01*
X483923Y1128719D01*
X484927Y1127218D01*
X486761Y1125384D01*
Y1095807D01*
X484830Y1093876D01*
X483496Y1094002D01*
X483045Y1094840D01*
Y1095960D01*
X483045Y1096110D01*
Y1107390D01*
X483045Y1107540D01*
Y1108660D01*
X483045Y1108810D01*
Y1120240D01*
X478239D01*
Y1127301D01*
X478239Y1127301D01*
X477887Y1129072D01*
X476883Y1130574D01*
X476883Y1130574D01*
X475049Y1132408D01*
Y1138190D01*
X475049Y1138190D01*
X474960Y1138637D01*
Y1147239D01*
X462260D01*
Y1132761D01*
X465791D01*
Y1130491D01*
X465791Y1130491D01*
X466143Y1128719D01*
X467147Y1127218D01*
X468981Y1125384D01*
Y1120240D01*
X462715D01*
Y1108810D01*
X462715Y1108660D01*
Y1107540D01*
X462715Y1107390D01*
Y1096110D01*
X462715Y1095960D01*
Y1094840D01*
X462715Y1094690D01*
Y1083410D01*
X462715Y1083260D01*
Y1082140D01*
X462715Y1081990D01*
Y1070710D01*
X462715Y1070560D01*
Y1069440D01*
X462715Y1069290D01*
Y1058010D01*
X462715Y1057860D01*
Y1056740D01*
X462715Y1056590D01*
Y1045310D01*
X462715Y1045160D01*
X462715D01*
Y1044040D01*
X462715D01*
Y1042773D01*
X461479Y1042527D01*
X459977Y1041523D01*
X459977Y1041523D01*
X450583Y1032129D01*
X433044D01*
X432557Y1033302D01*
X433066Y1033811D01*
X434393Y1036109D01*
X435080Y1038673D01*
Y1038730D01*
X425000D01*
X414920D01*
Y1038673D01*
X415607Y1036109D01*
X416934Y1033811D01*
X417443Y1033302D01*
X416956Y1032129D01*
X414417D01*
X409614Y1036933D01*
X410080Y1038673D01*
Y1041327D01*
X409393Y1043891D01*
X408066Y1046189D01*
X406189Y1048066D01*
X403891Y1049393D01*
X401327Y1050080D01*
X398673D01*
X396109Y1049393D01*
X393811Y1048066D01*
X391934Y1046189D01*
X390607Y1043891D01*
X389920Y1041327D01*
Y1038673D01*
X390607Y1036109D01*
X391934Y1033811D01*
X393811Y1031934D01*
X396109Y1030607D01*
X398673Y1029920D01*
X401327D01*
X403067Y1030386D01*
X407651Y1025802D01*
X407165Y1024629D01*
X396917D01*
X385080Y1036466D01*
Y1050080D01*
X364920D01*
Y1029920D01*
X378534D01*
X391727Y1016727D01*
X391727Y1016727D01*
X393229Y1015723D01*
X395000Y1015371D01*
X395000Y1015371D01*
X457500D01*
X457500Y1015371D01*
X459271Y1015723D01*
X460773Y1016727D01*
X463806Y1019760D01*
X481731D01*
X482537Y1018778D01*
X482461Y1018399D01*
X482461Y1018399D01*
Y1014739D01*
X480040D01*
Y1001009D01*
X480040Y1000261D01*
X480040Y998991D01*
Y985261D01*
X481761D01*
Y980240D01*
X473239D01*
Y985261D01*
X474960D01*
Y998991D01*
X474960Y999739D01*
X474960Y1001009D01*
Y1006230D01*
X468610D01*
X462260D01*
Y1001009D01*
X462260Y1000261D01*
X462260Y998991D01*
Y985261D01*
X463981D01*
Y980240D01*
X462715D01*
Y968660D01*
X462715D01*
Y967540D01*
X462715D01*
Y955960D01*
X462715D01*
Y954840D01*
X462715D01*
Y943410D01*
X462715Y943260D01*
Y942140D01*
X462715Y941990D01*
Y930560D01*
X462715D01*
Y929440D01*
X462715D01*
Y917860D01*
X462715D01*
Y916740D01*
X462715D01*
Y905160D01*
X462715D01*
Y904149D01*
X462452Y902879D01*
X455750D01*
X455750Y902879D01*
X453979Y902527D01*
X452477Y901523D01*
X452477Y901523D01*
X445583Y894629D01*
X429737D01*
X429397Y895899D01*
X431189Y896934D01*
X433066Y898811D01*
X434393Y901109D01*
X435080Y903673D01*
Y903730D01*
X425000D01*
Y905000D01*
D01*
Y903730D01*
X414920D01*
Y903673D01*
X415607Y901109D01*
X416934Y898811D01*
X418811Y896934D01*
X420603Y895899D01*
X420263Y894629D01*
X416917D01*
X409614Y901933D01*
X410080Y903673D01*
Y906327D01*
X409393Y908891D01*
X408066Y911189D01*
X406189Y913066D01*
X403891Y914393D01*
X401327Y915080D01*
X398673D01*
X396109Y914393D01*
X393811Y913066D01*
X391934Y911189D01*
X390607Y908891D01*
X389920Y906327D01*
Y903673D01*
X390607Y901109D01*
X391934Y898811D01*
X393811Y896934D01*
X396109Y895607D01*
X398673Y894920D01*
X401327D01*
X403067Y895386D01*
X411727Y886727D01*
X411727Y886727D01*
X413229Y885723D01*
X415000Y885371D01*
X447500D01*
X447500Y885371D01*
X449271Y885723D01*
X450773Y886727D01*
X457667Y893621D01*
X462452D01*
X462715Y892460D01*
Y891449D01*
X462452Y890179D01*
X458050D01*
X456279Y889827D01*
X454777Y888823D01*
X454777Y888823D01*
X448083Y882129D01*
X391917D01*
X380396Y893650D01*
X380922Y894920D01*
X385080D01*
Y915080D01*
X364920D01*
Y894920D01*
X370371D01*
Y892500D01*
X370371Y892500D01*
X370723Y890729D01*
X371727Y889227D01*
X386727Y874227D01*
X386727Y874227D01*
X388229Y873223D01*
X390000Y872871D01*
X450000D01*
X450000Y872871D01*
X451771Y873223D01*
X453273Y874227D01*
X459967Y880921D01*
X462715D01*
Y879760D01*
X481761D01*
Y867239D01*
X480040D01*
Y852761D01*
X492740D01*
Y867239D01*
X491019D01*
Y907454D01*
X492289Y908087D01*
X492871Y907647D01*
Y875000D01*
X492871Y875000D01*
X493223Y873229D01*
X494227Y871727D01*
X496481Y869473D01*
Y867239D01*
X494760D01*
Y852761D01*
X506465D01*
X506863Y851491D01*
X505727Y850355D01*
X504960Y848503D01*
Y847790D01*
X503660D01*
Y831260D01*
X503660Y830010D01*
X503660Y828740D01*
Y822370D01*
X510000D01*
X516340D01*
Y828740D01*
X516340Y829990D01*
X516340Y831260D01*
Y847790D01*
X515040D01*
Y848503D01*
X514273Y850355D01*
X513137Y851491D01*
X513535Y852761D01*
X525240D01*
Y867239D01*
X522409D01*
Y872220D01*
X522409Y872220D01*
X522057Y873991D01*
X521053Y875493D01*
X521053Y875493D01*
X518056Y878490D01*
X518582Y879760D01*
X537285D01*
Y881665D01*
X538050D01*
X539537Y881961D01*
X540797Y882803D01*
X547954Y889960D01*
X548503D01*
X550355Y890727D01*
X551773Y892145D01*
X552540Y893997D01*
Y896003D01*
X551773Y897855D01*
X550355Y899273D01*
X548503Y900040D01*
X546497D01*
X544645Y899273D01*
X543227Y897855D01*
X542460Y896003D01*
Y895454D01*
X538555Y891549D01*
X537285Y892075D01*
Y892460D01*
X537285Y892610D01*
Y894693D01*
X538497Y895503D01*
X546609Y903615D01*
X546757D01*
X547145Y903227D01*
X548997Y902460D01*
X551003D01*
X552855Y903227D01*
X554273Y904645D01*
X555040Y906497D01*
Y908503D01*
X554273Y910355D01*
X552855Y911773D01*
X552632Y911865D01*
Y913135D01*
X552855Y913227D01*
X554273Y914645D01*
X555040Y916497D01*
Y918503D01*
X554273Y920355D01*
X552855Y921773D01*
X551389Y922380D01*
X551641Y923650D01*
X557239D01*
Y928730D01*
X542761D01*
Y924529D01*
X541491Y924003D01*
X539097Y926397D01*
X537837Y927239D01*
X537285Y927349D01*
Y929290D01*
X537285Y929440D01*
Y930560D01*
X537285Y930710D01*
Y941990D01*
X537285Y942140D01*
Y943260D01*
X537285Y943410D01*
Y954690D01*
X537285Y954840D01*
Y955960D01*
X537285Y956110D01*
Y967390D01*
X537285Y967540D01*
Y968660D01*
X537285Y968810D01*
Y973441D01*
X538555Y973934D01*
X538948Y973671D01*
X541110Y973241D01*
X541110Y973242D01*
X542761D01*
Y972540D01*
X557239D01*
Y985240D01*
X542761D01*
X542761Y985240D01*
Y985240D01*
X541903Y986085D01*
X535040Y992948D01*
Y993503D01*
X534273Y995355D01*
X532855Y996773D01*
X531003Y997540D01*
X529929D01*
X529662Y997719D01*
X527500Y998149D01*
X527500Y998148D01*
X526138D01*
X525240Y999047D01*
Y999739D01*
X525240Y1001009D01*
Y1014739D01*
X522405D01*
X522057Y1016491D01*
X521053Y1017993D01*
X521053Y1017993D01*
X520460Y1018587D01*
X520946Y1019760D01*
X537285D01*
Y1020921D01*
X541773D01*
X542761Y1020240D01*
X542761Y1019919D01*
Y1007540D01*
X551363D01*
X551810Y1007451D01*
X551810Y1007451D01*
X563503D01*
X565337Y1005617D01*
X565337Y1005617D01*
X572303Y998651D01*
X571705Y996421D01*
Y993579D01*
X572441Y990833D01*
X573862Y988372D01*
X575872Y986362D01*
X578333Y984941D01*
X581079Y984205D01*
X582052D01*
X582538Y983032D01*
X572442Y972936D01*
X564501Y964995D01*
X557239D01*
Y967460D01*
X542761D01*
Y954760D01*
X542761D01*
X542761Y954130D01*
X542761D01*
Y941430D01*
X557239D01*
Y954130D01*
X557239D01*
X557239Y954760D01*
X557239D01*
Y957225D01*
X566110D01*
X567597Y957521D01*
X568857Y958363D01*
X577936Y967442D01*
X594942Y984448D01*
X596115Y983962D01*
Y981609D01*
X569753Y955247D01*
X568911Y953987D01*
X568615Y952500D01*
Y945240D01*
X565261D01*
Y932540D01*
X579739D01*
Y932540D01*
X580261D01*
Y932540D01*
X594739D01*
Y945240D01*
X591385D01*
Y955891D01*
X607747Y972253D01*
X608589Y973513D01*
X608885Y975000D01*
Y977328D01*
X610155Y978016D01*
X611497Y977460D01*
X613503D01*
X614602Y977915D01*
X617687D01*
X618250Y977803D01*
X633150D01*
X634278Y978028D01*
X635234Y978666D01*
X635872Y979622D01*
X636097Y980750D01*
Y982850D01*
X635872Y983978D01*
X635657Y984300D01*
X635872Y984622D01*
X636097Y985750D01*
Y986614D01*
X637367Y987140D01*
X638615Y985891D01*
Y974109D01*
X628643Y964137D01*
X627801Y962877D01*
X627505Y961390D01*
Y957239D01*
X625040D01*
Y942761D01*
X636814D01*
X637662Y941491D01*
X637460Y941003D01*
Y938997D01*
X638227Y937145D01*
X639645Y935727D01*
X641497Y934960D01*
X643503D01*
X645355Y935727D01*
X646773Y937145D01*
X646865Y937368D01*
X648135D01*
X648227Y937145D01*
X649645Y935727D01*
X651497Y934960D01*
X653503D01*
X654548Y935393D01*
X655641Y934653D01*
X655703Y933692D01*
X639463Y917452D01*
X638290Y917938D01*
Y928790D01*
X619710D01*
Y910928D01*
X618218D01*
X617239Y911630D01*
X617239Y912260D01*
X617239D01*
Y924960D01*
X602761D01*
Y912260D01*
X602761D01*
X602761Y911630D01*
X602761D01*
Y898930D01*
X617239D01*
Y899632D01*
X619710D01*
Y891210D01*
X638290D01*
Y904352D01*
X640000D01*
X640000Y904352D01*
X642162Y904781D01*
X643994Y906006D01*
X663994Y926006D01*
X665219Y927838D01*
X665649Y930000D01*
X665219Y932162D01*
X663994Y933994D01*
X663885Y934067D01*
Y952050D01*
X663950Y952103D01*
X666050D01*
X667178Y952328D01*
X667500Y952543D01*
X667822Y952328D01*
X668950Y952103D01*
X671050D01*
X672178Y952328D01*
X672500Y952543D01*
X672822Y952328D01*
X673950Y952103D01*
X676050D01*
X677178Y952328D01*
X677500Y952543D01*
X677822Y952328D01*
X678950Y952103D01*
X681050D01*
X682178Y952328D01*
X682500Y952543D01*
X682822Y952328D01*
X683730Y952147D01*
Y953858D01*
X683773Y953922D01*
X683997Y955050D01*
Y962500D01*
X686003D01*
Y955050D01*
X686227Y953922D01*
X686270Y953858D01*
Y952147D01*
X687178Y952328D01*
X687500Y952543D01*
X687822Y952328D01*
X688950Y952103D01*
X691050D01*
X691585Y952210D01*
X692519Y951144D01*
X692460Y951003D01*
Y948997D01*
X693227Y947145D01*
X694645Y945727D01*
X696497Y944960D01*
X696921D01*
X697626Y943904D01*
X697460Y943503D01*
Y941497D01*
X697523Y941346D01*
X696817Y940290D01*
X686710D01*
Y938649D01*
X685500D01*
X685500Y938649D01*
X683338Y938219D01*
X681506Y936994D01*
X681506Y936994D01*
X673506Y928994D01*
X672281Y927162D01*
X671851Y925000D01*
X671852Y925000D01*
Y907340D01*
X666006Y901494D01*
X664781Y899662D01*
X664352Y897500D01*
X664352Y897500D01*
Y875240D01*
X662761D01*
Y874899D01*
X658540D01*
Y875040D01*
X646460D01*
Y864665D01*
X645190Y864139D01*
X630424Y878904D01*
X629058Y879953D01*
X627467Y880612D01*
X625760Y880836D01*
X618379D01*
X617239Y881150D01*
X617239Y882106D01*
Y886230D01*
X602761D01*
Y881150D01*
X602761D01*
X603350Y880019D01*
X603347Y879880D01*
X602076Y878904D01*
X601027Y877538D01*
X600368Y875947D01*
X600355Y875843D01*
X597506Y872994D01*
X596281Y871162D01*
X595851Y869000D01*
X594948Y868240D01*
X588885D01*
Y871757D01*
X589273Y872145D01*
X590040Y873997D01*
Y876003D01*
X589273Y877855D01*
X588885Y878243D01*
Y908391D01*
X590247Y909753D01*
X591089Y911013D01*
X591385Y912500D01*
Y914760D01*
X594739D01*
Y927460D01*
X580261D01*
Y927460D01*
X579739D01*
Y927460D01*
X565261D01*
Y914760D01*
X568615D01*
Y911609D01*
X567253Y910247D01*
X566411Y908987D01*
X566115Y907500D01*
Y880743D01*
X565727Y880355D01*
X564960Y878503D01*
Y876497D01*
X565727Y874645D01*
X566115Y874257D01*
Y868240D01*
X546770D01*
Y860000D01*
X544230D01*
Y868240D01*
X539960D01*
Y865793D01*
X538690Y865167D01*
X537800Y865849D01*
X536088Y866559D01*
X534250Y866801D01*
X532412Y866559D01*
X530700Y865849D01*
X529229Y864721D01*
X528101Y863250D01*
X527391Y861538D01*
X527149Y859700D01*
Y848700D01*
X527391Y846862D01*
X528101Y845150D01*
X529229Y843679D01*
X530700Y842551D01*
X532412Y841841D01*
X534250Y841599D01*
X536088Y841841D01*
X537800Y842551D01*
X539271Y843679D01*
X540399Y845150D01*
X541109Y846862D01*
X541351Y848700D01*
Y851421D01*
X542342Y851521D01*
X543087Y850467D01*
X543060Y850402D01*
Y848198D01*
X543903Y846162D01*
X545462Y844603D01*
X547498Y843760D01*
X549702D01*
X551738Y844603D01*
X553297Y846162D01*
X553605Y846908D01*
X554851Y847155D01*
X559377Y842629D01*
X559352Y842500D01*
X559781Y840338D01*
X561006Y838506D01*
X562838Y837281D01*
X565000Y836852D01*
X590000D01*
X592162Y837281D01*
X593994Y838506D01*
X595219Y840338D01*
X595648Y842500D01*
X595623Y842629D01*
X600149Y847155D01*
X601395Y846908D01*
X601703Y846162D01*
X603262Y844603D01*
X605298Y843760D01*
X606033D01*
X606216Y843595D01*
X606777Y842490D01*
X606301Y841341D01*
X616159D01*
X615912Y841938D01*
X616955Y842738D01*
X617200Y842551D01*
X618912Y841841D01*
X620750Y841599D01*
X622588Y841841D01*
X624300Y842551D01*
X625771Y843679D01*
X626899Y845150D01*
X627609Y846862D01*
X627851Y848700D01*
Y859700D01*
X627650Y861225D01*
X628550Y861820D01*
X628782Y861889D01*
X639586Y851086D01*
X640952Y850037D01*
X642543Y849378D01*
X644250Y849154D01*
X645957Y849378D01*
X647362Y849960D01*
X658540D01*
Y861540D01*
X648148D01*
X647633Y862203D01*
X648199Y863460D01*
X658540D01*
Y863602D01*
X662761D01*
Y862540D01*
X677239D01*
Y875240D01*
X675649D01*
Y895160D01*
X681494Y901006D01*
X681494Y901006D01*
X682719Y902838D01*
X683148Y905000D01*
Y922660D01*
X685658Y925170D01*
X686710Y925710D01*
Y925710D01*
X686710Y925710D01*
X705290D01*
Y938200D01*
X705355Y938227D01*
X706773Y939645D01*
X707540Y941497D01*
Y942046D01*
X707747Y942253D01*
X708589Y943513D01*
X708885Y945000D01*
Y952050D01*
X708950Y952103D01*
X711050D01*
X712178Y952328D01*
X712500Y952543D01*
X712822Y952328D01*
X713950Y952103D01*
X716050D01*
X717178Y952328D01*
X717500Y952543D01*
X717822Y952328D01*
X718950Y952103D01*
X721050D01*
X722178Y952328D01*
X723134Y952966D01*
X723772Y953922D01*
X723997Y955050D01*
Y969950D01*
X723772Y971078D01*
X723134Y972034D01*
X722178Y972672D01*
X721050Y972897D01*
X720181D01*
X719655Y974167D01*
X721494Y976006D01*
X722719Y977838D01*
X723149Y980000D01*
X723148Y980000D01*
Y992500D01*
X723149Y992500D01*
X722719Y994662D01*
X721697Y996190D01*
X722040Y997129D01*
X722324Y997460D01*
X723503D01*
X724602Y997915D01*
X728850D01*
X728903Y997850D01*
Y995750D01*
X729128Y994622D01*
X729343Y994300D01*
X729128Y993978D01*
X728947Y993070D01*
X730658D01*
X730722Y993027D01*
X731850Y992803D01*
X739300D01*
Y990797D01*
X731850D01*
X730722Y990573D01*
X730658Y990530D01*
X728947D01*
X729128Y989622D01*
X729343Y989300D01*
X729128Y988978D01*
X728903Y987850D01*
Y985750D01*
X729128Y984622D01*
X729343Y984300D01*
X729128Y983978D01*
X728903Y982850D01*
Y980750D01*
X729128Y979622D01*
X729766Y978666D01*
X730722Y978028D01*
X731850Y977803D01*
X746750D01*
X747391Y977277D01*
Y836557D01*
X747425Y836387D01*
X747020Y831239D01*
X745774Y826052D01*
X743733Y821124D01*
X740946Y816575D01*
X737481Y812519D01*
X733425Y809054D01*
X728876Y806267D01*
X723948Y804226D01*
X718761Y802980D01*
X713613Y802575D01*
X713443Y802609D01*
X626611D01*
X626078Y803879D01*
X626899Y804950D01*
X627609Y806662D01*
X627851Y808500D01*
Y816500D01*
X627609Y818338D01*
X626899Y820050D01*
X625771Y821521D01*
X624300Y822649D01*
X622588Y823359D01*
X620750Y823601D01*
X618912Y823359D01*
X617200Y822649D01*
X615729Y821521D01*
X614601Y820050D01*
X613891Y818338D01*
X613649Y816500D01*
Y808500D01*
X613891Y806662D01*
X614601Y804950D01*
X615422Y803879D01*
X614889Y802609D01*
X540111D01*
X539578Y803879D01*
X540399Y804950D01*
X541109Y806662D01*
X541351Y808500D01*
Y816500D01*
X541109Y818338D01*
X540399Y820050D01*
X539271Y821521D01*
X537800Y822649D01*
X536088Y823359D01*
X534250Y823601D01*
X532412Y823359D01*
X530700Y822649D01*
X529229Y821521D01*
X528101Y820050D01*
X527391Y818338D01*
X527149Y816500D01*
Y808500D01*
X527391Y806662D01*
X528101Y804950D01*
X528922Y803879D01*
X528389Y802609D01*
X386557D01*
X386387Y802575D01*
X381239Y802980D01*
X376052Y804226D01*
X371209Y806232D01*
X356232Y821209D01*
X354226Y826052D01*
X352980Y831239D01*
X352575Y836387D01*
X352609Y836557D01*
Y1163443D01*
X352575Y1163613D01*
X352980Y1168761D01*
X354226Y1173948D01*
X356267Y1178876D01*
X359054Y1183425D01*
X360390Y1184988D01*
X368238Y1191965D01*
X371124Y1193733D01*
X376052Y1195774D01*
X381239Y1197020D01*
X386387Y1197425D01*
X386557Y1197391D01*
X713443D01*
X713613Y1197425D01*
X718761Y1197020D01*
D02*
G37*
G36*
X677822Y1065928D02*
X678950Y1065703D01*
X679066D01*
X679736Y1064433D01*
X679352Y1062500D01*
Y1055000D01*
X679351Y1055000D01*
X679781Y1052838D01*
X681006Y1051006D01*
X693506Y1038506D01*
X693506Y1038506D01*
X695338Y1037281D01*
X697500Y1036852D01*
X707660D01*
X711152Y1033360D01*
Y1029140D01*
X708506Y1026494D01*
X707281Y1024662D01*
X706851Y1022500D01*
X706852Y1022500D01*
Y1009572D01*
X705582Y1009046D01*
X705355Y1009273D01*
X703503Y1010040D01*
X701497D01*
X700505Y1009629D01*
X642500D01*
X640729Y1009277D01*
X639227Y1008273D01*
X638223Y1006771D01*
X638086Y1006079D01*
X637691Y1005685D01*
X636150D01*
X636097Y1005750D01*
Y1007850D01*
X635872Y1008978D01*
X635657Y1009300D01*
X635872Y1009622D01*
X636097Y1010750D01*
Y1012850D01*
X636150Y1012915D01*
X641800D01*
X643287Y1013211D01*
X644547Y1014053D01*
X647747Y1017253D01*
X648589Y1018513D01*
X648885Y1020000D01*
Y1057385D01*
X648997Y1057460D01*
X651003D01*
X652855Y1058227D01*
X654273Y1059645D01*
X655040Y1061497D01*
Y1063503D01*
X654654Y1064433D01*
X655503Y1065703D01*
X656050D01*
X657178Y1065928D01*
X657500Y1066143D01*
X657822Y1065928D01*
X658950Y1065703D01*
X661050D01*
X662178Y1065928D01*
X662500Y1066143D01*
X662822Y1065928D01*
X663950Y1065703D01*
X666050D01*
X667178Y1065928D01*
X667500Y1066143D01*
X667822Y1065928D01*
X668950Y1065703D01*
X671050D01*
X672178Y1065928D01*
X672500Y1066143D01*
X672822Y1065928D01*
X673950Y1065703D01*
X676050D01*
X677178Y1065928D01*
X677500Y1066143D01*
X677822Y1065928D01*
D02*
G37*
G36*
X550000Y1062871D02*
X575583D01*
X577871Y1060583D01*
Y1054595D01*
X571705D01*
Y1033005D01*
X593215D01*
X594057Y1032050D01*
X587253Y1025247D01*
X586411Y1023987D01*
X586115Y1022500D01*
Y1006250D01*
X585108Y1005477D01*
X583921Y1005795D01*
X581079D01*
X578849Y1005198D01*
X571883Y1012163D01*
X571883Y1012163D01*
X568693Y1015353D01*
X567191Y1016357D01*
X565420Y1016709D01*
X565420Y1016709D01*
X557239D01*
Y1020240D01*
X545561D01*
X545176Y1021510D01*
X546323Y1022277D01*
X546863Y1022816D01*
X547855Y1023227D01*
X549273Y1024645D01*
X550040Y1026497D01*
Y1028503D01*
X549273Y1030355D01*
X547855Y1031773D01*
X547632Y1031865D01*
Y1033135D01*
X547855Y1033227D01*
X549273Y1034645D01*
X550040Y1036497D01*
Y1038503D01*
X549273Y1040355D01*
X547855Y1041773D01*
X546003Y1042540D01*
X545954D01*
X544250Y1042879D01*
X544250Y1042879D01*
X537910D01*
X537285Y1044040D01*
Y1045160D01*
X537837Y1046186D01*
X539086Y1046286D01*
X539645Y1045727D01*
X541497Y1044960D01*
X543503D01*
X545355Y1045727D01*
X546773Y1047145D01*
X547540Y1048997D01*
Y1051003D01*
X546773Y1052855D01*
X545355Y1054273D01*
X543761Y1054933D01*
X543321Y1055227D01*
X541550Y1055579D01*
X541550Y1055579D01*
X537910D01*
X537285Y1056740D01*
Y1057860D01*
X537724Y1058676D01*
X539068Y1058805D01*
X539645Y1058227D01*
X541497Y1057460D01*
X543503D01*
X545355Y1058227D01*
X546773Y1059645D01*
X547540Y1061497D01*
Y1062164D01*
X547663Y1062353D01*
X548810Y1063108D01*
X550000Y1062871D01*
D02*
G37*
G36*
X505371Y1060583D02*
Y1049783D01*
X504101Y1049534D01*
X503273Y1050773D01*
X503273Y1050773D01*
X487123Y1066923D01*
X485621Y1067927D01*
X483850Y1068279D01*
X483045Y1069152D01*
X483045Y1069440D01*
Y1070560D01*
X483670Y1071721D01*
X494233D01*
X505371Y1060583D01*
D02*
G37*
G36*
X506727Y1019227D02*
X512540Y1013414D01*
Y1001009D01*
X512540Y1000261D01*
X512540Y998991D01*
Y985261D01*
X525240D01*
Y985261D01*
X526308Y985704D01*
X530598Y981413D01*
X530112Y980240D01*
X516955D01*
Y979629D01*
X506917D01*
X505739Y980807D01*
Y985261D01*
X507460D01*
Y998991D01*
X507460Y999739D01*
X507460Y1001009D01*
Y1014739D01*
X504629D01*
Y1020217D01*
X505899Y1020466D01*
X506727Y1019227D01*
D02*
G37*
G36*
X711852Y990160D02*
Y982340D01*
X711006Y981494D01*
X709781Y979662D01*
X709352Y977500D01*
X709781Y975338D01*
X710564Y974167D01*
X709885Y972897D01*
X708950D01*
X707822Y972672D01*
X707500Y972457D01*
X707178Y972672D01*
X706050Y972897D01*
X703950D01*
X702822Y972672D01*
X702500Y972457D01*
X702178Y972672D01*
X701050Y972897D01*
X698950D01*
X698885Y972950D01*
Y974257D01*
X699273Y974645D01*
X700040Y976497D01*
Y978503D01*
X699273Y980355D01*
X697855Y981773D01*
X696003Y982540D01*
X693997D01*
X693643Y983713D01*
X693589Y983987D01*
X692747Y985247D01*
X692540Y985454D01*
Y986003D01*
X691773Y987855D01*
X690355Y989273D01*
X688503Y990040D01*
X686497D01*
X684645Y989273D01*
X683227Y987855D01*
X682460Y986003D01*
Y983997D01*
X683227Y982145D01*
X684645Y980727D01*
X686115Y980118D01*
Y972950D01*
X686050Y972897D01*
X683950D01*
X682822Y972672D01*
X682500Y972457D01*
X682178Y972672D01*
X681050Y972897D01*
X678950D01*
X677822Y972672D01*
X677500Y972457D01*
X677178Y972672D01*
X676050Y972897D01*
X673950D01*
X672822Y972672D01*
X672500Y972457D01*
X672178Y972672D01*
X671050Y972897D01*
X668950D01*
X667822Y972672D01*
X667500Y972457D01*
X667178Y972672D01*
X666050Y972897D01*
X663950D01*
X663885Y972950D01*
Y978433D01*
X663994Y978506D01*
X665219Y980338D01*
X665648Y982500D01*
Y982660D01*
X674840Y991852D01*
X710160D01*
X711852Y990160D01*
D02*
G37*
G36*
X666209Y999198D02*
X656006Y988994D01*
X654781Y987162D01*
X654351Y985000D01*
X654352Y985000D01*
Y982500D01*
X654781Y980338D01*
X656006Y978506D01*
X656115Y978433D01*
Y972950D01*
X656050Y972897D01*
X653950D01*
X652822Y972672D01*
X652500Y972457D01*
X652178Y972672D01*
X651050Y972897D01*
X648950D01*
X647822Y972672D01*
X647500Y972457D01*
X647499Y972457D01*
X647178Y972672D01*
X646736Y972760D01*
X646385Y972900D01*
Y987500D01*
X646089Y988987D01*
X645247Y990247D01*
X640947Y994547D01*
X639687Y995389D01*
X638200Y995685D01*
X636150D01*
X636097Y995750D01*
Y997850D01*
X636150Y997915D01*
X639300D01*
X640787Y998211D01*
X642047Y999053D01*
X643365Y1000371D01*
X665723D01*
X666209Y999198D01*
D02*
G37*
G36*
X495371Y1045583D02*
Y1014739D01*
X494760D01*
Y1001009D01*
X494760Y1000261D01*
X494760Y998991D01*
Y985261D01*
X496481D01*
Y978890D01*
X496481Y978890D01*
X496833Y977119D01*
X497837Y975617D01*
X501727Y971727D01*
X501727Y971727D01*
X503228Y970723D01*
X505000Y970371D01*
X516955D01*
Y968810D01*
X516955Y968660D01*
Y967540D01*
X516955Y967390D01*
Y956110D01*
X516955Y955960D01*
Y954840D01*
X516330Y953679D01*
X508449D01*
X507855Y954273D01*
X506003Y955040D01*
X503997D01*
X502145Y954273D01*
X500727Y952855D01*
X499960Y951003D01*
Y948997D01*
X500727Y947145D01*
X502145Y945727D01*
X503739Y945067D01*
X504179Y944773D01*
X505950Y944421D01*
X516330D01*
X516955Y943260D01*
Y942140D01*
X516330Y940979D01*
X513649D01*
X512855Y941773D01*
X511003Y942540D01*
X508997D01*
X507145Y941773D01*
X505727Y940355D01*
X504960Y938503D01*
Y936497D01*
X505727Y934645D01*
X507145Y933227D01*
X508478Y932675D01*
X509379Y932073D01*
X511150Y931721D01*
X511150Y931721D01*
X516330D01*
X516955Y930560D01*
Y929440D01*
X516955Y929290D01*
Y918010D01*
X516955Y917860D01*
X516955D01*
Y916740D01*
X516955D01*
Y905160D01*
X516955D01*
Y904040D01*
X516955D01*
Y892610D01*
X516955Y892460D01*
Y891340D01*
X516955Y891190D01*
Y881387D01*
X515685Y880861D01*
X509629Y886917D01*
Y917500D01*
X509629Y917500D01*
X509277Y919271D01*
X508273Y920773D01*
X508273Y920773D01*
X489423Y939623D01*
X487921Y940627D01*
X486150Y940979D01*
X486150Y940979D01*
X483670D01*
X483045Y942140D01*
Y943260D01*
X483045Y943410D01*
Y944694D01*
X483446Y944773D01*
X484948Y945777D01*
X489194Y950023D01*
X489663Y950337D01*
X490667Y951839D01*
X491019Y953610D01*
Y985261D01*
X492740D01*
Y998991D01*
X492740Y999739D01*
X492740Y1001009D01*
Y1014739D01*
X491719D01*
Y1016482D01*
X492163Y1016926D01*
X492163Y1016926D01*
X493167Y1018428D01*
X493519Y1020199D01*
X493519Y1020199D01*
Y1041110D01*
X493519Y1041110D01*
X493167Y1042881D01*
X492163Y1044383D01*
X492163Y1044383D01*
X483045Y1053501D01*
Y1056113D01*
X484315Y1056639D01*
X495371Y1045583D01*
D02*
G37*
G36*
X582996Y913490D02*
X582253Y912747D01*
X581411Y911487D01*
X581115Y910000D01*
Y878243D01*
X580727Y877855D01*
X579960Y876003D01*
Y873997D01*
X579885Y873885D01*
X577500D01*
X576013Y873589D01*
X575789Y873439D01*
X574407Y874008D01*
X574273Y874645D01*
X575040Y876497D01*
Y878503D01*
X574273Y880355D01*
X573885Y880743D01*
Y905891D01*
X575247Y907253D01*
X576089Y908513D01*
X576385Y910000D01*
Y914760D01*
X579739D01*
Y914760D01*
X580261D01*
Y914760D01*
X582470D01*
X582996Y913490D01*
D02*
G37*
%LPC*%
G36*
X677660Y1187239D02*
X672580D01*
Y1181270D01*
X677660D01*
Y1187239D01*
D02*
G37*
G36*
X670040D02*
X664960D01*
Y1181270D01*
X670040D01*
Y1187239D01*
D02*
G37*
G36*
X677660Y1178730D02*
X672580D01*
Y1172761D01*
X677660D01*
Y1178730D01*
D02*
G37*
G36*
X670040D02*
X664960D01*
Y1172761D01*
X670040D01*
Y1178730D01*
D02*
G37*
G36*
X677660Y1169739D02*
X672580D01*
Y1163770D01*
X677660D01*
Y1169739D01*
D02*
G37*
G36*
X670040D02*
X664960D01*
Y1163770D01*
X670040D01*
Y1169739D01*
D02*
G37*
G36*
X677660Y1161230D02*
X672580D01*
Y1155261D01*
X677660D01*
Y1161230D01*
D02*
G37*
G36*
X670040D02*
X664960D01*
Y1155261D01*
X670040D01*
Y1161230D01*
D02*
G37*
G36*
X677660Y1152239D02*
X672580D01*
Y1146270D01*
X677660D01*
Y1152239D01*
D02*
G37*
G36*
X670040D02*
X664960D01*
Y1146270D01*
X670040D01*
Y1152239D01*
D02*
G37*
G36*
X677660Y1143730D02*
X672580D01*
Y1137761D01*
X677660D01*
Y1143730D01*
D02*
G37*
G36*
X670040D02*
X664960D01*
Y1137761D01*
X670040D01*
Y1143730D01*
D02*
G37*
G36*
X388724Y1190983D02*
X384389D01*
X380108Y1190305D01*
X375985Y1188965D01*
X372123Y1186997D01*
X368616Y1184449D01*
X365551Y1181384D01*
X363003Y1177877D01*
X361035Y1174015D01*
X359695Y1169892D01*
X359017Y1165611D01*
Y1161276D01*
X359695Y1156994D01*
X361035Y1152871D01*
X363003Y1149009D01*
X365551Y1145502D01*
X368616Y1142437D01*
X372123Y1139889D01*
X375985Y1137921D01*
X380108Y1136581D01*
X384389Y1135903D01*
X388724D01*
X393006Y1136581D01*
X397129Y1137921D01*
X400991Y1139889D01*
X404498Y1142437D01*
X407563Y1145502D01*
X410111Y1149009D01*
X412079Y1152871D01*
X413419Y1156994D01*
X414097Y1161276D01*
Y1165611D01*
X413419Y1169892D01*
X412079Y1174015D01*
X410111Y1177877D01*
X407563Y1181384D01*
X404498Y1184449D01*
X400991Y1186997D01*
X397129Y1188965D01*
X393006Y1190305D01*
X388724Y1190983D01*
D02*
G37*
G36*
X715611Y1190983D02*
X711276D01*
X706994Y1190305D01*
X702871Y1188965D01*
X699009Y1186997D01*
X695502Y1184449D01*
X692437Y1181384D01*
X689889Y1177877D01*
X687921Y1174015D01*
X686581Y1169892D01*
X685903Y1165611D01*
Y1161276D01*
X686581Y1156994D01*
X687921Y1152871D01*
X689889Y1149009D01*
X692437Y1145502D01*
X695502Y1142437D01*
X699009Y1139889D01*
X702871Y1137921D01*
X706994Y1136581D01*
X711276Y1135903D01*
X715611D01*
X719892Y1136581D01*
X724015Y1137921D01*
X727877Y1139889D01*
X731384Y1142437D01*
X734449Y1145502D01*
X736997Y1149009D01*
X738965Y1152871D01*
X740305Y1156994D01*
X740983Y1161276D01*
Y1165611D01*
X740305Y1169892D01*
X738965Y1174015D01*
X736997Y1177877D01*
X734449Y1181384D01*
X731384Y1184449D01*
X727877Y1186997D01*
X724015Y1188965D01*
X719892Y1190305D01*
X715611Y1190983D01*
D02*
G37*
G36*
X670040Y1132239D02*
X664960D01*
Y1126270D01*
X670040D01*
Y1132239D01*
D02*
G37*
G36*
X602239Y1129960D02*
X596270D01*
Y1124880D01*
X602239D01*
Y1129960D01*
D02*
G37*
G36*
X593730D02*
X587761D01*
Y1124880D01*
X593730D01*
Y1129960D01*
D02*
G37*
G36*
X736270Y1125240D02*
Y1120160D01*
X742239D01*
Y1125240D01*
X736270D01*
D02*
G37*
G36*
X686270D02*
Y1120160D01*
X692239D01*
Y1125240D01*
X686270D01*
D02*
G37*
G36*
X709739D02*
X703770D01*
Y1120160D01*
X709739D01*
Y1125240D01*
D02*
G37*
G36*
X718730D02*
X712761D01*
Y1120160D01*
X718730D01*
Y1125240D01*
D02*
G37*
G36*
X701230D02*
X695261D01*
Y1120160D01*
X701230D01*
Y1125240D01*
D02*
G37*
G36*
X670040Y1123730D02*
X664960D01*
Y1117761D01*
X670040D01*
Y1123730D01*
D02*
G37*
G36*
X602239Y1122340D02*
X596270D01*
Y1117260D01*
X602239D01*
Y1122340D01*
D02*
G37*
G36*
X593730D02*
X587761D01*
Y1117260D01*
X593730D01*
Y1122340D01*
D02*
G37*
G36*
X618570Y1119739D02*
X613490D01*
Y1113770D01*
X618570D01*
Y1119739D01*
D02*
G37*
G36*
X610950D02*
X605870D01*
Y1113770D01*
X610950D01*
Y1119739D01*
D02*
G37*
G36*
X742239Y1117620D02*
X736270D01*
Y1112540D01*
X742239D01*
Y1117620D01*
D02*
G37*
G36*
X709739D02*
X703770D01*
Y1112540D01*
X709739D01*
Y1117620D01*
D02*
G37*
G36*
X701230D02*
X695261D01*
Y1112540D01*
X701230D01*
Y1117620D01*
D02*
G37*
G36*
X692239D02*
X686270D01*
Y1112540D01*
X692239D01*
Y1117620D01*
D02*
G37*
G36*
X677660Y1132239D02*
X672580D01*
Y1125000D01*
Y1117761D01*
X677660Y1117761D01*
X677761Y1116533D01*
Y1112540D01*
X683730D01*
Y1118890D01*
Y1125240D01*
X677761Y1125240D01*
X677660Y1126468D01*
Y1132239D01*
D02*
G37*
G36*
X718730Y1117620D02*
X712761D01*
Y1112540D01*
X718730D01*
Y1117620D01*
D02*
G37*
G36*
X727761Y1125240D02*
X726491Y1125240D01*
X721270D01*
Y1118890D01*
Y1112540D01*
X726491D01*
X727239Y1112540D01*
X728509Y1112540D01*
X733730D01*
Y1118890D01*
Y1125240D01*
X728509D01*
X727761Y1125240D01*
D02*
G37*
G36*
X426327Y1115080D02*
X426270D01*
Y1106270D01*
X435080D01*
Y1106327D01*
X434393Y1108891D01*
X433066Y1111189D01*
X431189Y1113066D01*
X428891Y1114393D01*
X426327Y1115080D01*
D02*
G37*
G36*
X423730D02*
X423673D01*
X421109Y1114393D01*
X418811Y1113066D01*
X416934Y1111189D01*
X415607Y1108891D01*
X414920Y1106327D01*
Y1106270D01*
X423730D01*
Y1115080D01*
D02*
G37*
G36*
X554739Y1100240D02*
X548770D01*
Y1095160D01*
X554739D01*
Y1100240D01*
D02*
G37*
G36*
X546230D02*
X540261D01*
Y1095160D01*
X546230D01*
Y1100240D01*
D02*
G37*
G36*
X435080Y1103730D02*
X426270D01*
Y1094920D01*
X426327D01*
X428891Y1095607D01*
X431189Y1096934D01*
X433066Y1098811D01*
X434393Y1101109D01*
X435080Y1103673D01*
Y1103730D01*
D02*
G37*
G36*
X423730D02*
X414920D01*
Y1103673D01*
X415607Y1101109D01*
X416934Y1098811D01*
X418811Y1096934D01*
X421109Y1095607D01*
X423673Y1094920D01*
X423730D01*
Y1103730D01*
D02*
G37*
G36*
X401327Y1115080D02*
X398673D01*
X396109Y1114393D01*
X393811Y1113066D01*
X391934Y1111189D01*
X390607Y1108891D01*
X389920Y1106327D01*
Y1103673D01*
X390607Y1101109D01*
X391934Y1098811D01*
X393811Y1096934D01*
X396109Y1095607D01*
X398673Y1094920D01*
X401327D01*
X403891Y1095607D01*
X406189Y1096934D01*
X408066Y1098811D01*
X409393Y1101109D01*
X410080Y1103673D01*
Y1106327D01*
X409393Y1108891D01*
X408066Y1111189D01*
X406189Y1113066D01*
X403891Y1114393D01*
X401327Y1115080D01*
D02*
G37*
G36*
X385080D02*
X364920D01*
Y1094920D01*
X385080D01*
Y1115080D01*
D02*
G37*
G36*
X618570Y1096230D02*
X613490D01*
Y1090261D01*
X618570D01*
Y1096230D01*
D02*
G37*
G36*
X554739Y1092620D02*
X548770D01*
Y1087540D01*
X554739D01*
Y1092620D01*
D02*
G37*
G36*
X546230D02*
X540261D01*
Y1087540D01*
X546230D01*
Y1092620D01*
D02*
G37*
G36*
X582239Y1091350D02*
X576270D01*
Y1086270D01*
X582239D01*
Y1091350D01*
D02*
G37*
G36*
X573730D02*
X567761D01*
Y1086270D01*
X573730D01*
Y1091350D01*
D02*
G37*
G36*
X591230Y1091350D02*
X585261D01*
Y1086270D01*
X591230D01*
Y1091350D01*
D02*
G37*
G36*
X582239Y1083730D02*
X576270D01*
Y1078650D01*
X582239D01*
Y1083730D01*
D02*
G37*
G36*
X573730D02*
X567761D01*
Y1078650D01*
X573730D01*
Y1083730D01*
D02*
G37*
G36*
X591230Y1083730D02*
X585261D01*
Y1078650D01*
X591230D01*
Y1083730D01*
D02*
G37*
G36*
X426327Y1050080D02*
X426270D01*
Y1041270D01*
X435080D01*
Y1041327D01*
X434393Y1043891D01*
X433066Y1046189D01*
X431189Y1048066D01*
X428891Y1049393D01*
X426327Y1050080D01*
D02*
G37*
G36*
X423730D02*
X423673D01*
X421109Y1049393D01*
X418811Y1048066D01*
X416934Y1046189D01*
X415607Y1043891D01*
X414920Y1041327D01*
Y1041270D01*
X423730D01*
Y1050080D01*
D02*
G37*
G36*
X474960Y1014739D02*
X469880D01*
Y1008770D01*
X474960D01*
Y1014739D01*
D02*
G37*
G36*
X467340D02*
X462260D01*
Y1008770D01*
X467340D01*
Y1014739D01*
D02*
G37*
G36*
X557239Y1002460D02*
X551270D01*
Y997380D01*
X557239D01*
Y1002460D01*
D02*
G37*
G36*
X548730D02*
X542761D01*
Y997380D01*
X548730D01*
Y1002460D01*
D02*
G37*
G36*
X557239Y994840D02*
X551270D01*
Y989760D01*
X557239D01*
Y994840D01*
D02*
G37*
G36*
X548730D02*
X542761D01*
Y989760D01*
X548730D01*
Y994840D01*
D02*
G37*
G36*
X426327Y980080D02*
X426270D01*
Y971270D01*
X435080D01*
Y971327D01*
X434393Y973891D01*
X433066Y976189D01*
X431189Y978066D01*
X428891Y979393D01*
X426327Y980080D01*
D02*
G37*
G36*
X423730D02*
X423673D01*
X421109Y979393D01*
X418811Y978066D01*
X416934Y976189D01*
X415607Y973891D01*
X414920Y971327D01*
Y971270D01*
X423730D01*
Y980080D01*
D02*
G37*
G36*
X435080Y968730D02*
X426270D01*
Y959920D01*
X426327D01*
X428891Y960607D01*
X431189Y961934D01*
X433066Y963811D01*
X434393Y966109D01*
X435080Y968673D01*
Y968730D01*
D02*
G37*
G36*
X423730D02*
X414920D01*
Y968673D01*
X415607Y966109D01*
X416934Y963811D01*
X418811Y961934D01*
X421109Y960607D01*
X423673Y959920D01*
X423730D01*
Y968730D01*
D02*
G37*
G36*
X401327Y980080D02*
X398673D01*
X396109Y979393D01*
X393811Y978066D01*
X391934Y976189D01*
X390607Y973891D01*
X389920Y971327D01*
Y968673D01*
X390607Y966109D01*
X391934Y963811D01*
X393811Y961934D01*
X396109Y960607D01*
X398673Y959920D01*
X401327D01*
X403891Y960607D01*
X406189Y961934D01*
X408066Y963811D01*
X409393Y966109D01*
X410080Y968673D01*
Y971327D01*
X409393Y973891D01*
X408066Y976189D01*
X406189Y978066D01*
X403891Y979393D01*
X401327Y980080D01*
D02*
G37*
G36*
X385080D02*
X364920D01*
Y959920D01*
X385080D01*
Y980080D01*
D02*
G37*
G36*
X619960Y957239D02*
X614880D01*
Y951270D01*
X619960D01*
Y957239D01*
D02*
G37*
G36*
X612340D02*
X607260D01*
Y951270D01*
X612340D01*
Y957239D01*
D02*
G37*
G36*
X619960Y948730D02*
X613610D01*
X607260D01*
X607260Y942761D01*
X605999Y942740D01*
X602761D01*
Y937660D01*
X610000D01*
X617239D01*
X617239Y942740D01*
X618500Y942761D01*
X619960D01*
Y948730D01*
D02*
G37*
G36*
X557239Y936350D02*
X551270D01*
Y931270D01*
X557239D01*
Y936350D01*
D02*
G37*
G36*
X548730D02*
X542761D01*
Y931270D01*
X548730D01*
Y936350D01*
D02*
G37*
G36*
X617239Y935120D02*
X611270D01*
Y930040D01*
X617239D01*
Y935120D01*
D02*
G37*
G36*
X608730D02*
X602761D01*
Y930040D01*
X608730D01*
Y935120D01*
D02*
G37*
G36*
X426327Y915080D02*
X426270D01*
Y906270D01*
X435080D01*
Y906327D01*
X434393Y908891D01*
X433066Y911189D01*
X431189Y913066D01*
X428891Y914393D01*
X426327Y915080D01*
D02*
G37*
G36*
X423730D02*
X423673D01*
X421109Y914393D01*
X418811Y913066D01*
X416934Y911189D01*
X415607Y908891D01*
X414920Y906327D01*
Y906270D01*
X423730D01*
Y915080D01*
D02*
G37*
G36*
X705290Y917290D02*
X686710D01*
Y902710D01*
X705290D01*
Y917290D01*
D02*
G37*
G36*
X617239Y893850D02*
X611270D01*
Y888770D01*
X617239D01*
Y893850D01*
D02*
G37*
G36*
X608730D02*
X602761D01*
Y888770D01*
X608730D01*
Y893850D01*
D02*
G37*
G36*
X705290Y894290D02*
X697270D01*
Y888270D01*
X705290D01*
Y894290D01*
D02*
G37*
G36*
X694730D02*
X686710D01*
Y888270D01*
X694730D01*
Y894290D01*
D02*
G37*
G36*
X705290Y885730D02*
X697270D01*
Y879710D01*
X705290D01*
Y885730D01*
D02*
G37*
G36*
X694730D02*
X686710D01*
Y879710D01*
X694730D01*
Y885730D01*
D02*
G37*
G36*
X474960Y867239D02*
X469880D01*
Y861270D01*
X474960D01*
Y867239D01*
D02*
G37*
G36*
X467340D02*
X462260D01*
Y861270D01*
X467340D01*
Y867239D01*
D02*
G37*
G36*
X677239Y857460D02*
X671270D01*
Y852380D01*
X677239D01*
Y857460D01*
D02*
G37*
G36*
X668730D02*
X662761D01*
Y852380D01*
X668730D01*
Y857460D01*
D02*
G37*
G36*
X677239Y849840D02*
X671270D01*
Y844760D01*
X677239D01*
Y849840D01*
D02*
G37*
G36*
X668730D02*
X662761D01*
Y844760D01*
X668730D01*
Y849840D01*
D02*
G37*
G36*
X616159Y838801D02*
X612500D01*
Y835142D01*
X614085Y835798D01*
X615503Y837216D01*
X616159Y838801D01*
D02*
G37*
G36*
X609960D02*
X606301D01*
X606957Y837216D01*
X608375Y835798D01*
X609960Y835142D01*
Y838801D01*
D02*
G37*
G36*
X474960Y858730D02*
X468610D01*
X462260D01*
Y852761D01*
X464545D01*
X465251Y851705D01*
X464960Y851003D01*
Y848997D01*
X465023Y848846D01*
X464317Y847790D01*
X463660D01*
Y831260D01*
X463660Y830010D01*
X463660Y828740D01*
Y822370D01*
X470000D01*
X476340D01*
Y828740D01*
X476340Y829990D01*
X476340Y831260D01*
Y847790D01*
X475683D01*
X474977Y848846D01*
X475040Y848997D01*
Y851003D01*
X474560Y852162D01*
X474960Y852761D01*
X474960D01*
Y858730D01*
D02*
G37*
G36*
X516340Y819830D02*
X511270D01*
Y812210D01*
X516340D01*
Y819830D01*
D02*
G37*
G36*
X508730D02*
X503660D01*
Y812210D01*
X508730D01*
Y819830D01*
D02*
G37*
G36*
X476340Y819830D02*
X471270D01*
Y812210D01*
X476340D01*
Y819830D01*
D02*
G37*
G36*
X468730D02*
X463660D01*
Y812210D01*
X468730D01*
Y819830D01*
D02*
G37*
G36*
X715611Y864097D02*
X711276D01*
X706994Y863419D01*
X702871Y862079D01*
X699009Y860111D01*
X695502Y857563D01*
X692437Y854498D01*
X689889Y850991D01*
X687921Y847129D01*
X686581Y843006D01*
X685903Y838724D01*
Y834389D01*
X686581Y830108D01*
X687921Y825985D01*
X689889Y822123D01*
X692437Y818616D01*
X695502Y815551D01*
X699009Y813003D01*
X702871Y811035D01*
X706994Y809695D01*
X711276Y809017D01*
X715611D01*
X719892Y809695D01*
X724015Y811035D01*
X727877Y813003D01*
X731384Y815551D01*
X734449Y818616D01*
X736997Y822123D01*
X738965Y825985D01*
X740305Y830108D01*
X740983Y834389D01*
Y838724D01*
X740305Y843006D01*
X738965Y847129D01*
X736997Y850991D01*
X734449Y854498D01*
X731384Y857563D01*
X727877Y860111D01*
X724015Y862079D01*
X719892Y863419D01*
X715611Y864097D01*
D02*
G37*
G36*
X388724Y864097D02*
X384389D01*
X380108Y863419D01*
X375985Y862079D01*
X372123Y860111D01*
X368616Y857563D01*
X365551Y854498D01*
X363003Y850991D01*
X361035Y847129D01*
X359695Y843006D01*
X359017Y838724D01*
Y834389D01*
X359695Y830108D01*
X361035Y825985D01*
X363003Y822123D01*
X365551Y818616D01*
X368616Y815551D01*
X372123Y813003D01*
X375985Y811035D01*
X380108Y809695D01*
X384389Y809017D01*
X388724D01*
X393006Y809695D01*
X397129Y811035D01*
X400991Y813003D01*
X404498Y815551D01*
X407563Y818616D01*
X410111Y822123D01*
X412079Y825985D01*
X413419Y830108D01*
X414097Y834389D01*
Y838724D01*
X413419Y843006D01*
X412079Y847129D01*
X410111Y850991D01*
X407563Y854498D01*
X404498Y857563D01*
X400991Y860111D01*
X397129Y862079D01*
X393006Y863419D01*
X388724Y864097D01*
D02*
G37*
%LPD*%
D10*
X570000Y852500D02*
Y877500D01*
X570000Y877500D01*
X570000Y877500D02*
Y907500D01*
Y877500D02*
X570000Y877500D01*
X710000Y1092500D02*
X715000Y1087500D01*
X710000Y1072500D02*
Y1076100D01*
X613486Y1059668D02*
Y1060767D01*
Y1059668D02*
X616353Y1056800D01*
X687500Y985000D02*
X690000Y982500D01*
Y962500D02*
Y982500D01*
X612500Y995000D02*
X614300Y996800D01*
X612500Y992500D02*
Y995000D01*
X614300Y996800D02*
X625700D01*
X612500Y990000D02*
X615700Y986800D01*
X625700D01*
X612500Y990000D02*
Y992500D01*
X625700Y1006800D02*
Y1011800D01*
X610000Y1002500D02*
Y1007500D01*
X614300Y1011800D01*
X616353Y1056800D02*
X625700D01*
X697500Y950000D02*
X700000Y952500D01*
X705000Y945000D02*
Y962500D01*
X695000D02*
Y977500D01*
X612500Y982500D02*
X613200Y981800D01*
X605000Y975000D02*
Y1010000D01*
X600000Y980000D02*
Y1012500D01*
X572500Y952500D02*
X600000Y980000D01*
X595000Y990000D02*
Y1017500D01*
X575189Y970189D02*
X595000Y990000D01*
X590000Y1002500D02*
Y1022500D01*
X582500Y995000D02*
X590000Y1002500D01*
X625700Y1036800D02*
X639300D01*
X645000Y1020000D02*
Y1060000D01*
Y1067500D02*
X650000Y1062500D01*
X630000Y1067500D02*
X640000Y1057500D01*
Y1044300D02*
Y1057500D01*
X637500Y1041800D02*
X640000Y1044300D01*
X642500Y972500D02*
Y987500D01*
X631390Y961390D02*
X642500Y972500D01*
X614300Y1011800D02*
X625700D01*
X611230Y840071D02*
Y843730D01*
X612500Y845000D01*
Y851678D01*
X609500Y854678D02*
X612500Y851678D01*
X609500Y854678D02*
Y860000D01*
X625700Y991800D02*
X638200D01*
X642500Y987500D01*
X603509Y1071491D02*
X607500Y1067500D01*
X630000D01*
X510000Y838900D02*
Y847500D01*
X470000Y838900D02*
Y850000D01*
X585000Y875000D02*
Y910000D01*
Y867500D02*
Y875000D01*
X587500Y938890D02*
Y957500D01*
X605000Y975000D01*
X616800Y1021800D02*
X625700D01*
X605000Y1010000D02*
X616800Y1021800D01*
X572500Y938890D02*
Y952500D01*
X600000Y1012500D02*
X614300Y1026800D01*
X625700D01*
X572500Y910000D02*
Y921110D01*
X570000Y907500D02*
X572500Y910000D01*
X585000Y860000D02*
Y867500D01*
X587500Y912500D02*
Y921110D01*
X585000Y910000D02*
X587500Y912500D01*
X550000Y947780D02*
Y961110D01*
X550000Y961110D02*
X566110D01*
X550000Y961110D02*
X550000Y961110D01*
X609300Y1031800D02*
X625700D01*
X595000Y1017500D02*
X609300Y1031800D01*
X566110Y961110D02*
X575189Y970189D01*
X553500Y854000D02*
X565000Y842500D01*
X590000D02*
X601500Y854000D01*
Y860000D01*
X553500Y854000D02*
Y860000D01*
X725700Y1026800D02*
X739300D01*
X685000Y1062500D02*
Y1076100D01*
X590000Y1022500D02*
X614300Y1046800D01*
X645000Y952500D02*
Y962500D01*
X655000Y942500D02*
Y962500D01*
X720000Y1085000D02*
X725000Y1090000D01*
X650000Y947500D02*
Y962500D01*
X660000Y930000D02*
Y962500D01*
Y982500D01*
X685000Y1076100D02*
Y1087500D01*
X625700Y1016800D02*
X641800D01*
X609300Y1051800D02*
X625700D01*
X700000Y952500D02*
Y962500D01*
X715000D02*
Y977500D01*
X625700Y1001800D02*
X639300D01*
X642500Y940000D02*
X650000Y947500D01*
X720000Y1076100D02*
Y1085000D01*
X614300Y1046800D02*
X625700D01*
Y1041800D02*
X637500D01*
X715000Y1076100D02*
Y1087500D01*
X639300Y1001800D02*
X642500Y1005000D01*
X723200Y1001800D02*
X739300D01*
X722500Y1002500D02*
X723200Y1001800D01*
X631390Y950000D02*
Y961390D01*
X613200Y981800D02*
X625700D01*
X597500Y1040000D02*
X609300Y1051800D01*
X586300Y1040000D02*
X597500D01*
X582500Y1043800D02*
X586300Y1040000D01*
X630000Y1082500D02*
Y1096611D01*
Y1082500D02*
X637500Y1075000D01*
Y1067500D02*
Y1075000D01*
Y1067500D02*
X645000Y1060000D01*
X641800Y1016800D02*
X645000Y1020000D01*
Y1067500D02*
Y1076100D01*
X603509Y1071491D02*
Y1096491D01*
X597220Y1102780D02*
X603509Y1096491D01*
X592500Y1102780D02*
X597220D01*
X652500Y940000D02*
X655000Y942500D01*
X702500Y942500D02*
X705000Y945000D01*
X640000Y947500D02*
X645000Y952500D01*
X545000Y907500D02*
X550000D01*
X535750Y898250D02*
X545000Y907500D01*
X542500Y917500D02*
X550000D01*
X536350Y923650D02*
X542500Y917500D01*
X527120Y910950D02*
X539050D01*
X527120Y885550D02*
X538050D01*
X547500Y895000D01*
X527120Y898250D02*
X535750D01*
X527120Y923650D02*
X536350D01*
X550000Y947780D02*
X551390Y949170D01*
X582500Y870000D02*
X585000Y867500D01*
X577500Y870000D02*
X582500D01*
X575000Y867500D02*
X577500Y870000D01*
X575000Y860000D02*
Y867500D01*
X580000Y852500D02*
Y860000D01*
X577500Y850000D02*
X580000Y852500D01*
X572500Y850000D02*
X577500D01*
X570000Y852500D02*
X572500Y850000D01*
X601500Y860000D02*
Y864000D01*
D13*
X575000Y1141750D02*
D03*
Y1128250D02*
D03*
X630000Y1141750D02*
D03*
Y1128250D02*
D03*
X652500Y855750D02*
D03*
Y869250D02*
D03*
D14*
X595000Y1123610D02*
D03*
Y1141390D02*
D03*
X587500Y938890D02*
D03*
X670000Y851110D02*
D03*
Y868890D02*
D03*
X610000Y887500D02*
D03*
Y905280D02*
D03*
X610000Y936390D02*
D03*
Y918610D02*
D03*
X550000Y930000D02*
D03*
Y947780D02*
D03*
X550000Y961110D02*
D03*
Y978890D02*
D03*
X575000Y1085000D02*
D03*
Y1102780D02*
D03*
X550000Y996110D02*
D03*
Y1013890D02*
D03*
X592500Y1085000D02*
D03*
Y1102780D02*
D03*
X572500Y938890D02*
D03*
Y921110D02*
D03*
X587500D02*
D03*
X547500Y1093890D02*
D03*
Y1076110D02*
D03*
X685000Y1118890D02*
D03*
Y1101110D02*
D03*
X702500Y1118890D02*
D03*
Y1101110D02*
D03*
X720000Y1118890D02*
D03*
Y1101110D02*
D03*
X735000Y1118890D02*
D03*
Y1101110D02*
D03*
D15*
X625700Y1021800D02*
D03*
Y1056800D02*
D03*
Y1051800D02*
D03*
Y1046800D02*
D03*
Y1041800D02*
D03*
Y1036800D02*
D03*
Y1031800D02*
D03*
Y1026800D02*
D03*
Y1016800D02*
D03*
Y1011800D02*
D03*
Y1006800D02*
D03*
Y1001800D02*
D03*
Y996800D02*
D03*
Y991800D02*
D03*
Y986800D02*
D03*
Y981800D02*
D03*
X739300D02*
D03*
Y986800D02*
D03*
Y991800D02*
D03*
Y996800D02*
D03*
Y1001800D02*
D03*
Y1006800D02*
D03*
Y1011800D02*
D03*
Y1016800D02*
D03*
Y1021800D02*
D03*
Y1026800D02*
D03*
Y1031800D02*
D03*
Y1036800D02*
D03*
Y1041800D02*
D03*
Y1046800D02*
D03*
Y1051800D02*
D03*
Y1056800D02*
D03*
D16*
X510000Y821100D02*
D03*
Y838900D02*
D03*
X470000Y821100D02*
D03*
Y838900D02*
D03*
D17*
X671310Y1180000D02*
D03*
X653530D02*
D03*
X671310Y1125000D02*
D03*
X653530D02*
D03*
X671310Y1145000D02*
D03*
X653530D02*
D03*
X671310Y1162500D02*
D03*
X653530D02*
D03*
X612220Y1112500D02*
D03*
X630000Y1112500D02*
D03*
X612220Y1097500D02*
D03*
X630000Y1097500D02*
D03*
X613610Y950000D02*
D03*
X631390D02*
D03*
X518890Y1007500D02*
D03*
X501110D02*
D03*
X518890Y992500D02*
D03*
X501110D02*
D03*
X486390Y1007500D02*
D03*
X468610D02*
D03*
X486390Y992500D02*
D03*
X468610D02*
D03*
X501110Y860000D02*
D03*
X518890D02*
D03*
X468610Y1140000D02*
D03*
X486390D02*
D03*
X518890Y1140000D02*
D03*
X501110D02*
D03*
X486390Y860000D02*
D03*
X468610D02*
D03*
D18*
X645000Y962500D02*
D03*
X650000D02*
D03*
X655000D02*
D03*
X660000D02*
D03*
X665000D02*
D03*
X670000D02*
D03*
X675000D02*
D03*
X680000D02*
D03*
X685000D02*
D03*
X690000D02*
D03*
X695000D02*
D03*
X700000D02*
D03*
X705000D02*
D03*
X710000D02*
D03*
X715000D02*
D03*
X720000D02*
D03*
Y1076100D02*
D03*
X715000D02*
D03*
X710000D02*
D03*
X705000D02*
D03*
X700000D02*
D03*
X695000D02*
D03*
X690000D02*
D03*
X685000D02*
D03*
X680000D02*
D03*
X675000D02*
D03*
X670000D02*
D03*
X665000D02*
D03*
X660000D02*
D03*
X655000D02*
D03*
X650000D02*
D03*
X645000D02*
D03*
D19*
X696000Y887000D02*
D03*
Y910000D02*
D03*
Y933000D02*
D03*
D20*
X629000Y910000D02*
D03*
D21*
X472880Y1114450D02*
D03*
Y1101750D02*
D03*
Y1089050D02*
D03*
Y1076350D02*
D03*
Y1063650D02*
D03*
Y1050950D02*
D03*
Y1038250D02*
D03*
Y1025550D02*
D03*
X527120D02*
D03*
Y1038250D02*
D03*
Y1050950D02*
D03*
Y1063650D02*
D03*
Y1076350D02*
D03*
Y1089050D02*
D03*
Y1101750D02*
D03*
Y1114450D02*
D03*
X472880Y974450D02*
D03*
Y961750D02*
D03*
Y949050D02*
D03*
Y936350D02*
D03*
Y923650D02*
D03*
Y910950D02*
D03*
Y898250D02*
D03*
Y885550D02*
D03*
X527120D02*
D03*
Y898250D02*
D03*
Y910950D02*
D03*
Y923650D02*
D03*
Y936350D02*
D03*
Y949050D02*
D03*
Y961750D02*
D03*
Y974450D02*
D03*
D22*
X609500Y860000D02*
D03*
X601500D02*
D03*
X553500D02*
D03*
X545500D02*
D03*
D23*
X595000D02*
D03*
X590000D02*
D03*
X585000D02*
D03*
X580000Y860000D02*
D03*
X560000Y860000D02*
D03*
X565000D02*
D03*
X570000D02*
D03*
X575000Y860000D02*
D03*
D44*
X675000Y1092500D02*
X685000D01*
X690000D01*
X710000D01*
X685000Y1087500D02*
X690000Y1092500D01*
X642500Y1005000D02*
X702500D01*
X559509Y1012080D02*
X565420D01*
X568610Y1008890D01*
X551810Y1012080D02*
X559509D01*
X550000Y1013890D02*
X551810Y1012080D01*
X568610Y1008890D02*
X582500Y995000D01*
X550000Y1067500D02*
X577500D01*
X547500Y1070000D02*
X550000Y1067500D01*
X547500Y1070000D02*
Y1076110D01*
X577500Y1067500D02*
X582500Y1062500D01*
Y1043800D02*
Y1062500D01*
X501110Y860000D02*
Y871390D01*
X497500Y875000D02*
Y910000D01*
Y875000D02*
X501110Y871390D01*
X483850Y923650D02*
X497500Y910000D01*
X486150Y936350D02*
X505000Y917500D01*
Y885000D02*
Y917500D01*
Y885000D02*
X517780Y872220D01*
X544250Y1038250D02*
X545000Y1037500D01*
X527120Y1038250D02*
X544250D01*
X472880Y923650D02*
X483850D01*
X472880Y936350D02*
X486150D01*
X543050Y1025550D02*
X545000Y1027500D01*
X527120Y1025550D02*
X543050D01*
X541550Y1050950D02*
X542500Y1050000D01*
X527120Y1050950D02*
X541550D01*
X541350Y1063650D02*
X542500Y1062500D01*
X527120Y1063650D02*
X541350D01*
X515000Y1087500D02*
X516550Y1089050D01*
X527120D01*
X510000Y1087500D02*
X515000D01*
X510000Y1075000D02*
X511350Y1076350D01*
X527120D01*
X510000Y937500D02*
X511150Y936350D01*
X527120D01*
X505000Y950000D02*
X505950Y949050D01*
X527120D01*
X501110Y978890D02*
Y992500D01*
Y978890D02*
X505000Y975000D01*
X526570D01*
X527120Y974450D01*
X473610Y1114450D02*
Y1127301D01*
X472880Y1114450D02*
X473610D01*
X468610Y1140000D02*
X470420Y1138190D01*
Y1130491D02*
X473610Y1127301D01*
X470420Y1130491D02*
Y1138190D01*
X395000Y1020000D02*
X457500D01*
X485280Y1007500D02*
X487090Y1009310D01*
X472880Y1050950D02*
X479050D01*
X412500Y1027500D02*
X452500D01*
X400000Y1040000D02*
X412500Y1027500D01*
X500000Y1007500D02*
Y1047500D01*
X510000Y1022500D02*
Y1062500D01*
X488200Y1130491D02*
X491390Y1127301D01*
X488200Y1130491D02*
Y1138190D01*
X486390Y1140000D02*
X488200Y1138190D01*
X472880Y1076350D02*
X496150D01*
X510000Y1062500D01*
X510550Y1114450D02*
X527120D01*
X501110Y1123890D02*
X510550Y1114450D01*
X452500Y1027500D02*
X463250Y1038250D01*
X472880D01*
Y1063650D02*
X483850D01*
X500000Y1047500D01*
X472880Y1089050D02*
X486550D01*
X491390Y1093890D01*
Y1127301D01*
X457500Y1020000D02*
X463050Y1025550D01*
X472880D01*
X517780Y1007500D02*
Y1014720D01*
X510000Y1022500D02*
X517780Y1014720D01*
X375000Y1040000D02*
X395000Y1020000D01*
X479050Y1050950D02*
X488890Y1041110D01*
Y1020199D02*
Y1041110D01*
X501110Y1123890D02*
Y1140000D01*
X487090Y1009310D02*
Y1018399D01*
X488890Y1020199D01*
X481674Y949050D02*
X486234Y953610D01*
X486390D01*
X472880Y949050D02*
X481674D01*
X486390Y953610D02*
Y992500D01*
X468610Y975700D02*
Y992500D01*
Y975700D02*
X469860Y974450D01*
X472880D01*
X486390Y860000D02*
Y908610D01*
X484050Y910950D02*
X486390Y908610D01*
X472880Y910950D02*
X484050D01*
X517780Y860000D02*
Y872220D01*
X458050Y885550D02*
X472880D01*
X450000Y877500D02*
X458050Y885550D01*
X390000Y877500D02*
X450000D01*
X375000Y892500D02*
X390000Y877500D01*
X375000Y892500D02*
Y905000D01*
X455750Y898250D02*
X472880D01*
X447500Y890000D02*
X455750Y898250D01*
X415000Y890000D02*
X447500D01*
X400000Y905000D02*
X415000Y890000D01*
D45*
X653530Y1113970D02*
X675000Y1092500D01*
X653530Y1113970D02*
Y1125000D01*
X654340Y1145000D02*
Y1162500D01*
X653530Y1125000D02*
Y1145000D01*
X527500Y992500D02*
X541110Y978890D01*
X702500Y1101110D02*
X725000D01*
Y1090000D02*
Y1101110D01*
X735000D01*
X630000Y1141750D02*
X650280D01*
X712500Y997500D02*
Y1022500D01*
X672500Y997500D02*
X712500D01*
X660000Y985000D02*
X672500Y997500D01*
X541110Y978890D02*
X550000D01*
X518890Y992500D02*
X527500D01*
X565000Y842500D02*
X590000D01*
X652500Y869250D02*
X669640D01*
X644250Y855750D02*
X652500D01*
X669640Y869250D02*
X670000Y868890D01*
Y897500D01*
X685500Y933000D02*
X696000D01*
X677500Y925000D02*
X685500Y933000D01*
X677500Y905000D02*
Y925000D01*
X670000Y897500D02*
X677500Y905000D01*
X697500Y1042500D02*
X710000D01*
X716800Y1035700D01*
X685000Y1055000D02*
X697500Y1042500D01*
X716800Y1026800D02*
Y1035700D01*
Y1026800D02*
X725700D01*
X685000Y1055000D02*
Y1062500D01*
X712500Y1022500D02*
X716800Y1026800D01*
X653530Y1145000D02*
X653530Y1145000D01*
X650280Y1141750D02*
X653530Y1145000D01*
X575000Y1102780D02*
Y1128250D01*
X630000Y1112500D02*
Y1128250D01*
Y1097500D02*
Y1112500D01*
Y1096611D02*
Y1097500D01*
X575000Y1102780D02*
X592500D01*
X542500Y1141750D02*
X575000D01*
X542500Y1141750D02*
X542500Y1141750D01*
X575000D02*
X575180Y1141570D01*
X594820D01*
X595000Y1141390D01*
X520640Y1141750D02*
X542500D01*
X518890Y1140000D02*
X520640Y1141750D01*
X595180Y1141570D02*
X595610Y1142000D01*
X629500D01*
X601500Y869000D02*
X605000Y872500D01*
X601500Y864000D02*
Y869000D01*
X610000Y905280D02*
Y918610D01*
Y905280D02*
X610000Y905280D01*
X624280D01*
X629000Y910000D01*
X640000D02*
X660000Y930000D01*
X629000Y910000D02*
X640000D01*
X710000Y1057500D02*
X715000D01*
X720000Y1062500D01*
X685000Y1101110D02*
X702500D01*
X717500Y980000D02*
Y992500D01*
X712500Y997500D02*
X717500Y992500D01*
X715000Y977500D02*
X717500Y980000D01*
X660000Y982500D02*
Y985000D01*
X653530Y1162500D02*
Y1180000D01*
D46*
X606740Y874240D02*
X625760D01*
X644250Y855750D01*
D47*
X720000Y1062500D02*
Y1076100D01*
D48*
X582500Y995000D02*
D03*
D49*
Y1043800D02*
D03*
D50*
X375000Y905000D02*
D03*
Y970000D02*
D03*
Y1040000D02*
D03*
X375000Y1105000D02*
D03*
D51*
X400000Y905000D02*
D03*
X425000D02*
D03*
X400000Y970000D02*
D03*
X425000D02*
D03*
X400000Y1040000D02*
D03*
X425000D02*
D03*
X400000Y1105000D02*
D03*
X425000D02*
D03*
D52*
X713443Y836557D02*
D03*
X713443Y1163443D02*
D03*
X386557Y1163443D02*
D03*
X386557Y836557D02*
D03*
D53*
X620750Y812500D02*
D03*
X534250D02*
D03*
D54*
X620750Y854200D02*
D03*
X534250D02*
D03*
D55*
X606400Y849300D02*
D03*
X548600D02*
D03*
D56*
X570000Y877500D02*
D03*
X613486Y1060767D02*
D03*
X687500Y985000D02*
D03*
X612500Y992500D02*
D03*
X610000Y1002500D02*
D03*
X697500Y950000D02*
D03*
X695000Y977500D02*
D03*
X702500Y1005000D02*
D03*
X612500Y982500D02*
D03*
X639300Y1036800D02*
D03*
X650000Y1062500D02*
D03*
X611230Y840071D02*
D03*
X510000Y847500D02*
D03*
X470000Y850000D02*
D03*
X585000Y875000D02*
D03*
X530000Y992500D02*
D03*
X660000Y982500D02*
D03*
X550000Y907500D02*
D03*
Y917500D02*
D03*
X539050Y910950D02*
D03*
X547500Y895000D02*
D03*
X702500Y942500D02*
D03*
X642500Y940000D02*
D03*
X640000Y947500D02*
D03*
X652500Y940000D02*
D03*
X722500Y1002500D02*
D03*
X710000Y1057500D02*
D03*
X545000Y1037500D02*
D03*
Y1027500D02*
D03*
X542500Y1050000D02*
D03*
Y1062500D02*
D03*
X510000Y1075000D02*
D03*
Y1087500D02*
D03*
X505000Y950000D02*
D03*
X510000Y937500D02*
D03*
M02*
