G04*
G04 #@! TF.GenerationSoftware,Altium Limited,Altium Designer,22.9.1 (49)*
G04*
G04 Layer_Color=32896*
%FSLAX44Y44*%
%MOMM*%
G71*
G04*
G04 #@! TF.SameCoordinates,C6527EDA-D87B-4D04-AF07-29C5A3CB862A*
G04*
G04*
G04 #@! TF.FilePolarity,Positive*
G04*
G01*
G75*
G36*
X617500Y1167500D02*
X429674D01*
Y1195942D01*
X617500D01*
Y1167500D01*
D02*
G37*
%LPC*%
G36*
X571750Y1188196D02*
X571393D01*
X571281Y1188177D01*
X571168Y1188159D01*
X571036Y1188140D01*
X570698Y1188065D01*
X570341Y1187952D01*
X569965Y1187764D01*
X569777Y1187651D01*
X569589Y1187520D01*
X569420Y1187369D01*
X569251Y1187181D01*
X569232Y1187162D01*
X569213Y1187144D01*
X569175Y1187087D01*
X569119Y1187012D01*
X569063Y1186918D01*
X568988Y1186805D01*
X568818Y1186523D01*
X568668Y1186185D01*
X568536Y1185809D01*
X568442Y1185396D01*
X568405Y1185170D01*
Y1184945D01*
Y1184907D01*
Y1184813D01*
X568424Y1184644D01*
X568461Y1184456D01*
X568499Y1184212D01*
X568574Y1183967D01*
X568668Y1183704D01*
X568800Y1183441D01*
X568818Y1183403D01*
X568875Y1183328D01*
X568950Y1183215D01*
X569081Y1183046D01*
X569232Y1182877D01*
X569439Y1182670D01*
X569664Y1182464D01*
X569927Y1182275D01*
X569908D01*
X569890Y1182257D01*
X569777Y1182219D01*
X569627Y1182163D01*
X569420Y1182069D01*
X569194Y1181918D01*
X568969Y1181749D01*
X568743Y1181524D01*
X568518Y1181242D01*
X568499Y1181204D01*
X568424Y1181091D01*
X568330Y1180922D01*
X568236Y1180697D01*
X568123Y1180415D01*
X568048Y1180076D01*
X567972Y1179682D01*
X567954Y1179249D01*
Y1179080D01*
X567972Y1178967D01*
X567991Y1178817D01*
X568010Y1178648D01*
X568048Y1178460D01*
X568085Y1178234D01*
X568217Y1177783D01*
X568405Y1177313D01*
X568518Y1177069D01*
X568649Y1176825D01*
X568818Y1176599D01*
X569006Y1176374D01*
X569025Y1176355D01*
X569044Y1176317D01*
X569119Y1176261D01*
X569194Y1176204D01*
X569288Y1176110D01*
X569401Y1176016D01*
X569702Y1175810D01*
X570059Y1175603D01*
X570472Y1175415D01*
X570717Y1175359D01*
X570961Y1175302D01*
X571205Y1175265D01*
X571469Y1175246D01*
X571600D01*
X571694Y1175265D01*
X571807Y1175283D01*
X571957Y1175302D01*
X572277Y1175359D01*
X572634Y1175471D01*
X573029Y1175659D01*
X573235Y1175753D01*
X573423Y1175885D01*
X573611Y1176035D01*
X573799Y1176204D01*
X573818Y1176223D01*
X573837Y1176242D01*
X573893Y1176298D01*
X573950Y1176374D01*
X574025Y1176486D01*
X574100Y1176599D01*
X574194Y1176731D01*
X574288Y1176900D01*
X574382Y1177069D01*
X574476Y1177276D01*
X574570Y1177483D01*
X574664Y1177727D01*
X574795Y1178234D01*
X574889Y1178836D01*
X572953Y1179118D01*
Y1179099D01*
Y1179080D01*
X572935Y1178967D01*
X572916Y1178817D01*
X572859Y1178610D01*
X572803Y1178385D01*
X572709Y1178159D01*
X572596Y1177934D01*
X572465Y1177746D01*
X572446Y1177727D01*
X572390Y1177671D01*
X572296Y1177595D01*
X572183Y1177520D01*
X572051Y1177426D01*
X571882Y1177351D01*
X571694Y1177295D01*
X571487Y1177276D01*
X571375D01*
X571262Y1177313D01*
X571130Y1177351D01*
X570961Y1177407D01*
X570773Y1177501D01*
X570604Y1177633D01*
X570435Y1177821D01*
X570416Y1177840D01*
X570360Y1177934D01*
X570303Y1178046D01*
X570209Y1178234D01*
X570134Y1178441D01*
X570078Y1178723D01*
X570021Y1179024D01*
X570003Y1179381D01*
Y1179400D01*
Y1179418D01*
Y1179531D01*
X570021Y1179700D01*
X570059Y1179907D01*
X570097Y1180133D01*
X570172Y1180377D01*
X570285Y1180621D01*
X570416Y1180828D01*
X570435Y1180847D01*
X570491Y1180922D01*
X570585Y1180997D01*
X570698Y1181110D01*
X570848Y1181204D01*
X571017Y1181298D01*
X571205Y1181355D01*
X571412Y1181373D01*
X571563D01*
X571657Y1181355D01*
X571788Y1181336D01*
X571957Y1181298D01*
X572127Y1181242D01*
X572314Y1181185D01*
X572108Y1183178D01*
X571976D01*
X571826Y1183196D01*
X571657Y1183215D01*
X571450Y1183272D01*
X571243Y1183328D01*
X571055Y1183441D01*
X570867Y1183572D01*
X570848Y1183591D01*
X570792Y1183648D01*
X570717Y1183760D01*
X570642Y1183892D01*
X570566Y1184061D01*
X570491Y1184268D01*
X570435Y1184512D01*
X570416Y1184794D01*
Y1184832D01*
Y1184907D01*
X570435Y1185020D01*
X570454Y1185170D01*
X570491Y1185321D01*
X570566Y1185490D01*
X570642Y1185659D01*
X570754Y1185809D01*
X570773Y1185828D01*
X570811Y1185866D01*
X570886Y1185922D01*
X570980Y1185997D01*
X571093Y1186072D01*
X571243Y1186129D01*
X571412Y1186166D01*
X571600Y1186185D01*
X571675D01*
X571788Y1186166D01*
X571901Y1186129D01*
X572033Y1186072D01*
X572183Y1185997D01*
X572333Y1185903D01*
X572484Y1185753D01*
X572502Y1185734D01*
X572540Y1185678D01*
X572596Y1185565D01*
X572672Y1185433D01*
X572747Y1185264D01*
X572822Y1185039D01*
X572878Y1184794D01*
X572916Y1184493D01*
X574758Y1184869D01*
Y1184888D01*
X574739Y1184945D01*
X574720Y1185039D01*
X574701Y1185151D01*
X574664Y1185302D01*
X574626Y1185452D01*
X574514Y1185828D01*
X574363Y1186242D01*
X574175Y1186655D01*
X573931Y1187050D01*
X573799Y1187238D01*
X573649Y1187388D01*
X573630Y1187407D01*
X573611Y1187426D01*
X573499Y1187520D01*
X573311Y1187651D01*
X573066Y1187802D01*
X572766Y1187933D01*
X572390Y1188065D01*
X571976Y1188159D01*
X571750Y1188196D01*
D02*
G37*
G36*
X458486Y1188196D02*
X458129D01*
X458016Y1188177D01*
X457903Y1188159D01*
X457772Y1188140D01*
X457433Y1188065D01*
X457076Y1187952D01*
X456700Y1187764D01*
X456512Y1187651D01*
X456324Y1187520D01*
X456155Y1187369D01*
X455986Y1187181D01*
X455967Y1187162D01*
X455948Y1187144D01*
X455911Y1187087D01*
X455854Y1187012D01*
X455798Y1186918D01*
X455723Y1186805D01*
X455554Y1186523D01*
X455403Y1186185D01*
X455272Y1185809D01*
X455178Y1185396D01*
X455140Y1185170D01*
Y1184945D01*
Y1184907D01*
Y1184813D01*
X455159Y1184644D01*
X455196Y1184456D01*
X455234Y1184212D01*
X455309Y1183967D01*
X455403Y1183704D01*
X455535Y1183441D01*
X455554Y1183403D01*
X455610Y1183328D01*
X455685Y1183215D01*
X455817Y1183046D01*
X455967Y1182877D01*
X456174Y1182670D01*
X456399Y1182464D01*
X456663Y1182275D01*
X456644D01*
X456625Y1182257D01*
X456512Y1182219D01*
X456362Y1182163D01*
X456155Y1182069D01*
X455930Y1181918D01*
X455704Y1181749D01*
X455479Y1181524D01*
X455253Y1181242D01*
X455234Y1181204D01*
X455159Y1181091D01*
X455065Y1180922D01*
X454971Y1180697D01*
X454858Y1180415D01*
X454783Y1180076D01*
X454708Y1179682D01*
X454689Y1179249D01*
Y1179080D01*
X454708Y1178967D01*
X454727Y1178817D01*
X454745Y1178648D01*
X454783Y1178460D01*
X454821Y1178234D01*
X454952Y1177783D01*
X455140Y1177313D01*
X455253Y1177069D01*
X455384Y1176825D01*
X455554Y1176599D01*
X455742Y1176374D01*
X455760Y1176355D01*
X455779Y1176317D01*
X455854Y1176261D01*
X455930Y1176204D01*
X456024Y1176110D01*
X456136Y1176016D01*
X456437Y1175810D01*
X456794Y1175603D01*
X457208Y1175415D01*
X457452Y1175359D01*
X457696Y1175302D01*
X457941Y1175265D01*
X458204Y1175246D01*
X458335D01*
X458429Y1175265D01*
X458542Y1175283D01*
X458693Y1175302D01*
X459012Y1175359D01*
X459369Y1175471D01*
X459764Y1175659D01*
X459971Y1175753D01*
X460159Y1175885D01*
X460347Y1176035D01*
X460535Y1176204D01*
X460553Y1176223D01*
X460572Y1176242D01*
X460629Y1176298D01*
X460685Y1176374D01*
X460760Y1176486D01*
X460835Y1176599D01*
X460929Y1176731D01*
X461023Y1176900D01*
X461117Y1177069D01*
X461211Y1177276D01*
X461305Y1177483D01*
X461399Y1177727D01*
X461531Y1178234D01*
X461625Y1178836D01*
X459689Y1179118D01*
Y1179099D01*
Y1179080D01*
X459670Y1178967D01*
X459651Y1178817D01*
X459595Y1178610D01*
X459538Y1178385D01*
X459444Y1178159D01*
X459332Y1177934D01*
X459200Y1177746D01*
X459181Y1177727D01*
X459125Y1177671D01*
X459031Y1177595D01*
X458918Y1177520D01*
X458787Y1177426D01*
X458617Y1177351D01*
X458429Y1177295D01*
X458223Y1177276D01*
X458110D01*
X457997Y1177313D01*
X457866Y1177351D01*
X457696Y1177407D01*
X457509Y1177501D01*
X457339Y1177633D01*
X457170Y1177821D01*
X457151Y1177840D01*
X457095Y1177934D01*
X457039Y1178046D01*
X456945Y1178234D01*
X456869Y1178441D01*
X456813Y1178723D01*
X456757Y1179024D01*
X456738Y1179381D01*
Y1179400D01*
Y1179418D01*
Y1179531D01*
X456757Y1179700D01*
X456794Y1179907D01*
X456832Y1180133D01*
X456907Y1180377D01*
X457020Y1180621D01*
X457151Y1180828D01*
X457170Y1180847D01*
X457226Y1180922D01*
X457321Y1180997D01*
X457433Y1181110D01*
X457584Y1181204D01*
X457753Y1181298D01*
X457941Y1181355D01*
X458148Y1181373D01*
X458298D01*
X458392Y1181355D01*
X458523Y1181336D01*
X458693Y1181298D01*
X458862Y1181242D01*
X459050Y1181185D01*
X458843Y1183178D01*
X458711D01*
X458561Y1183196D01*
X458392Y1183215D01*
X458185Y1183272D01*
X457978Y1183328D01*
X457790Y1183441D01*
X457602Y1183572D01*
X457584Y1183591D01*
X457527Y1183648D01*
X457452Y1183760D01*
X457377Y1183892D01*
X457302Y1184061D01*
X457226Y1184268D01*
X457170Y1184512D01*
X457151Y1184794D01*
Y1184832D01*
Y1184907D01*
X457170Y1185020D01*
X457189Y1185170D01*
X457226Y1185321D01*
X457302Y1185490D01*
X457377Y1185659D01*
X457490Y1185809D01*
X457509Y1185828D01*
X457546Y1185865D01*
X457621Y1185922D01*
X457715Y1185997D01*
X457828Y1186072D01*
X457978Y1186129D01*
X458148Y1186166D01*
X458335Y1186185D01*
X458411D01*
X458523Y1186166D01*
X458636Y1186129D01*
X458768Y1186072D01*
X458918Y1185997D01*
X459068Y1185903D01*
X459219Y1185753D01*
X459238Y1185734D01*
X459275Y1185678D01*
X459332Y1185565D01*
X459407Y1185433D01*
X459482Y1185264D01*
X459557Y1185039D01*
X459614Y1184794D01*
X459651Y1184493D01*
X461493Y1184869D01*
Y1184888D01*
X461474Y1184945D01*
X461456Y1185039D01*
X461437Y1185151D01*
X461399Y1185302D01*
X461362Y1185452D01*
X461249Y1185828D01*
X461099Y1186242D01*
X460910Y1186655D01*
X460666Y1187050D01*
X460535Y1187238D01*
X460384Y1187388D01*
X460365Y1187407D01*
X460347Y1187426D01*
X460234Y1187520D01*
X460046Y1187651D01*
X459802Y1187802D01*
X459501Y1187933D01*
X459125Y1188065D01*
X458711Y1188159D01*
X458486Y1188196D01*
D02*
G37*
G36*
X583178Y1188196D02*
D01*
Y1175509D01*
X583160Y1175584D01*
Y1175678D01*
X583141Y1175791D01*
X583103Y1175922D01*
X583047Y1176242D01*
X582972Y1176599D01*
X582840Y1177013D01*
X582690Y1177445D01*
X582502Y1177877D01*
Y1177896D01*
X582464Y1177934D01*
X582445Y1177990D01*
X582389Y1178084D01*
X582314Y1178197D01*
X582239Y1178347D01*
X582126Y1178497D01*
X581994Y1178686D01*
X581863Y1178892D01*
X581694Y1179118D01*
X581525Y1179362D01*
X581318Y1179644D01*
X581092Y1179926D01*
X580829Y1180227D01*
X580566Y1180565D01*
X580265Y1180903D01*
X580246Y1180922D01*
X580209Y1180979D01*
X580134Y1181054D01*
X580058Y1181148D01*
X579946Y1181261D01*
X579833Y1181411D01*
X579570Y1181730D01*
X579288Y1182069D01*
X579025Y1182388D01*
X578799Y1182689D01*
X578705Y1182821D01*
X578630Y1182933D01*
X578611Y1182971D01*
X578555Y1183065D01*
X578479Y1183215D01*
X578404Y1183422D01*
X578329Y1183648D01*
X578254Y1183911D01*
X578198Y1184193D01*
X578179Y1184475D01*
Y1184493D01*
Y1184512D01*
Y1184606D01*
X578198Y1184757D01*
X578216Y1184945D01*
X578273Y1185151D01*
X578329Y1185358D01*
X578423Y1185565D01*
X578555Y1185734D01*
X578573Y1185753D01*
X578630Y1185809D01*
X578705Y1185866D01*
X578818Y1185960D01*
X578949Y1186035D01*
X579119Y1186091D01*
X579325Y1186148D01*
X579532Y1186166D01*
X579589D01*
X579664Y1186148D01*
X579739Y1186129D01*
X579964Y1186053D01*
X580077Y1185997D01*
X580209Y1185922D01*
X580340Y1185809D01*
X580472Y1185678D01*
X580585Y1185527D01*
X580697Y1185321D01*
X580791Y1185095D01*
X580867Y1184832D01*
X580923Y1184531D01*
X580961Y1184174D01*
X582953Y1184437D01*
Y1184456D01*
X582934Y1184531D01*
Y1184625D01*
X582915Y1184757D01*
X582878Y1184907D01*
X582859Y1185095D01*
X582803Y1185302D01*
X582746Y1185527D01*
X582615Y1185978D01*
X582427Y1186448D01*
X582182Y1186899D01*
X582051Y1187087D01*
X581882Y1187275D01*
X581863Y1187294D01*
X581844Y1187313D01*
X581788Y1187369D01*
X581712Y1187426D01*
X581618Y1187482D01*
X581525Y1187576D01*
X581242Y1187745D01*
X580904Y1187914D01*
X580491Y1188046D01*
X580021Y1188159D01*
X579758Y1188177D01*
X579495Y1188196D01*
X579344D01*
X579231Y1188177D01*
X579081Y1188159D01*
X578931Y1188140D01*
X578555Y1188065D01*
X578160Y1187933D01*
X577953Y1187858D01*
X577747Y1187745D01*
X577540Y1187614D01*
X577352Y1187482D01*
X577183Y1187313D01*
X577013Y1187125D01*
X576995Y1187106D01*
X576976Y1187068D01*
X576938Y1187012D01*
X576882Y1186937D01*
X576825Y1186843D01*
X576750Y1186711D01*
X576581Y1186411D01*
X576431Y1186053D01*
X576299Y1185640D01*
X576205Y1185189D01*
X576168Y1184945D01*
Y1184550D01*
X576186Y1184399D01*
Y1184193D01*
X576224Y1183967D01*
X576262Y1183704D01*
X576318Y1183441D01*
X576393Y1183159D01*
Y1183121D01*
X576431Y1183027D01*
X576487Y1182896D01*
X576544Y1182708D01*
X576637Y1182482D01*
X576750Y1182238D01*
X576901Y1181975D01*
X577051Y1181693D01*
X577070Y1181655D01*
X577126Y1181561D01*
X577239Y1181392D01*
X577389Y1181185D01*
X577596Y1180903D01*
X577859Y1180584D01*
X578160Y1180208D01*
X578517Y1179794D01*
X578536Y1179776D01*
X578555Y1179757D01*
X578611Y1179700D01*
X578667Y1179625D01*
X578837Y1179437D01*
X579025Y1179212D01*
X579231Y1178967D01*
X579438Y1178742D01*
X579607Y1178535D01*
X579739Y1178366D01*
X579758Y1178347D01*
X579776Y1178310D01*
X579833Y1178234D01*
X579889Y1178159D01*
X580021Y1177952D01*
X580152Y1177708D01*
X576168D01*
Y1175453D01*
X583178D01*
Y1188196D01*
D02*
G37*
G36*
X566976D02*
D01*
Y1175509D01*
X566958Y1175584D01*
Y1175678D01*
X566939Y1175791D01*
X566901Y1175922D01*
X566845Y1176242D01*
X566770Y1176599D01*
X566638Y1177013D01*
X566488Y1177445D01*
X566300Y1177877D01*
Y1177896D01*
X566262Y1177934D01*
X566243Y1177990D01*
X566187Y1178084D01*
X566112Y1178197D01*
X566037Y1178347D01*
X565924Y1178497D01*
X565792Y1178686D01*
X565661Y1178892D01*
X565491Y1179118D01*
X565322Y1179362D01*
X565116Y1179644D01*
X564890Y1179926D01*
X564627Y1180227D01*
X564364Y1180565D01*
X564063Y1180903D01*
X564044Y1180922D01*
X564007Y1180979D01*
X563931Y1181054D01*
X563856Y1181148D01*
X563743Y1181261D01*
X563631Y1181411D01*
X563368Y1181730D01*
X563086Y1182069D01*
X562822Y1182388D01*
X562597Y1182689D01*
X562503Y1182821D01*
X562428Y1182933D01*
X562409Y1182971D01*
X562352Y1183065D01*
X562277Y1183215D01*
X562202Y1183422D01*
X562127Y1183648D01*
X562052Y1183911D01*
X561995Y1184193D01*
X561977Y1184475D01*
Y1184493D01*
Y1184512D01*
Y1184606D01*
X561995Y1184757D01*
X562014Y1184945D01*
X562071Y1185151D01*
X562127Y1185358D01*
X562221Y1185565D01*
X562352Y1185734D01*
X562371Y1185753D01*
X562428Y1185809D01*
X562503Y1185866D01*
X562616Y1185960D01*
X562747Y1186035D01*
X562916Y1186091D01*
X563123Y1186148D01*
X563330Y1186166D01*
X563386D01*
X563461Y1186148D01*
X563537Y1186129D01*
X563762Y1186053D01*
X563875Y1185997D01*
X564007Y1185922D01*
X564138Y1185809D01*
X564270Y1185678D01*
X564383Y1185527D01*
X564495Y1185321D01*
X564589Y1185095D01*
X564664Y1184832D01*
X564721Y1184531D01*
X564758Y1184174D01*
X566751Y1184437D01*
Y1184456D01*
X566732Y1184531D01*
Y1184625D01*
X566713Y1184757D01*
X566676Y1184907D01*
X566657Y1185095D01*
X566600Y1185302D01*
X566544Y1185527D01*
X566413Y1185978D01*
X566225Y1186448D01*
X565980Y1186899D01*
X565849Y1187087D01*
X565679Y1187275D01*
X565661Y1187294D01*
X565642Y1187313D01*
X565586Y1187369D01*
X565510Y1187426D01*
X565416Y1187482D01*
X565322Y1187576D01*
X565040Y1187745D01*
X564702Y1187914D01*
X564288Y1188046D01*
X563819Y1188159D01*
X563555Y1188177D01*
X563292Y1188196D01*
X563142D01*
X563029Y1188177D01*
X562879Y1188159D01*
X562729Y1188140D01*
X562352Y1188065D01*
X561958Y1187933D01*
X561751Y1187858D01*
X561544Y1187745D01*
X561338Y1187614D01*
X561150Y1187482D01*
X560980Y1187313D01*
X560811Y1187125D01*
X560793Y1187106D01*
X560774Y1187068D01*
X560736Y1187012D01*
X560680Y1186937D01*
X560623Y1186843D01*
X560548Y1186711D01*
X560379Y1186411D01*
X560229Y1186053D01*
X560097Y1185640D01*
X560003Y1185189D01*
X559966Y1184945D01*
Y1184550D01*
X559984Y1184399D01*
Y1184193D01*
X560022Y1183967D01*
X560059Y1183704D01*
X560116Y1183441D01*
X560191Y1183159D01*
Y1183121D01*
X560229Y1183027D01*
X560285Y1182896D01*
X560341Y1182708D01*
X560435Y1182482D01*
X560548Y1182238D01*
X560699Y1181975D01*
X560849Y1181693D01*
X560868Y1181655D01*
X560924Y1181561D01*
X561037Y1181392D01*
X561187Y1181185D01*
X561394Y1180903D01*
X561657Y1180584D01*
X561958Y1180208D01*
X562315Y1179794D01*
X562334Y1179776D01*
X562352Y1179757D01*
X562409Y1179700D01*
X562465Y1179625D01*
X562635Y1179437D01*
X562822Y1179212D01*
X563029Y1178967D01*
X563236Y1178742D01*
X563405Y1178535D01*
X563537Y1178366D01*
X563555Y1178347D01*
X563574Y1178310D01*
X563631Y1178234D01*
X563687Y1178159D01*
X563819Y1177952D01*
X563950Y1177708D01*
X559966D01*
Y1175453D01*
X566976D01*
Y1188196D01*
D02*
G37*
G36*
X469914Y1188196D02*
D01*
Y1175509D01*
X469895Y1175584D01*
Y1175678D01*
X469876Y1175791D01*
X469839Y1175922D01*
X469782Y1176242D01*
X469707Y1176599D01*
X469576Y1177013D01*
X469425Y1177445D01*
X469237Y1177877D01*
Y1177896D01*
X469200Y1177934D01*
X469181Y1177990D01*
X469124Y1178084D01*
X469049Y1178197D01*
X468974Y1178347D01*
X468861Y1178497D01*
X468730Y1178686D01*
X468598Y1178892D01*
X468429Y1179118D01*
X468260Y1179362D01*
X468053Y1179644D01*
X467827Y1179926D01*
X467564Y1180227D01*
X467301Y1180565D01*
X467000Y1180903D01*
X466982Y1180922D01*
X466944Y1180979D01*
X466869Y1181054D01*
X466794Y1181148D01*
X466681Y1181261D01*
X466568Y1181411D01*
X466305Y1181730D01*
X466023Y1182069D01*
X465760Y1182388D01*
X465534Y1182689D01*
X465440Y1182821D01*
X465365Y1182933D01*
X465346Y1182971D01*
X465290Y1183065D01*
X465215Y1183215D01*
X465140Y1183422D01*
X465064Y1183648D01*
X464989Y1183911D01*
X464933Y1184193D01*
X464914Y1184475D01*
Y1184493D01*
Y1184512D01*
Y1184606D01*
X464933Y1184757D01*
X464952Y1184945D01*
X465008Y1185151D01*
X465064Y1185358D01*
X465158Y1185565D01*
X465290Y1185734D01*
X465309Y1185753D01*
X465365Y1185809D01*
X465440Y1185865D01*
X465553Y1185959D01*
X465685Y1186035D01*
X465854Y1186091D01*
X466061Y1186148D01*
X466267Y1186166D01*
X466324D01*
X466399Y1186148D01*
X466474Y1186129D01*
X466700Y1186053D01*
X466813Y1185997D01*
X466944Y1185922D01*
X467076Y1185809D01*
X467207Y1185678D01*
X467320Y1185527D01*
X467433Y1185321D01*
X467527Y1185095D01*
X467602Y1184832D01*
X467658Y1184531D01*
X467696Y1184174D01*
X469688Y1184437D01*
Y1184456D01*
X469669Y1184531D01*
Y1184625D01*
X469651Y1184757D01*
X469613Y1184907D01*
X469594Y1185095D01*
X469538Y1185302D01*
X469482Y1185527D01*
X469350Y1185978D01*
X469162Y1186448D01*
X468918Y1186899D01*
X468786Y1187087D01*
X468617Y1187275D01*
X468598Y1187294D01*
X468579Y1187313D01*
X468523Y1187369D01*
X468448Y1187426D01*
X468354Y1187482D01*
X468260Y1187576D01*
X467978Y1187745D01*
X467640Y1187914D01*
X467226Y1188046D01*
X466756Y1188159D01*
X466493Y1188177D01*
X466230Y1188196D01*
X466079D01*
X465967Y1188177D01*
X465816Y1188159D01*
X465666Y1188140D01*
X465290Y1188065D01*
X464895Y1187933D01*
X464688Y1187858D01*
X464482Y1187745D01*
X464275Y1187614D01*
X464087Y1187482D01*
X463918Y1187313D01*
X463749Y1187125D01*
X463730Y1187106D01*
X463711Y1187068D01*
X463674Y1187012D01*
X463617Y1186937D01*
X463561Y1186843D01*
X463486Y1186711D01*
X463316Y1186411D01*
X463166Y1186053D01*
X463035Y1185640D01*
X462940Y1185189D01*
X462903Y1184945D01*
Y1184550D01*
X462922Y1184399D01*
Y1184193D01*
X462959Y1183967D01*
X462997Y1183704D01*
X463053Y1183441D01*
X463129Y1183159D01*
Y1183121D01*
X463166Y1183027D01*
X463222Y1182896D01*
X463279Y1182708D01*
X463373Y1182482D01*
X463486Y1182238D01*
X463636Y1181975D01*
X463786Y1181693D01*
X463805Y1181655D01*
X463862Y1181561D01*
X463974Y1181392D01*
X464125Y1181185D01*
X464331Y1180903D01*
X464594Y1180584D01*
X464895Y1180208D01*
X465252Y1179794D01*
X465271Y1179776D01*
X465290Y1179757D01*
X465346Y1179700D01*
X465403Y1179625D01*
X465572Y1179437D01*
X465760Y1179212D01*
X465967Y1178967D01*
X466173Y1178742D01*
X466343Y1178535D01*
X466474Y1178366D01*
X466493Y1178347D01*
X466512Y1178310D01*
X466568Y1178234D01*
X466624Y1178159D01*
X466756Y1177952D01*
X466888Y1177708D01*
X462903D01*
Y1175453D01*
X469914D01*
Y1188196D01*
D02*
G37*
G36*
X453712D02*
D01*
Y1175509D01*
X453693Y1175584D01*
Y1175678D01*
X453674Y1175791D01*
X453637Y1175922D01*
X453580Y1176242D01*
X453505Y1176599D01*
X453373Y1177013D01*
X453223Y1177445D01*
X453035Y1177877D01*
Y1177896D01*
X452997Y1177934D01*
X452979Y1177990D01*
X452922Y1178084D01*
X452847Y1178197D01*
X452772Y1178347D01*
X452659Y1178497D01*
X452528Y1178686D01*
X452396Y1178892D01*
X452227Y1179118D01*
X452058Y1179362D01*
X451851Y1179644D01*
X451625Y1179926D01*
X451362Y1180227D01*
X451099Y1180565D01*
X450798Y1180903D01*
X450779Y1180922D01*
X450742Y1180979D01*
X450667Y1181054D01*
X450592Y1181148D01*
X450479Y1181261D01*
X450366Y1181411D01*
X450103Y1181730D01*
X449821Y1182069D01*
X449558Y1182388D01*
X449332Y1182689D01*
X449238Y1182821D01*
X449163Y1182933D01*
X449144Y1182971D01*
X449088Y1183065D01*
X449013Y1183215D01*
X448937Y1183422D01*
X448862Y1183648D01*
X448787Y1183911D01*
X448731Y1184193D01*
X448712Y1184475D01*
Y1184493D01*
Y1184512D01*
Y1184606D01*
X448731Y1184757D01*
X448750Y1184945D01*
X448806Y1185151D01*
X448862Y1185358D01*
X448956Y1185565D01*
X449088Y1185734D01*
X449107Y1185753D01*
X449163Y1185809D01*
X449238Y1185865D01*
X449351Y1185959D01*
X449483Y1186035D01*
X449652Y1186091D01*
X449859Y1186148D01*
X450065Y1186166D01*
X450122D01*
X450197Y1186148D01*
X450272Y1186129D01*
X450498Y1186053D01*
X450610Y1185997D01*
X450742Y1185922D01*
X450873Y1185809D01*
X451005Y1185678D01*
X451118Y1185527D01*
X451231Y1185321D01*
X451325Y1185095D01*
X451400Y1184832D01*
X451456Y1184531D01*
X451494Y1184174D01*
X453486Y1184437D01*
Y1184456D01*
X453467Y1184531D01*
Y1184625D01*
X453448Y1184757D01*
X453411Y1184907D01*
X453392Y1185095D01*
X453336Y1185302D01*
X453279Y1185527D01*
X453148Y1185978D01*
X452960Y1186448D01*
X452715Y1186899D01*
X452584Y1187087D01*
X452415Y1187275D01*
X452396Y1187294D01*
X452377Y1187313D01*
X452321Y1187369D01*
X452246Y1187426D01*
X452152Y1187482D01*
X452058Y1187576D01*
X451776Y1187745D01*
X451437Y1187914D01*
X451024Y1188046D01*
X450554Y1188159D01*
X450291Y1188177D01*
X450028Y1188196D01*
X449877D01*
X449765Y1188177D01*
X449614Y1188159D01*
X449464Y1188140D01*
X449088Y1188065D01*
X448693Y1187933D01*
X448486Y1187858D01*
X448280Y1187745D01*
X448073Y1187614D01*
X447885Y1187482D01*
X447716Y1187313D01*
X447547Y1187125D01*
X447528Y1187106D01*
X447509Y1187068D01*
X447471Y1187012D01*
X447415Y1186937D01*
X447359Y1186843D01*
X447283Y1186711D01*
X447114Y1186411D01*
X446964Y1186053D01*
X446832Y1185640D01*
X446738Y1185189D01*
X446701Y1184945D01*
Y1184550D01*
X446720Y1184399D01*
Y1184193D01*
X446757Y1183967D01*
X446795Y1183704D01*
X446851Y1183441D01*
X446926Y1183159D01*
Y1183121D01*
X446964Y1183027D01*
X447020Y1182896D01*
X447077Y1182708D01*
X447171Y1182482D01*
X447283Y1182238D01*
X447434Y1181975D01*
X447584Y1181693D01*
X447603Y1181655D01*
X447659Y1181561D01*
X447772Y1181392D01*
X447923Y1181185D01*
X448129Y1180903D01*
X448392Y1180584D01*
X448693Y1180208D01*
X449050Y1179794D01*
X449069Y1179776D01*
X449088Y1179757D01*
X449144Y1179700D01*
X449201Y1179625D01*
X449370Y1179437D01*
X449558Y1179212D01*
X449765Y1178967D01*
X449971Y1178742D01*
X450140Y1178535D01*
X450272Y1178366D01*
X450291Y1178347D01*
X450310Y1178310D01*
X450366Y1178234D01*
X450422Y1178159D01*
X450554Y1177952D01*
X450686Y1177708D01*
X446701D01*
Y1175453D01*
X453712D01*
Y1188196D01*
D02*
G37*
G36*
X591374Y1188196D02*
D01*
Y1180133D01*
X586862Y1188196D01*
X585171D01*
Y1180152D01*
X583874D01*
Y1178009D01*
X585171D01*
Y1175453D01*
X583874D01*
X591374D01*
Y1188196D01*
D02*
G37*
G36*
X554157Y1188159D02*
X551019D01*
X549120Y1179456D01*
X547241Y1188159D01*
X544064Y1188159D01*
Y1175453D01*
X554157Y1175453D01*
Y1188159D01*
D02*
G37*
G36*
X505645Y1188159D02*
X502506D01*
X500608Y1179456D01*
X498728Y1188159D01*
X495552D01*
Y1175453D01*
X505645D01*
Y1188159D01*
D02*
G37*
G36*
X542015D02*
X539910D01*
Y1181279D01*
Y1181261D01*
Y1181204D01*
Y1181129D01*
Y1181016D01*
Y1180903D01*
Y1180753D01*
X539891Y1180415D01*
Y1180076D01*
X539873Y1179719D01*
X539854Y1179418D01*
Y1179306D01*
X539835Y1179193D01*
Y1179155D01*
X539797Y1179061D01*
X539760Y1178911D01*
X539703Y1178723D01*
X539609Y1178497D01*
X539497Y1178291D01*
X539365Y1178084D01*
X539177Y1177896D01*
X539158Y1177877D01*
X539083Y1177821D01*
X538970Y1177746D01*
X538801Y1177671D01*
X538613Y1177595D01*
X538369Y1177520D01*
X538087Y1177464D01*
X537786Y1177445D01*
X537655D01*
X537523Y1177464D01*
X537354Y1177483D01*
X537166Y1177520D01*
X536978Y1177577D01*
X536790Y1177652D01*
X536602Y1177765D01*
X536583Y1177783D01*
X536527Y1177821D01*
X536452Y1177896D01*
X536358Y1177990D01*
X536245Y1178122D01*
X536151Y1178272D01*
X536057Y1178441D01*
X535982Y1178648D01*
Y1178686D01*
X535944Y1178761D01*
Y1178836D01*
X535925Y1178930D01*
X535907Y1179043D01*
X535888Y1179174D01*
X535869Y1179324D01*
X535850Y1179512D01*
X535831Y1179719D01*
Y1179945D01*
X535813Y1180189D01*
X535794Y1180471D01*
Y1180791D01*
Y1181129D01*
Y1188159D01*
X533689D01*
Y1180866D01*
X533707Y1180621D01*
Y1180358D01*
X533726Y1180058D01*
X533764Y1179456D01*
X533801Y1178855D01*
X533839Y1178554D01*
X533877Y1178272D01*
X533914Y1178009D01*
X533971Y1177783D01*
Y1177765D01*
X533989Y1177727D01*
X534008Y1177671D01*
X534027Y1177595D01*
X534102Y1177389D01*
X534234Y1177125D01*
X534403Y1176843D01*
X534610Y1176524D01*
X534873Y1176223D01*
X535211Y1175941D01*
X535230D01*
X535249Y1175904D01*
X535305Y1175885D01*
X535380Y1175828D01*
X535474Y1175772D01*
X535587Y1175716D01*
X535737Y1175659D01*
X535888Y1175603D01*
X536245Y1175471D01*
X536677Y1175359D01*
X537166Y1175283D01*
X537730Y1175246D01*
X533689D01*
D01*
X542015D01*
Y1188159D01*
D02*
G37*
G36*
X461625Y1188196D02*
D01*
Y1175828D01*
Y1188196D01*
D02*
G37*
G36*
X608346Y1188159D02*
X601204D01*
Y1186016D01*
X606241D01*
Y1182990D01*
X601880D01*
Y1180847D01*
X606241D01*
Y1175453D01*
X608346D01*
Y1188159D01*
D02*
G37*
G36*
X600208D02*
X591919D01*
Y1186016D01*
X595001D01*
Y1175453D01*
X597106D01*
Y1186016D01*
X600208D01*
Y1175453D01*
D01*
Y1188159D01*
D02*
G37*
G36*
X531433Y1188065D02*
X524103D01*
X529328D01*
Y1177595D01*
X524103D01*
Y1175453D01*
X531433D01*
Y1188065D01*
D02*
G37*
G36*
X523332Y1188159D02*
X515043D01*
Y1186016D01*
X518126D01*
Y1175453D01*
X515043D01*
D01*
X523332D01*
Y1188159D01*
D02*
G37*
G36*
X574889Y1188196D02*
D01*
Y1175453D01*
Y1188196D01*
D02*
G37*
G36*
X513765Y1188159D02*
X511660D01*
Y1175453D01*
X513765D01*
Y1188159D01*
D02*
G37*
G36*
X494537D02*
Y1175453D01*
X490495Y1188159D01*
X488259D01*
X484067Y1175453D01*
D01*
X494537D01*
Y1188159D01*
D02*
G37*
G36*
X484030D02*
Y1175453D01*
X480421Y1182069D01*
X483691Y1188159D01*
X479180D01*
X481248D01*
X479180Y1184343D01*
X477113Y1188159D01*
X474669D01*
X477940Y1182069D01*
X474331Y1175453D01*
D01*
X479180D01*
X476850D01*
X479180Y1179776D01*
X481511Y1175453D01*
X484030D01*
Y1188159D01*
D02*
G37*
%LPD*%
G36*
X589513Y1180152D02*
X587107D01*
Y1184475D01*
X589513Y1180152D01*
D02*
G37*
G36*
X591374Y1175453D02*
X587107D01*
Y1178009D01*
X591374D01*
Y1175453D01*
D02*
G37*
G36*
X552203D02*
X550135D01*
X552203Y1185471D01*
Y1175453D01*
D02*
G37*
G36*
X548124D02*
X546019D01*
Y1185471D01*
X548124Y1175453D01*
D02*
G37*
G36*
X503690Y1175453D02*
X501623D01*
X503690Y1185471D01*
Y1175453D01*
D02*
G37*
G36*
X499612D02*
X497506D01*
Y1185471D01*
X499612Y1175453D01*
D02*
G37*
G36*
X542015Y1175246D02*
X537880D01*
X537993Y1175265D01*
X538143D01*
X538294Y1175283D01*
X538670Y1175321D01*
X539064Y1175396D01*
X539497Y1175490D01*
X539910Y1175640D01*
X540286Y1175828D01*
X540305D01*
X540324Y1175847D01*
X540436Y1175941D01*
X540606Y1176073D01*
X540793Y1176261D01*
X541019Y1176486D01*
X541245Y1176768D01*
X541451Y1177088D01*
X541621Y1177464D01*
Y1177483D01*
X541639Y1177520D01*
X541658Y1177577D01*
X541677Y1177671D01*
X541715Y1177802D01*
X541752Y1177952D01*
X541790Y1178140D01*
X541809Y1178347D01*
X541846Y1178610D01*
X541884Y1178892D01*
X541921Y1179212D01*
X541959Y1179569D01*
X541978Y1179964D01*
X541996Y1180396D01*
X542015Y1180866D01*
Y1175246D01*
D02*
G37*
G36*
X523332Y1175453D02*
X520231D01*
Y1186016D01*
X523332D01*
Y1175453D01*
D02*
G37*
G36*
X490796Y1180471D02*
X487939D01*
X489386Y1185189D01*
X490796Y1180471D01*
D02*
G37*
G36*
X492300Y1175453D02*
X486342D01*
X487244Y1178328D01*
X491454D01*
X492300Y1175453D01*
D02*
G37*
M02*
